<?xml version="1.0" encoding="utf-8"?>
<!-- Generator: Adobe Illustrator 23.0.1, SVG Export Plug-In . SVG Version: 6.00 Build 0)  -->
<svg version="1.1" id="Layer_1" xmlns="http://www.w3.org/2000/svg" xmlns:xlink="http://www.w3.org/1999/xlink" x="0px" y="0px"
	 viewBox="0 0 85 30" style="enable-background:new 0 0 85 30;" xml:space="preserve">
<style type="text/css">
	.st0{fill-rule:evenodd;clip-rule:evenodd;fill:#FCD665;}
	.st1{fill-rule:evenodd;clip-rule:evenodd;fill:#00C99E;}
</style>
<title>colu logo</title>
<desc>Created with Sketch.</desc>
<g id="test">
	<g transform="translate(-35.000000, -16.000000)">
		<g id="header">
			<g id="colu-logo" transform="translate(35.000000, 16.000000)">
				<path id="Path" class="st0" d="M82.2,24.2c-1.5,0-2.8,1.3-2.8,2.8c0,1.5,1.3,2.8,2.8,2.8S85,28.6,85,27
					C85,25.5,83.7,24.2,82.2,24.2"/>
				<path class="st1" d="M52.8,23.6c-0.7,0.4-1.5,0.6-2,0.5c-1.3-0.2-2-1.2-2-2.3c0,0,0-13.1,0-13.2c0-6-1.2-9.1-8-8.4v5.6
					c1.8,0.3,2.4,1.8,2.5,2.7v14c0,5.8,5.1,7.2,7,7.2c2.1,0,3.8-1,4.6-1.6c-0.4-0.5-0.8-1-1.1-1.6C53.3,25.7,53,24.6,52.8,23.6"/>
				<path class="st1" d="M10.6,24c-2.5-0.1-5-2.3-5-5.4c0-3.3,2.6-5.2,5.1-5.4c2.4-0.2,4,0.8,4.4,1.1l2.5-4.2
					c-0.9-0.8-3.2-2.4-6.9-2.4C4.8,7.6,0,12.5,0,18.6c0,6,4.4,10.7,10.5,10.9c4.6,0.2,7.3-1.9,8.8-3.2c-1.1-1.3-1.9-2.8-2.3-4.4
					C16.3,22.6,13.9,24.2,10.6,24"/>
				<path class="st1" d="M29.4,24c-3-0.1-5.7-2.4-5.7-5.4s2.4-5.4,5.4-5.4c3.2,0,5.4,2.4,5.4,5.4c0,1-0.1,1.9-0.3,3.1
					c1.7-0.7,4.6-2.7,5.4-4.2c0,0,0,0,0,0c-0.6-6.1-5.2-9.9-10.7-9.9C23.1,7.5,18,12.6,18.1,19c0,4.8,4,10.2,11.1,10.7
					c6.8,0.2,11.4-3.8,12.7-5.9v-6.5C38.1,21.7,34.3,24.3,29.4,24"/>
				<path class="st1" d="M72.6,21.6l0-12.3H67v9.8c0,2.2-0.4,5.1-3.8,5.1c-1.7,0-2.7-0.6-3.3-1.9c-0.5-1.1-0.5-2.4-0.5-3.2V9.3h-5.6
					v10.6c0,0,0,3.7,1.2,5.9c1.5,2.7,4.2,3.9,8.2,3.9c2.9,0,5.4-0.9,7-2.4c0,0,2.2,3.3,6.2,2v-4.8C74,24.6,72.6,23.5,72.6,21.6"/>
			</g>
		</g>
	</g>
</g>
</svg>
