<?xml version="1.0" encoding="utf-8"?>
<!-- Generator: Adobe Illustrator 23.0.2, SVG Export Plug-In . SVG Version: 6.00 Build 0)  -->
<svg version="1.1" id="Layer_1" xmlns="http://www.w3.org/2000/svg" xmlns:xlink="http://www.w3.org/1999/xlink" x="0px" y="0px"
	 viewBox="0 0 749.31 505.03" style="enable-background:new 0 0 749.31 505.03;" xml:space="preserve">
<style type="text/css">
	.st0{fill:#FFFFFF;}
	.st1{fill:#D8FBE0;}
	.st2{fill:url(#SVGID_1_);}
	.st3{fill:#05283E;}
	.st4{fill:#052741;}
	.st5{fill:url(#SVGID_2_);}
	.st6{fill:none;stroke:#052741;stroke-width:1.9126;stroke-miterlimit:10;}
	.st7{clip-path:url(#SVGID_4_);}
	.st8{clip-path:url(#SVGID_6_);}
	.st9{clip-path:url(#SVGID_8_);fill:#05283F;}
	.st10{opacity:0.27;clip-path:url(#SVGID_8_);fill:url(#);}
	.st11{clip-path:url(#SVGID_6_);fill:url(#SVGID_9_);}
	.st12{clip-path:url(#SVGID_11_);}
	.st13{clip-path:url(#SVGID_13_);}
	.st14{clip-path:url(#SVGID_15_);fill:#05283F;}
	.st15{opacity:0.27;clip-path:url(#SVGID_15_);fill:url(#);}
	.st16{clip-path:url(#SVGID_13_);fill:url(#SVGID_16_);}
	.st17{clip-path:url(#SVGID_18_);}
	.st18{clip-path:url(#SVGID_20_);}
	.st19{clip-path:url(#SVGID_22_);fill:#05283F;}
	.st20{opacity:0.27;clip-path:url(#SVGID_22_);fill:url(#);}
	.st21{clip-path:url(#SVGID_20_);fill:url(#SVGID_23_);}
	.st22{fill:none;stroke:#FFEA14;stroke-width:1.193;stroke-miterlimit:10;}
	.st23{fill-rule:evenodd;clip-rule:evenodd;fill:#FFEA14;}
	.st24{fill:#FFEA14;}
	.st25{opacity:0.5;fill:none;stroke:#FFFFFF;stroke-width:2;stroke-linecap:round;stroke-miterlimit:10;}
	.st26{opacity:0.5;}
	.st27{fill:none;stroke:#FFFFFF;stroke-width:2;stroke-miterlimit:10;}
	.st28{clip-path:url(#SVGID_25_);}
	.st29{fill:none;stroke:#EDEDED;stroke-width:0.9222;stroke-miterlimit:10;}
	.st30{clip-path:url(#SVGID_31_);}
	.st31{clip-path:url(#SVGID_33_);}
	.st32{fill:url(#SVGID_34_);}
	.st33{clip-path:url(#SVGID_36_);}
	.st34{opacity:0.25;}
	.st35{fill:#05283F;}
	.st36{clip-path:url(#SVGID_40_);fill:#05283F;}
	.st37{opacity:0.27;clip-path:url(#SVGID_40_);fill:url(#);}
	.st38{fill:url(#SVGID_41_);}
	.st39{opacity:0.4;fill:url(#SVGID_42_);}
	.st40{opacity:0.4;fill:url(#SVGID_43_);}
	.st41{fill:url(#SVGID_44_);}
	.st42{fill:url(#SVGID_45_);}
	.st43{fill:none;stroke:#FFFFFF;stroke-miterlimit:10;}
	.st44{clip-path:url(#SVGID_47_);fill:url(#SVGID_48_);}
	.st45{fill:#F4FF15;}
	.st46{fill:url(#SVGID_49_);}
	.st47{fill:url(#SVGID_50_);}
	.st48{clip-path:url(#SVGID_52_);fill:#05283F;}
	.st49{opacity:0.27;clip-path:url(#SVGID_52_);fill:url(#);}
	.st50{fill:url(#SVGID_53_);}
	.st51{opacity:0.4;fill:url(#SVGID_54_);}
	.st52{fill:url(#SVGID_55_);}
	.st53{fill:url(#SVGID_56_);}
	.st54{clip-path:url(#SVGID_58_);fill:#05283F;}
	.st55{opacity:0.27;clip-path:url(#SVGID_58_);fill:url(#);}
	.st56{fill:url(#SVGID_59_);}
	.st57{clip-path:url(#SVGID_61_);fill:url(#SVGID_62_);}
	.st58{fill:url(#SVGID_63_);}
	.st59{fill:url(#SVGID_64_);}
	.st60{opacity:0.4;fill:url(#SVGID_65_);}
	.st61{fill:#ACF886;}
	.st62{fill:#D4F14F;}
	.st63{fill:#D8F14A;}
	.st64{fill:url(#SVGID_66_);}
	.st65{opacity:0.4;fill:url(#SVGID_67_);}
	.st66{opacity:0.4;fill:url(#SVGID_68_);}
	.st67{fill:url(#SVGID_69_);}
	.st68{fill:url(#SVGID_70_);}
	.st69{fill:url(#SVGID_71_);}
	.st70{fill:url(#SVGID_72_);}
	.st71{fill:url(#SVGID_73_);}
	.st72{fill:url(#SVGID_74_);}
	.st73{fill:url(#SVGID_75_);}
	.st74{opacity:0.2;}
	.st75{fill:none;stroke:#05283F;stroke-width:1.0013;stroke-miterlimit:10;}
	.st76{fill:none;stroke:#05283F;stroke-width:1.002;stroke-miterlimit:10;}
	.st77{fill:#B2B2B2;}
	.st78{fill-rule:evenodd;clip-rule:evenodd;fill:#B2B2B2;}
	.st79{fill:#A6A6A6;}
	.st80{fill:#FFFFFF;stroke:#FFFFFF;stroke-width:0.2114;stroke-miterlimit:10;}
	.st81{fill:url(#path64_1_);}
	.st82{fill:url(#path78_1_);}
	.st83{fill:url(#path88_1_);}
	.st84{fill:url(#path104_1_);}
	.st85{clip-path:url(#SVGID_77_);fill:#E9B399;}
	.st86{clip-path:url(#SVGID_77_);fill:#0A7586;}
	.st87{clip-path:url(#SVGID_77_);fill:#A47449;}
	.st88{clip-path:url(#SVGID_77_);fill:#25435A;}
	.st89{clip-path:url(#SVGID_77_);fill:#7F5737;}
	.st90{clip-path:url(#SVGID_77_);fill:#FFFFFF;}
	.st91{clip-path:url(#SVGID_77_);fill:#FC6E4C;}
	.st92{clip-path:url(#SVGID_77_);fill:#C2907A;}
	.st93{filter:url(#Adobe_OpacityMaskFilter);}
	.st94{clip-path:url(#SVGID_79_);fill:url(#SVGID_81_);}
	.st95{clip-path:url(#SVGID_79_);mask:url(#SVGID_80_);fill:url(#SVGID_82_);}
	.st96{filter:url(#Adobe_OpacityMaskFilter_1_);}
	.st97{clip-path:url(#SVGID_84_);fill:url(#SVGID_86_);}
	.st98{clip-path:url(#SVGID_84_);mask:url(#SVGID_85_);fill:url(#SVGID_87_);}
	.st99{clip-path:url(#SVGID_84_);fill:#E9B399;}
	.st100{clip-path:url(#SVGID_84_);fill:#25435A;}
	.st101{clip-path:url(#SVGID_84_);fill:#ECED2E;}
	.st102{filter:url(#Adobe_OpacityMaskFilter_2_);}
	.st103{clip-path:url(#SVGID_89_);fill:url(#SVGID_91_);}
	.st104{clip-path:url(#SVGID_89_);mask:url(#SVGID_90_);fill:url(#SVGID_92_);}
	.st105{fill:#E1E1E1;}
	.st106{clip-path:url(#SVGID_94_);fill:#A47449;}
	.st107{clip-path:url(#SVGID_94_);fill:#FEC305;}
	.st108{clip-path:url(#SVGID_94_);fill:#25435A;}
	.st109{clip-path:url(#SVGID_94_);fill:#0A7586;}
	.st110{clip-path:url(#SVGID_94_);fill:#E9B399;}
	.st111{clip-path:url(#SVGID_94_);}
	.st112{clip-path:url(#SVGID_96_);}
	.st113{clip-path:url(#SVGID_98_);fill:#CECECE;}
	.st114{opacity:0.25;clip-path:url(#SVGID_94_);}
	.st115{clip-path:url(#SVGID_100_);}
	.st116{clip-path:url(#SVGID_102_);fill:#FFFFFF;}
	.st117{clip-path:url(#SVGID_104_);}
	.st118{clip-path:url(#SVGID_106_);fill:#FFFFFF;}
	.st119{clip-path:url(#SVGID_108_);}
	.st120{clip-path:url(#SVGID_110_);fill:#FFFFFF;}
	.st121{clip-path:url(#SVGID_112_);}
	.st122{clip-path:url(#SVGID_114_);fill:#FFFFFF;}
	.st123{clip-path:url(#SVGID_116_);}
	.st124{clip-path:url(#SVGID_118_);fill:#FFFFFF;}
	.st125{clip-path:url(#SVGID_94_);fill:#FC6E4C;}
	.st126{clip-path:url(#SVGID_94_);fill:none;stroke:#FFFFFF;stroke-width:1.4756;stroke-miterlimit:10;}
	.st127{clip-path:url(#SVGID_94_);fill:#FFFFFF;}
	.st128{clip-path:url(#SVGID_94_);fill:none;stroke:#FFFFFF;stroke-width:1.3567;stroke-linecap:round;stroke-miterlimit:10;}
	.st129{clip-path:url(#SVGID_94_);fill:#C2907A;}
	.st130{clip-path:url(#SVGID_94_);fill:#052741;}
	.st131{clip-path:url(#SVGID_94_);fill:none;stroke:#25435A;stroke-width:1.7229;stroke-miterlimit:10;}
	.st132{clip-path:url(#SVGID_94_);fill:none;stroke:#25435A;stroke-width:1.4185;stroke-miterlimit:10;}
	.st133{clip-path:url(#SVGID_94_);fill:none;stroke:#FFFFFF;stroke-width:1.8017;stroke-linecap:round;stroke-miterlimit:10;}
	.st134{opacity:0.4;clip-path:url(#SVGID_94_);}
	.st135{clip-path:url(#SVGID_120_);}
	.st136{clip-path:url(#SVGID_122_);fill:#FFFFFF;}
	.st137{clip-path:url(#SVGID_124_);}
	.st138{clip-path:url(#SVGID_126_);fill:none;stroke:#FFFFFF;stroke-width:1.4756;stroke-miterlimit:10;}
	.st139{clip-path:url(#SVGID_128_);}
	.st140{clip-path:url(#SVGID_130_);fill:none;stroke:#FFFFFF;stroke-width:1.4756;stroke-miterlimit:10;}
	.st141{filter:url(#Adobe_OpacityMaskFilter_3_);}
	.st142{clip-path:url(#SVGID_132_);fill:url(#SVGID_134_);}
	.st143{clip-path:url(#SVGID_132_);mask:url(#SVGID_133_);fill:url(#SVGID_135_);}
	.st144{clip-path:url(#SVGID_137_);fill:#25435A;}
	.st145{clip-path:url(#SVGID_137_);fill:#FFFFFF;}
	.st146{clip-path:url(#SVGID_137_);fill:#E9B399;}
	.st147{opacity:0.4;clip-path:url(#SVGID_137_);}
	.st148{clip-path:url(#SVGID_139_);}
	.st149{clip-path:url(#SVGID_141_);fill:none;stroke:#FFFFFF;stroke-width:2.9513;stroke-miterlimit:10;}
	.st150{opacity:0.9;clip-path:url(#SVGID_137_);}
	.st151{clip-path:url(#SVGID_143_);}
	.st152{clip-path:url(#SVGID_145_);fill:none;stroke:#FFFFFF;stroke-width:2.9513;stroke-miterlimit:10;}
	.st153{opacity:0.7;clip-path:url(#SVGID_137_);}
	.st154{clip-path:url(#SVGID_147_);}
	.st155{clip-path:url(#SVGID_149_);fill:none;stroke:#FFFFFF;stroke-width:2.9513;stroke-miterlimit:10;}
	.st156{clip-path:url(#SVGID_137_);fill:#FEC305;}
	.st157{opacity:0.2;clip-path:url(#SVGID_137_);}
	.st158{clip-path:url(#SVGID_151_);}
	.st159{clip-path:url(#SVGID_153_);fill:#25435A;}
	.st160{clip-path:url(#SVGID_137_);fill:#A47449;}
	.st161{clip-path:url(#SVGID_137_);}
	.st162{clip-path:url(#SVGID_155_);}
	.st163{clip-path:url(#SVGID_157_);fill:#CECECE;}
	.st164{clip-path:url(#SVGID_137_);fill:#FC6E4C;}
	.st165{clip-path:url(#SVGID_137_);fill:#0A7586;}
	.st166{clip-path:url(#SVGID_159_);}
	.st167{clip-path:url(#SVGID_161_);fill:#E1E1E1;}
	.st168{clip-path:url(#SVGID_137_);fill:#E1E1E1;}
	.st169{opacity:0.5;clip-path:url(#SVGID_137_);}
	.st170{clip-path:url(#SVGID_163_);}
	.st171{clip-path:url(#SVGID_165_);fill:#FFFFFF;}
	.st172{clip-path:url(#SVGID_167_);}
	.st173{clip-path:url(#SVGID_169_);fill:#FFFFFF;}
	.st174{clip-path:url(#SVGID_171_);}
	.st175{clip-path:url(#SVGID_173_);fill:#FFFFFF;}
	.st176{clip-path:url(#SVGID_175_);}
	.st177{clip-path:url(#SVGID_177_);fill:#FFFFFF;}
	.st178{clip-path:url(#SVGID_179_);}
	.st179{clip-path:url(#SVGID_181_);fill:#FFFFFF;}
	.st180{clip-path:url(#SVGID_183_);}
	.st181{clip-path:url(#SVGID_185_);fill:#FFFFFF;}
	.st182{clip-path:url(#SVGID_187_);}
	.st183{clip-path:url(#SVGID_189_);fill:#FFFFFF;}
	.st184{clip-path:url(#SVGID_191_);}
	.st185{clip-path:url(#SVGID_193_);fill:#FFFFFF;}
	.st186{clip-path:url(#SVGID_195_);}
	.st187{clip-path:url(#SVGID_197_);fill:#FFFFFF;}
	.st188{clip-path:url(#SVGID_199_);}
	.st189{clip-path:url(#SVGID_201_);fill:#FFFFFF;}
	.st190{fill:#B6B6B6;}
	.st191{fill:#25435A;}
	.st192{fill:none;stroke:#B6B6B6;stroke-width:7.5293;stroke-linecap:round;stroke-miterlimit:10;}
	.st193{clip-path:url(#SVGID_203_);}
	.st194{clip-path:url(#SVGID_205_);fill:none;stroke:#E1E1E1;stroke-width:1.2549;stroke-miterlimit:10;}
	.st195{clip-path:url(#SVGID_207_);}
	.st196{clip-path:url(#SVGID_209_);fill:#E1E1E1;}
	.st197{fill:#FC6E4C;}
	.st198{fill:#0A7586;}
	.st199{clip-path:url(#SVGID_211_);}
	.st200{clip-path:url(#SVGID_213_);fill:#E1E1E1;}
	.st201{opacity:0.41;}
	.st202{clip-path:url(#SVGID_215_);}
	.st203{clip-path:url(#SVGID_217_);fill:#B6B6B6;}
	.st204{fill:#FEC305;}
	.st205{fill:none;stroke:#FFFFFF;stroke-width:1.2549;stroke-miterlimit:10;}
	.st206{fill:none;stroke:#FFFFFF;stroke-width:1.2549;stroke-miterlimit:10;stroke-dasharray:2.4898,4.9778;}
	.st207{fill:none;stroke:#FFFFFF;stroke-width:1.2549;stroke-miterlimit:10;stroke-dasharray:2.5134,5.0268;}
	.st208{clip-path:url(#SVGID_219_);fill:#FFFFFF;}
	.st209{clip-path:url(#SVGID_221_);fill:#FFFFFF;}
	.st210{clip-path:url(#SVGID_223_);fill:#FFFFFF;}
	.st211{clip-path:url(#SVGID_225_);fill:#FFFFFF;}
	.st212{clip-path:url(#SVGID_227_);fill:#FFFFFF;}
	.st213{clip-path:url(#SVGID_229_);fill:#FFFFFF;}
	.st214{clip-path:url(#SVGID_231_);fill:#FFFFFF;}
	.st215{fill:#E9B399;}
	.st216{clip-path:url(#SVGID_233_);}
	.st217{clip-path:url(#SVGID_235_);fill:none;stroke:#E1E1E1;stroke-width:1.2549;stroke-miterlimit:10;}
	.st218{fill:#A47449;}
	.st219{fill:none;stroke:#25435A;stroke-width:2.6635;stroke-miterlimit:10;}
	.st220{clip-path:url(#SVGID_237_);}
	.st221{clip-path:url(#SVGID_239_);fill:#FFFFFF;}
	.st222{clip-path:url(#SVGID_241_);}
	.st223{clip-path:url(#SVGID_243_);fill:#FFFFFF;}
	.st224{clip-path:url(#SVGID_245_);}
	.st225{clip-path:url(#SVGID_247_);fill:#FFFFFF;}
	.st226{clip-path:url(#SVGID_249_);}
	.st227{clip-path:url(#SVGID_251_);fill:#FFFFFF;}
	.st228{fill:none;stroke:#0A7586;stroke-width:3.0165;stroke-linecap:round;stroke-miterlimit:10;}
	.st229{fill:none;stroke:#25435A;stroke-width:3.0165;stroke-miterlimit:10;}
	.st230{fill:none;stroke:#0A7586;stroke-width:2.2618;stroke-miterlimit:10;}
	.st231{fill:#FEA000;}
	.st232{opacity:0.4;fill:url(#SVGID_252_);}
</style>
<linearGradient id="SVGID_1_" gradientUnits="userSpaceOnUse" x1="-100.9217" y1="-106.453" x2="500.7704" y2="347.7089">
	<stop  offset="0.309" style="stop-color:#FFEA14"/>
	<stop  offset="0.389" style="stop-color:#FAEB1B"/>
	<stop  offset="0.509" style="stop-color:#EBED30"/>
	<stop  offset="0.6544" style="stop-color:#D2F252"/>
	<stop  offset="0.8196" style="stop-color:#B0F880"/>
	<stop  offset="1" style="stop-color:#85FFBC"/>
</linearGradient>
<path class="st2" d="M344.47,488.74L18.51,275.01c-16.2-10.62-16.2-34.36,0-44.98L344.47,16.3c18.33-12.02,42.04-12.02,60.37,0
	L730.8,230.02c16.2,10.62,16.2,34.36,0,44.98L404.84,488.74C386.51,500.76,362.8,500.76,344.47,488.74z"/>
<g>
	<path d="M434.16,369.57l-0.06-0.04c-6.22-4.54-6.55-11.44,0.19-15.86c4.15-2.72,8.04-3.3,12.32-3.3l0.18,2.86
		c-3.63-0.01-6.93,0.48-9.87,2.4c-4.81,3.15-4.59,8.28,0.24,11.81l0.06,0.04c4.83,3.53,12.29,4,17.1,0.85
		c3.03-1.98,3.85-4.11,4.01-6.89l3.84,0.08c-0.02,3.28-1.1,6.08-5.28,8.82C450.33,374.63,440.48,374.18,434.16,369.57z"/>
	<path d="M460.27,356.41l-0.06-0.04c-4.62-3.38-4.77-8.72,0.35-12.07c5.09-3.33,12.68-2.99,17.33,0.41l0.06,0.04
		c4.62,3.37,4.74,8.7-0.38,12.05C472.45,360.15,464.89,359.78,460.27,356.41z M475.01,346.75l-0.06-0.04
		c-3.33-2.43-8.58-2.75-11.95-0.54c-3.5,2.29-3.15,5.83,0.11,8.21l0.06,0.04c3.29,2.4,8.54,2.73,11.95,0.5
		C478.62,352.63,478.27,349.13,475.01,346.75z"/>
	<path d="M473.99,335.99l2.94-1.92l2.75,2.01c-0.57-1.97-0.3-4.11,2.51-5.95c4.03-2.64,8.97-2.23,12.81,0.57l10.25,7.48l-2.94,1.92
		l-9.46-6.9c-2.9-2.12-6.25-2.35-9-0.55c-2.69,1.76-2.81,4.44,0.12,6.58l9.31,6.79l-2.94,1.92L473.99,335.99z"/>
	<path d="M506.75,334.29l-0.56-2.4c3.17-0.24,5.9-1.02,7.8-2.26c1.91-1.25,2.31-2.77,0.89-3.81l-0.06-0.04
		c-1.54-1.12-4.02-0.3-6.78,0.67c-3.32,1.17-7.13,2.41-10.15,0.2l-0.06-0.04c-2.93-2.14-2.31-5.14,1.04-7.33
		c2.06-1.35,5.1-2.33,7.97-2.66l0.8,2.36c-2.56,0.34-4.94,1.06-6.51,2.09c-1.84,1.21-2.09,2.63-0.85,3.53l0.06,0.04
		c1.45,1.06,4.05,0.15,6.84-0.8c3.35-1.15,7.16-2.26,10.09-0.12l0.06,0.04c3.23,2.36,2.3,5.4-1.14,7.65
		C513.8,332.98,510.26,334.08,506.75,334.29z"/>
	<path d="M519.85,320.14l-10.25-7.48l2.94-1.92l9.46,6.9c2.9,2.12,6.25,2.35,9.03,0.53c2.69-1.76,2.78-4.46-0.12-6.58l-9.31-6.79
		l2.9-1.9l16.35,11.93l-2.9,1.9l-2.75-2.01c0.57,1.97,0.27,4.13-2.54,5.98C528.66,323.33,523.69,322.94,519.85,320.14z"/>
	<path d="M529.74,299.48l2.94-1.92l2.66,1.94c-0.48-1.86-0.43-3.9,2.35-5.72c2.66-1.74,5.76-1.89,8.45-1.18
		c-0.5-2.1-0.08-4.3,2.73-6.14c3.84-2.52,8.63-2.26,12.68,0.69l10.21,7.46l-2.94,1.92l-9.46-6.9c-2.99-2.18-6.19-2.39-8.75-0.72
		c-2.44,1.6-2.65,4.08,0.4,6.31l9.37,6.84l-2.94,1.92l-9.52-6.95c-2.9-2.12-6.12-2.35-8.65-0.69c-2.5,1.64-2.41,4.3,0.43,6.37
		l9.31,6.79l-2.94,1.92L529.74,299.48z"/>
	<path d="M567.77,285.95l-0.06-0.04c-4.71-3.44-5.09-8.47-0.37-11.56c5.12-3.35,11.89-2.35,16.67,1.14c0.3,0.22,0.51,0.42,0.81,0.68
		l-13.09,8.57c3.64,2.14,7.89,1.91,10.7,0.07c2.22-1.45,2.9-3.07,2.92-4.97l3.32-0.04c0.19,2.43-0.73,4.7-3.91,6.79
		C580.07,289.66,572.84,289.66,567.77,285.95z M579.89,276.59c-3.06-1.89-7.1-2.5-10.2-0.48c-2.81,1.84-2.67,4.76-0.02,7.17
		L579.89,276.59z"/>
	<path d="M579.82,266.67l2.94-1.92l4.08,2.98c-1.44-2.7-1-5.58,2.27-7.51l2.99,2.18l-0.19,0.12c-3.62,2.37-3.99,6,0.76,9.46
		l6.44,4.7l-2.94,1.92L579.82,266.67z"/>
	<path d="M605.71,269.47l-0.56-2.4c3.17-0.24,5.9-1.02,7.8-2.26c1.91-1.25,2.31-2.77,0.89-3.81l-0.06-0.04
		c-1.54-1.12-4.02-0.3-6.78,0.67c-3.32,1.17-7.13,2.41-10.15,0.2l-0.06-0.04c-2.93-2.14-2.31-5.14,1.04-7.33
		c2.06-1.35,5.1-2.33,7.97-2.66l0.8,2.36c-2.56,0.34-4.95,1.06-6.51,2.09c-1.84,1.21-2.09,2.63-0.85,3.53l0.06,0.04
		c1.45,1.06,4.05,0.15,6.84-0.8c3.35-1.15,7.16-2.26,10.09-0.12l0.06,0.04c3.23,2.36,2.3,5.4-1.13,7.65
		C612.75,268.16,609.22,269.26,605.71,269.47z"/>
</g>
</svg>
