<?xml version="1.0" encoding="utf-8"?>
<!-- Generator: Adobe Illustrator 23.0.2, SVG Export Plug-In . SVG Version: 6.00 Build 0)  -->
<svg version="1.1" id="Layer_1" xmlns="http://www.w3.org/2000/svg" xmlns:xlink="http://www.w3.org/1999/xlink" x="0px" y="0px"
	 viewBox="0 0 138.11 138.62" style="enable-background:new 0 0 138.11 138.62;" xml:space="preserve">
<style type="text/css">
	.st0{fill:#FFFFFF;}
	.st1{fill:#D8FBE0;}
	.st2{fill:url(#SVGID_1_);}
	.st3{fill:#05283E;}
	.st4{fill:#052741;}
	.st5{fill:url(#SVGID_2_);}
	.st6{fill:none;stroke:#052741;stroke-width:1.9126;stroke-miterlimit:10;}
	.st7{clip-path:url(#SVGID_4_);}
	.st8{clip-path:url(#SVGID_6_);}
	.st9{clip-path:url(#SVGID_8_);fill:#05283F;}
	.st10{opacity:0.27;clip-path:url(#SVGID_8_);fill:url(#);}
	.st11{clip-path:url(#SVGID_6_);fill:url(#SVGID_9_);}
	.st12{clip-path:url(#SVGID_11_);fill:#05283F;}
	.st13{opacity:0.27;clip-path:url(#SVGID_11_);fill:url(#);}
	.st14{fill:none;}
	.st15{clip-path:url(#SVGID_13_);}
	.st16{clip-path:url(#SVGID_15_);}
	.st17{clip-path:url(#SVGID_17_);fill:#05283F;}
	.st18{opacity:0.27;clip-path:url(#SVGID_17_);fill:url(#);}
	.st19{clip-path:url(#SVGID_15_);fill:url(#SVGID_18_);}
	.st20{clip-path:url(#SVGID_20_);}
	.st21{clip-path:url(#SVGID_22_);}
	.st22{clip-path:url(#SVGID_24_);fill:#05283F;}
	.st23{opacity:0.27;clip-path:url(#SVGID_24_);fill:url(#);}
	.st24{clip-path:url(#SVGID_22_);fill:url(#SVGID_25_);}
	.st25{fill:none;stroke:#FFEA14;stroke-width:1.193;stroke-miterlimit:10;}
	.st26{fill-rule:evenodd;clip-rule:evenodd;fill:#FFEA14;}
	.st27{fill:#FFEA14;}
	.st28{opacity:0.5;fill:none;stroke:#FFFFFF;stroke-width:2;stroke-linecap:round;stroke-miterlimit:10;}
	.st29{opacity:0.5;}
	.st30{fill:none;stroke:#FFFFFF;stroke-width:2;stroke-miterlimit:10;}
	.st31{clip-path:url(#SVGID_27_);}
	.st32{fill:none;stroke:#EDEDED;stroke-width:0.9222;stroke-miterlimit:10;}
	.st33{clip-path:url(#SVGID_33_);}
	.st34{clip-path:url(#SVGID_35_);}
	.st35{fill:url(#SVGID_36_);}
	.st36{clip-path:url(#SVGID_38_);}
	.st37{opacity:0.25;}
	.st38{fill:#05283F;}
	.st39{clip-path:url(#SVGID_42_);fill:#05283F;}
	.st40{opacity:0.27;clip-path:url(#SVGID_42_);fill:url(#);}
	.st41{fill:url(#SVGID_43_);}
	.st42{opacity:0.4;fill:url(#SVGID_44_);}
	.st43{opacity:0.4;fill:url(#SVGID_45_);}
	.st44{fill:url(#SVGID_46_);}
	.st45{fill:none;stroke:#FFFFFF;stroke-miterlimit:10;}
	.st46{clip-path:url(#SVGID_48_);fill:url(#SVGID_49_);}
	.st47{fill:#F4FF15;}
	.st48{fill:url(#SVGID_50_);}
	.st49{fill:url(#SVGID_51_);}
	.st50{clip-path:url(#SVGID_53_);fill:#05283F;}
	.st51{opacity:0.27;clip-path:url(#SVGID_53_);fill:url(#);}
	.st52{fill:url(#SVGID_54_);}
	.st53{opacity:0.4;fill:url(#SVGID_55_);}
	.st54{fill:url(#SVGID_56_);}
	.st55{fill:url(#SVGID_57_);}
	.st56{clip-path:url(#SVGID_59_);fill:#05283F;}
	.st57{opacity:0.27;clip-path:url(#SVGID_59_);fill:url(#);}
	.st58{fill:url(#SVGID_60_);}
	.st59{clip-path:url(#SVGID_62_);fill:url(#SVGID_63_);}
	.st60{fill:url(#SVGID_64_);}
	.st61{fill:url(#SVGID_65_);}
	.st62{opacity:0.4;fill:url(#SVGID_66_);}
	.st63{fill:#ACF886;}
	.st64{fill:#D4F14F;}
	.st65{fill:#D8F14A;}
	.st66{fill:url(#SVGID_67_);}
	.st67{opacity:0.4;fill:url(#SVGID_68_);}
	.st68{opacity:0.4;fill:url(#SVGID_69_);}
	.st69{fill:url(#SVGID_70_);}
	.st70{fill:url(#SVGID_71_);}
	.st71{fill:url(#SVGID_72_);}
	.st72{fill:url(#SVGID_73_);}
	.st73{fill:url(#SVGID_74_);}
	.st74{fill:url(#SVGID_75_);}
	.st75{fill:url(#SVGID_76_);}
	.st76{opacity:0.2;}
	.st77{fill:none;stroke:#05283F;stroke-width:1.0013;stroke-miterlimit:10;}
	.st78{fill:none;stroke:#05283F;stroke-width:1.002;stroke-miterlimit:10;}
	.st79{fill:#B2B2B2;}
	.st80{fill-rule:evenodd;clip-rule:evenodd;fill:#B2B2B2;}
	.st81{fill:#A6A6A6;}
	.st82{fill:#FFFFFF;stroke:#FFFFFF;stroke-width:0.2114;stroke-miterlimit:10;}
	.st83{fill:url(#path64_1_);}
	.st84{fill:url(#path78_1_);}
	.st85{fill:url(#path88_1_);}
	.st86{fill:url(#path104_1_);}
	.st87{clip-path:url(#SVGID_78_);fill:#E9B399;}
	.st88{clip-path:url(#SVGID_78_);fill:#0A7586;}
	.st89{clip-path:url(#SVGID_78_);fill:#A47449;}
	.st90{clip-path:url(#SVGID_78_);fill:#25435A;}
	.st91{clip-path:url(#SVGID_78_);fill:#7F5737;}
	.st92{clip-path:url(#SVGID_78_);fill:#FFFFFF;}
	.st93{clip-path:url(#SVGID_78_);fill:#FC6E4C;}
	.st94{clip-path:url(#SVGID_78_);fill:#C2907A;}
	.st95{filter:url(#Adobe_OpacityMaskFilter);}
	.st96{clip-path:url(#SVGID_80_);fill:url(#SVGID_82_);}
	.st97{clip-path:url(#SVGID_80_);mask:url(#SVGID_81_);fill:url(#SVGID_83_);}
	.st98{filter:url(#Adobe_OpacityMaskFilter_1_);}
	.st99{clip-path:url(#SVGID_85_);fill:url(#SVGID_87_);}
	.st100{clip-path:url(#SVGID_85_);mask:url(#SVGID_86_);fill:url(#SVGID_88_);}
	.st101{clip-path:url(#SVGID_85_);fill:#E9B399;}
	.st102{clip-path:url(#SVGID_85_);fill:#25435A;}
	.st103{clip-path:url(#SVGID_85_);fill:#ECED2E;}
	.st104{filter:url(#Adobe_OpacityMaskFilter_2_);}
	.st105{clip-path:url(#SVGID_90_);fill:url(#SVGID_92_);}
	.st106{clip-path:url(#SVGID_90_);mask:url(#SVGID_91_);fill:url(#SVGID_93_);}
	.st107{fill:#E1E1E1;}
	.st108{clip-path:url(#SVGID_95_);fill:#A47449;}
	.st109{clip-path:url(#SVGID_95_);fill:#FEC305;}
	.st110{clip-path:url(#SVGID_95_);fill:#25435A;}
	.st111{clip-path:url(#SVGID_95_);fill:#0A7586;}
	.st112{clip-path:url(#SVGID_95_);fill:#E9B399;}
	.st113{clip-path:url(#SVGID_95_);}
	.st114{clip-path:url(#SVGID_97_);}
	.st115{clip-path:url(#SVGID_99_);fill:#CECECE;}
	.st116{opacity:0.25;clip-path:url(#SVGID_95_);}
	.st117{clip-path:url(#SVGID_101_);}
	.st118{clip-path:url(#SVGID_103_);fill:#FFFFFF;}
	.st119{clip-path:url(#SVGID_105_);}
	.st120{clip-path:url(#SVGID_107_);fill:#FFFFFF;}
	.st121{clip-path:url(#SVGID_109_);}
	.st122{clip-path:url(#SVGID_111_);fill:#FFFFFF;}
	.st123{clip-path:url(#SVGID_113_);}
	.st124{clip-path:url(#SVGID_115_);fill:#FFFFFF;}
	.st125{clip-path:url(#SVGID_117_);}
	.st126{clip-path:url(#SVGID_119_);fill:#FFFFFF;}
	.st127{clip-path:url(#SVGID_95_);fill:#FC6E4C;}
	.st128{clip-path:url(#SVGID_95_);fill:none;stroke:#FFFFFF;stroke-width:1.4756;stroke-miterlimit:10;}
	.st129{clip-path:url(#SVGID_95_);fill:#FFFFFF;}
	.st130{clip-path:url(#SVGID_95_);fill:none;stroke:#FFFFFF;stroke-width:1.3567;stroke-linecap:round;stroke-miterlimit:10;}
	.st131{clip-path:url(#SVGID_95_);fill:#C2907A;}
	.st132{clip-path:url(#SVGID_95_);fill:#052741;}
	.st133{clip-path:url(#SVGID_95_);fill:none;stroke:#25435A;stroke-width:1.7229;stroke-miterlimit:10;}
	.st134{clip-path:url(#SVGID_95_);fill:none;stroke:#25435A;stroke-width:1.4185;stroke-miterlimit:10;}
	.st135{clip-path:url(#SVGID_95_);fill:none;stroke:#FFFFFF;stroke-width:1.8017;stroke-linecap:round;stroke-miterlimit:10;}
	.st136{opacity:0.4;clip-path:url(#SVGID_95_);}
	.st137{clip-path:url(#SVGID_121_);}
	.st138{clip-path:url(#SVGID_123_);fill:#FFFFFF;}
	.st139{clip-path:url(#SVGID_125_);}
	.st140{clip-path:url(#SVGID_127_);fill:none;stroke:#FFFFFF;stroke-width:1.4756;stroke-miterlimit:10;}
	.st141{clip-path:url(#SVGID_129_);}
	.st142{clip-path:url(#SVGID_131_);fill:none;stroke:#FFFFFF;stroke-width:1.4756;stroke-miterlimit:10;}
	.st143{filter:url(#Adobe_OpacityMaskFilter_3_);}
	.st144{clip-path:url(#SVGID_133_);fill:url(#SVGID_135_);}
	.st145{clip-path:url(#SVGID_133_);mask:url(#SVGID_134_);fill:url(#SVGID_136_);}
	.st146{clip-path:url(#SVGID_138_);fill:#25435A;}
	.st147{clip-path:url(#SVGID_138_);fill:#FFFFFF;}
	.st148{clip-path:url(#SVGID_138_);fill:#E9B399;}
	.st149{opacity:0.4;clip-path:url(#SVGID_138_);}
	.st150{clip-path:url(#SVGID_140_);}
	.st151{clip-path:url(#SVGID_142_);fill:none;stroke:#FFFFFF;stroke-width:2.9513;stroke-miterlimit:10;}
	.st152{opacity:0.9;clip-path:url(#SVGID_138_);}
	.st153{clip-path:url(#SVGID_144_);}
	.st154{clip-path:url(#SVGID_146_);fill:none;stroke:#FFFFFF;stroke-width:2.9513;stroke-miterlimit:10;}
	.st155{opacity:0.7;clip-path:url(#SVGID_138_);}
	.st156{clip-path:url(#SVGID_148_);}
	.st157{clip-path:url(#SVGID_150_);fill:none;stroke:#FFFFFF;stroke-width:2.9513;stroke-miterlimit:10;}
	.st158{clip-path:url(#SVGID_138_);fill:#FEC305;}
	.st159{opacity:0.2;clip-path:url(#SVGID_138_);}
	.st160{clip-path:url(#SVGID_152_);}
	.st161{clip-path:url(#SVGID_154_);fill:#25435A;}
	.st162{clip-path:url(#SVGID_138_);fill:#A47449;}
	.st163{clip-path:url(#SVGID_138_);}
	.st164{clip-path:url(#SVGID_156_);}
	.st165{clip-path:url(#SVGID_158_);fill:#CECECE;}
	.st166{clip-path:url(#SVGID_138_);fill:#FC6E4C;}
	.st167{clip-path:url(#SVGID_138_);fill:#0A7586;}
	.st168{clip-path:url(#SVGID_160_);}
	.st169{clip-path:url(#SVGID_162_);fill:#E1E1E1;}
	.st170{clip-path:url(#SVGID_138_);fill:#E1E1E1;}
	.st171{opacity:0.5;clip-path:url(#SVGID_138_);}
	.st172{clip-path:url(#SVGID_164_);}
	.st173{clip-path:url(#SVGID_166_);fill:#FFFFFF;}
	.st174{clip-path:url(#SVGID_168_);}
	.st175{clip-path:url(#SVGID_170_);fill:#FFFFFF;}
	.st176{clip-path:url(#SVGID_172_);}
	.st177{clip-path:url(#SVGID_174_);fill:#FFFFFF;}
	.st178{clip-path:url(#SVGID_176_);}
	.st179{clip-path:url(#SVGID_178_);fill:#FFFFFF;}
	.st180{clip-path:url(#SVGID_180_);}
	.st181{clip-path:url(#SVGID_182_);fill:#FFFFFF;}
	.st182{clip-path:url(#SVGID_184_);}
	.st183{clip-path:url(#SVGID_186_);fill:#FFFFFF;}
	.st184{clip-path:url(#SVGID_188_);}
	.st185{clip-path:url(#SVGID_190_);fill:#FFFFFF;}
	.st186{clip-path:url(#SVGID_192_);}
	.st187{clip-path:url(#SVGID_194_);fill:#FFFFFF;}
	.st188{clip-path:url(#SVGID_196_);}
	.st189{clip-path:url(#SVGID_198_);fill:#FFFFFF;}
	.st190{clip-path:url(#SVGID_200_);}
	.st191{clip-path:url(#SVGID_202_);fill:#FFFFFF;}
	.st192{fill:#B6B6B6;}
	.st193{fill:#25435A;}
	.st194{fill:none;stroke:#B6B6B6;stroke-width:7.5293;stroke-linecap:round;stroke-miterlimit:10;}
	.st195{clip-path:url(#SVGID_204_);}
	.st196{clip-path:url(#SVGID_206_);fill:none;stroke:#E1E1E1;stroke-width:1.2549;stroke-miterlimit:10;}
	.st197{clip-path:url(#SVGID_208_);}
	.st198{clip-path:url(#SVGID_210_);fill:#E1E1E1;}
	.st199{fill:#FC6E4C;}
	.st200{fill:#0A7586;}
	.st201{clip-path:url(#SVGID_212_);}
	.st202{clip-path:url(#SVGID_214_);fill:#E1E1E1;}
	.st203{opacity:0.41;}
	.st204{clip-path:url(#SVGID_216_);}
	.st205{clip-path:url(#SVGID_218_);fill:#B6B6B6;}
	.st206{fill:#FEC305;}
	.st207{fill:none;stroke:#FFFFFF;stroke-width:1.2549;stroke-miterlimit:10;}
	.st208{fill:none;stroke:#FFFFFF;stroke-width:1.2549;stroke-miterlimit:10;stroke-dasharray:2.4898,4.9778;}
	.st209{fill:none;stroke:#FFFFFF;stroke-width:1.2549;stroke-miterlimit:10;stroke-dasharray:2.5134,5.0268;}
	.st210{clip-path:url(#SVGID_220_);fill:#FFFFFF;}
	.st211{clip-path:url(#SVGID_222_);fill:#FFFFFF;}
	.st212{clip-path:url(#SVGID_224_);fill:#FFFFFF;}
	.st213{clip-path:url(#SVGID_226_);fill:#FFFFFF;}
	.st214{clip-path:url(#SVGID_228_);fill:#FFFFFF;}
	.st215{clip-path:url(#SVGID_230_);fill:#FFFFFF;}
	.st216{clip-path:url(#SVGID_232_);fill:#FFFFFF;}
	.st217{fill:#E9B399;}
	.st218{clip-path:url(#SVGID_234_);}
	.st219{clip-path:url(#SVGID_236_);fill:none;stroke:#E1E1E1;stroke-width:1.2549;stroke-miterlimit:10;}
	.st220{fill:#A47449;}
	.st221{fill:none;stroke:#25435A;stroke-width:2.6635;stroke-miterlimit:10;}
	.st222{clip-path:url(#SVGID_238_);}
	.st223{clip-path:url(#SVGID_240_);fill:#FFFFFF;}
	.st224{clip-path:url(#SVGID_242_);}
	.st225{clip-path:url(#SVGID_244_);fill:#FFFFFF;}
	.st226{clip-path:url(#SVGID_246_);}
	.st227{clip-path:url(#SVGID_248_);fill:#FFFFFF;}
	.st228{clip-path:url(#SVGID_250_);}
	.st229{clip-path:url(#SVGID_252_);fill:#FFFFFF;}
	.st230{fill:none;stroke:#0A7586;stroke-width:3.0165;stroke-linecap:round;stroke-miterlimit:10;}
	.st231{fill:none;stroke:#25435A;stroke-width:3.0165;stroke-miterlimit:10;}
	.st232{fill:none;stroke:#0A7586;stroke-width:2.2618;stroke-miterlimit:10;}
	.st233{fill:#FEA000;}
	.st234{fill:url(#SVGID_253_);}
</style>
<g>
	
		<linearGradient id="SVGID_1_" gradientUnits="userSpaceOnUse" x1="1051.4762" y1="-3426.6919" x2="1052.8389" y2="-3426.6919" gradientTransform="matrix(76.3994 61.9133 61.9133 -76.3994 131842.6562 -326870.4375)">
		<stop  offset="0" style="stop-color:#FFEA14"/>
		<stop  offset="0.309" style="stop-color:#FFEA14"/>
		<stop  offset="0.389" style="stop-color:#FAEB1B"/>
		<stop  offset="0.5089" style="stop-color:#EBED30"/>
		<stop  offset="0.6539" style="stop-color:#D2F251"/>
		<stop  offset="0.8185" style="stop-color:#B1F880"/>
		<stop  offset="0.9975" style="stop-color:#86FFBB"/>
		<stop  offset="1" style="stop-color:#85FFBC"/>
	</linearGradient>
	<path class="st2" d="M134.92,69.31h0.68c0,36.75-29.79,66.55-66.55,66.55c-36.75,0-66.55-29.79-66.55-66.55
		c0-36.75,29.79-66.55,66.55-66.55c36.75,0,66.55,29.79,66.55,66.55H134.92h-0.68c-0.07-36-29.18-65.12-65.18-65.18
		c-36,0.07-65.12,29.18-65.18,65.18c0.07,36,29.18,65.12,65.18,65.18c36-0.07,65.12-29.18,65.18-65.18H134.92z"/>
	<g>
		<path class="st63" d="M77.26,99.54H60.82c-1.46,0-2.65,1.19-2.65,2.65s1.19,2.65,2.65,2.65h16.35c1.56-0.07,2.73-1.21,2.73-2.65
			C79.91,100.72,78.72,99.54,77.26,99.54z M77.26,103.16H60.82c-0.52,0-1.06-0.39-1.06-1.06c0-0.62,0.43-1.06,1.06-1.06h16.36
			c0.52,0,1.06,0.39,1.06,1.06C78.24,102.72,77.83,103.16,77.26,103.16z"/>
		<path class="st63" d="M74.82,107.02H63.27c-1.46,0-2.65,1.19-2.65,2.65c0,1.46,1.19,2.65,2.65,2.65h11.55
			c1.46,0,2.65-1.19,2.65-2.65C77.47,108.18,76.3,107.02,74.82,107.02z M74.82,110.64H63.27c-0.52,0-1.06-0.39-1.06-1.06
			c0-0.62,0.43-1.06,1.06-1.06h11.55c0.52,0,1.06,0.39,1.06,1.06C75.87,110.25,75.34,110.64,74.82,110.64z"/>
		<path class="st64" d="M69.12,45.15c-12.23,0-22.17,9.95-22.17,22.17c0,6.39,2.73,12.47,7.5,16.67c3.07,3.07,3.3,8.84,3.3,10.53
			c0,0.56-0.02,0.83-0.04,0.97c0,0.36,0.09,0.58,0.32,0.8c0.18,0.18,0.5,0.32,0.76,0.32h20.62c0.29,0,0.55-0.11,0.76-0.32
			c0.19-0.19,0.32-0.52,0.32-0.84c-0.02-0.53-0.06-2.39,0.28-4.56c0.48-3.08,1.48-5.4,2.97-6.89l0.24-0.24
			c4.67-4.27,7.35-10.26,7.35-16.44C91.3,55.09,81.35,45.15,69.12,45.15z M82.27,82.34c-0.07,0.07-0.12,0.13-0.15,0.16v0.06
			l-0.08,0.09c-1.3,1.4-3.52,4.75-3.72,11.44l-0.01,0.29H59.86l-0.01-0.29c-0.21-6.91-2.56-10.33-3.95-11.75
			c-4.38-3.8-6.89-9.3-6.89-15.1c0-11.04,8.99-20.03,20.03-20.03s20.03,8.99,20.03,20.03C89.07,73.07,86.59,78.58,82.27,82.34z"/>
		<path class="st64" d="M69.04,50.89c-0.56,0-1.07,0.51-1.07,1.07c0,0.56,0.51,1.07,1.07,1.07c8.28,0,15.02,6.74,15.02,15.02
			c0,0.56,0.51,1.07,1.07,1.07s1.07-0.51,1.07-1.07c0.04-4.55-1.71-8.83-4.92-12.07C78.03,52.69,73.68,50.89,69.04,50.89z"/>
		<path class="st65" d="M69.04,37.83c0.67,0,1.07-0.54,1.07-1.07v-9.38c0-0.56-0.51-1.07-1.07-1.07s-1.07,0.51-1.07,1.07v9.38
			C67.97,37.32,68.48,37.83,69.04,37.83z"/>
		<path class="st65" d="M91.76,33.22l-0.02-0.01c-0.18-0.13-0.37-0.2-0.58-0.2c-0.05,0-0.1,0-0.15,0.01
			c-0.28,0.04-0.54,0.21-0.71,0.45l-5.17,7.75c-0.2,0.26-0.27,0.56-0.21,0.86c0.05,0.28,0.21,0.51,0.45,0.66
			c0.2,0.13,0.38,0.2,0.57,0.2c0.37,0,0.68-0.18,0.87-0.5l5.2-7.8c0.17-0.2,0.24-0.45,0.2-0.72C92.17,33.62,92.01,33.37,91.76,33.22
			z"/>
		<path class="st65" d="M52.63,42.6c0.18,0,0.37-0.06,0.56-0.19c0.5-0.31,0.64-1.01,0.32-1.53l-5.01-7.84
			c-0.15-0.24-0.39-0.4-0.68-0.46c-0.07-0.01-0.15-0.02-0.23-0.02c-0.22,0-0.43,0.06-0.61,0.17c-0.24,0.15-0.4,0.39-0.46,0.68
			c-0.06,0.29,0,0.59,0.15,0.84l5.01,7.84C51.91,42.45,52.2,42.6,52.63,42.6z"/>
		<path class="st65" d="M42.71,51.74L42.71,51.74l-8.17-4.45c-0.23-0.12-0.54-0.14-0.82-0.06c-0.28,0.08-0.51,0.26-0.62,0.49
			l-0.01,0.03c-0.15,0.24-0.19,0.54-0.1,0.82c0.08,0.27,0.27,0.49,0.54,0.61l0.02,0.01l8.14,4.43c0.04,0.01,0.08,0.03,0.12,0.04
			c0.16,0.06,0.26,0.09,0.4,0.09c0.41,0,0.77-0.21,0.94-0.56c0.12-0.24,0.14-0.55,0.06-0.83C43.12,52.09,42.94,51.86,42.71,51.74z"
			/>
		<path class="st65" d="M104.11,47.18c-0.17,0-0.34,0.04-0.49,0.11l-8.24,4.44c-0.24,0.12-0.42,0.35-0.5,0.63
			c-0.08,0.28-0.06,0.59,0.06,0.83c0.18,0.35,0.53,0.56,0.94,0.56c0.23,0,0.45-0.1,0.51-0.13l8.24-4.44
			c0.24-0.12,0.42-0.35,0.5-0.63c0.08-0.28,0.06-0.59-0.06-0.83C104.9,47.39,104.51,47.18,104.11,47.18z"/>
	</g>
</g>
</svg>
