<?xml version="1.0" encoding="utf-8"?>
<!-- Generator: Adobe Illustrator 23.0.2, SVG Export Plug-In . SVG Version: 6.00 Build 0)  -->
<svg version="1.1" id="Layer_1" xmlns="http://www.w3.org/2000/svg" xmlns:xlink="http://www.w3.org/1999/xlink" x="0px" y="0px"
	 viewBox="0 0 138.11 138.62" style="enable-background:new 0 0 138.11 138.62;" xml:space="preserve">
<style type="text/css">
	.st0{fill:#FFFFFF;}
	.st1{fill:#D8FBE0;}
	.st2{fill:url(#SVGID_1_);}
	.st3{fill:#05283E;}
	.st4{fill:#052741;}
	.st5{fill:url(#SVGID_2_);}
	.st6{fill:none;stroke:#052741;stroke-width:1.9126;stroke-miterlimit:10;}
	.st7{clip-path:url(#SVGID_4_);}
	.st8{clip-path:url(#SVGID_6_);}
	.st9{clip-path:url(#SVGID_8_);fill:#05283F;}
	.st10{opacity:0.27;clip-path:url(#SVGID_8_);fill:url(#);}
	.st11{clip-path:url(#SVGID_6_);fill:url(#SVGID_9_);}
	.st12{clip-path:url(#SVGID_11_);fill:#05283F;}
	.st13{opacity:0.27;clip-path:url(#SVGID_11_);fill:url(#);}
	.st14{fill:none;}
	.st15{clip-path:url(#SVGID_13_);}
	.st16{clip-path:url(#SVGID_15_);}
	.st17{clip-path:url(#SVGID_17_);fill:#05283F;}
	.st18{opacity:0.27;clip-path:url(#SVGID_17_);fill:url(#);}
	.st19{clip-path:url(#SVGID_15_);fill:url(#SVGID_18_);}
	.st20{clip-path:url(#SVGID_20_);}
	.st21{clip-path:url(#SVGID_22_);}
	.st22{clip-path:url(#SVGID_24_);fill:#05283F;}
	.st23{opacity:0.27;clip-path:url(#SVGID_24_);fill:url(#);}
	.st24{clip-path:url(#SVGID_22_);fill:url(#SVGID_25_);}
	.st25{fill:none;stroke:#FFEA14;stroke-width:1.193;stroke-miterlimit:10;}
	.st26{fill-rule:evenodd;clip-rule:evenodd;fill:#FFEA14;}
	.st27{fill:#FFEA14;}
	.st28{opacity:0.5;fill:none;stroke:#FFFFFF;stroke-width:2;stroke-linecap:round;stroke-miterlimit:10;}
	.st29{opacity:0.5;}
	.st30{fill:none;stroke:#FFFFFF;stroke-width:2;stroke-miterlimit:10;}
	.st31{clip-path:url(#SVGID_27_);}
	.st32{fill:none;stroke:#EDEDED;stroke-width:0.9222;stroke-miterlimit:10;}
	.st33{clip-path:url(#SVGID_33_);}
	.st34{clip-path:url(#SVGID_35_);}
	.st35{fill:url(#SVGID_36_);}
	.st36{clip-path:url(#SVGID_38_);}
	.st37{opacity:0.25;}
	.st38{fill:#05283F;}
	.st39{clip-path:url(#SVGID_42_);fill:#05283F;}
	.st40{opacity:0.27;clip-path:url(#SVGID_42_);fill:url(#);}
	.st41{fill:url(#SVGID_43_);}
	.st42{opacity:0.4;fill:url(#SVGID_44_);}
	.st43{opacity:0.4;fill:url(#SVGID_45_);}
	.st44{fill:url(#SVGID_46_);}
	.st45{fill:none;stroke:#FFFFFF;stroke-miterlimit:10;}
	.st46{clip-path:url(#SVGID_48_);fill:url(#SVGID_49_);}
	.st47{fill:#F4FF15;}
	.st48{fill:url(#SVGID_50_);}
	.st49{fill:url(#SVGID_51_);}
	.st50{clip-path:url(#SVGID_53_);fill:url(#SVGID_54_);}
	.st51{fill:url(#SVGID_55_);}
	.st52{fill:url(#SVGID_56_);}
	.st53{clip-path:url(#SVGID_58_);fill:#05283F;}
	.st54{opacity:0.27;clip-path:url(#SVGID_58_);fill:url(#);}
	.st55{fill:url(#SVGID_59_);}
	.st56{opacity:0.4;fill:url(#SVGID_60_);}
	.st57{fill:url(#SVGID_61_);}
	.st58{fill:url(#SVGID_62_);}
	.st59{clip-path:url(#SVGID_64_);fill:#05283F;}
	.st60{opacity:0.27;clip-path:url(#SVGID_64_);fill:url(#);}
	.st61{fill:url(#SVGID_65_);}
	.st62{clip-path:url(#SVGID_67_);fill:url(#SVGID_68_);}
	.st63{fill:url(#SVGID_69_);}
	.st64{fill:url(#SVGID_70_);}
	.st65{opacity:0.4;fill:url(#SVGID_71_);}
	.st66{fill:#ACF886;}
	.st67{fill:#D4F14F;}
	.st68{fill:#D8F14A;}
	.st69{fill:url(#SVGID_72_);}
	.st70{opacity:0.4;fill:url(#SVGID_73_);}
	.st71{opacity:0.4;fill:url(#SVGID_74_);}
	.st72{fill:url(#SVGID_75_);}
	.st73{fill:url(#SVGID_76_);}
	.st74{fill:url(#SVGID_77_);}
	.st75{fill:url(#SVGID_78_);}
	.st76{fill:url(#SVGID_79_);}
	.st77{fill:url(#SVGID_80_);}
	.st78{fill:url(#SVGID_81_);}
	.st79{opacity:0.2;}
	.st80{fill:none;stroke:#05283F;stroke-width:1.0013;stroke-miterlimit:10;}
	.st81{fill:none;stroke:#05283F;stroke-width:1.002;stroke-miterlimit:10;}
	.st82{fill:#B2B2B2;}
	.st83{fill-rule:evenodd;clip-rule:evenodd;fill:#B2B2B2;}
	.st84{fill:#A6A6A6;}
	.st85{fill:#FFFFFF;stroke:#FFFFFF;stroke-width:0.2114;stroke-miterlimit:10;}
	.st86{fill:url(#path64_1_);}
	.st87{fill:url(#path78_1_);}
	.st88{fill:url(#path88_1_);}
	.st89{fill:url(#path104_1_);}
	.st90{clip-path:url(#SVGID_83_);fill:#E9B399;}
	.st91{clip-path:url(#SVGID_83_);fill:#0A7586;}
	.st92{clip-path:url(#SVGID_83_);fill:#A47449;}
	.st93{clip-path:url(#SVGID_83_);fill:#25435A;}
	.st94{clip-path:url(#SVGID_83_);fill:#7F5737;}
	.st95{clip-path:url(#SVGID_83_);fill:#FFFFFF;}
	.st96{clip-path:url(#SVGID_83_);fill:#FC6E4C;}
	.st97{clip-path:url(#SVGID_83_);fill:#C2907A;}
	.st98{filter:url(#Adobe_OpacityMaskFilter);}
	.st99{clip-path:url(#SVGID_85_);fill:url(#SVGID_87_);}
	.st100{clip-path:url(#SVGID_85_);mask:url(#SVGID_86_);fill:url(#SVGID_88_);}
	.st101{filter:url(#Adobe_OpacityMaskFilter_1_);}
	.st102{clip-path:url(#SVGID_90_);fill:url(#SVGID_92_);}
	.st103{clip-path:url(#SVGID_90_);mask:url(#SVGID_91_);fill:url(#SVGID_93_);}
	.st104{clip-path:url(#SVGID_90_);fill:#E9B399;}
	.st105{clip-path:url(#SVGID_90_);fill:#25435A;}
	.st106{clip-path:url(#SVGID_90_);fill:#ECED2E;}
	.st107{filter:url(#Adobe_OpacityMaskFilter_2_);}
	.st108{clip-path:url(#SVGID_95_);fill:url(#SVGID_97_);}
	.st109{clip-path:url(#SVGID_95_);mask:url(#SVGID_96_);fill:url(#SVGID_98_);}
	.st110{fill:#E1E1E1;}
	.st111{clip-path:url(#SVGID_100_);fill:#A47449;}
	.st112{clip-path:url(#SVGID_100_);fill:#FEC305;}
	.st113{clip-path:url(#SVGID_100_);fill:#25435A;}
	.st114{clip-path:url(#SVGID_100_);fill:#0A7586;}
	.st115{clip-path:url(#SVGID_100_);fill:#E9B399;}
	.st116{clip-path:url(#SVGID_100_);}
	.st117{clip-path:url(#SVGID_102_);}
	.st118{clip-path:url(#SVGID_104_);fill:#CECECE;}
	.st119{opacity:0.25;clip-path:url(#SVGID_100_);}
	.st120{clip-path:url(#SVGID_106_);}
	.st121{clip-path:url(#SVGID_108_);fill:#FFFFFF;}
	.st122{clip-path:url(#SVGID_110_);}
	.st123{clip-path:url(#SVGID_112_);fill:#FFFFFF;}
	.st124{clip-path:url(#SVGID_114_);}
	.st125{clip-path:url(#SVGID_116_);fill:#FFFFFF;}
	.st126{clip-path:url(#SVGID_118_);}
	.st127{clip-path:url(#SVGID_120_);fill:#FFFFFF;}
	.st128{clip-path:url(#SVGID_122_);}
	.st129{clip-path:url(#SVGID_124_);fill:#FFFFFF;}
	.st130{clip-path:url(#SVGID_100_);fill:#FC6E4C;}
	.st131{clip-path:url(#SVGID_100_);fill:none;stroke:#FFFFFF;stroke-width:1.4756;stroke-miterlimit:10;}
	.st132{clip-path:url(#SVGID_100_);fill:#FFFFFF;}
	.st133{clip-path:url(#SVGID_100_);fill:none;stroke:#FFFFFF;stroke-width:1.3567;stroke-linecap:round;stroke-miterlimit:10;}
	.st134{clip-path:url(#SVGID_100_);fill:#C2907A;}
	.st135{clip-path:url(#SVGID_100_);fill:#052741;}
	.st136{clip-path:url(#SVGID_100_);fill:none;stroke:#25435A;stroke-width:1.7229;stroke-miterlimit:10;}
	.st137{clip-path:url(#SVGID_100_);fill:none;stroke:#25435A;stroke-width:1.4185;stroke-miterlimit:10;}
	.st138{clip-path:url(#SVGID_100_);fill:none;stroke:#FFFFFF;stroke-width:1.8017;stroke-linecap:round;stroke-miterlimit:10;}
	.st139{opacity:0.4;clip-path:url(#SVGID_100_);}
	.st140{clip-path:url(#SVGID_126_);}
	.st141{clip-path:url(#SVGID_128_);fill:#FFFFFF;}
	.st142{clip-path:url(#SVGID_130_);}
	.st143{clip-path:url(#SVGID_132_);fill:none;stroke:#FFFFFF;stroke-width:1.4756;stroke-miterlimit:10;}
	.st144{clip-path:url(#SVGID_134_);}
	.st145{clip-path:url(#SVGID_136_);fill:none;stroke:#FFFFFF;stroke-width:1.4756;stroke-miterlimit:10;}
	.st146{filter:url(#Adobe_OpacityMaskFilter_3_);}
	.st147{clip-path:url(#SVGID_138_);fill:url(#SVGID_140_);}
	.st148{clip-path:url(#SVGID_138_);mask:url(#SVGID_139_);fill:url(#SVGID_141_);}
	.st149{clip-path:url(#SVGID_143_);fill:#25435A;}
	.st150{clip-path:url(#SVGID_143_);fill:#FFFFFF;}
	.st151{clip-path:url(#SVGID_143_);fill:#E9B399;}
	.st152{opacity:0.4;clip-path:url(#SVGID_143_);}
	.st153{clip-path:url(#SVGID_145_);}
	.st154{clip-path:url(#SVGID_147_);fill:none;stroke:#FFFFFF;stroke-width:2.9513;stroke-miterlimit:10;}
	.st155{opacity:0.9;clip-path:url(#SVGID_143_);}
	.st156{clip-path:url(#SVGID_149_);}
	.st157{clip-path:url(#SVGID_151_);fill:none;stroke:#FFFFFF;stroke-width:2.9513;stroke-miterlimit:10;}
	.st158{opacity:0.7;clip-path:url(#SVGID_143_);}
	.st159{clip-path:url(#SVGID_153_);}
	.st160{clip-path:url(#SVGID_155_);fill:none;stroke:#FFFFFF;stroke-width:2.9513;stroke-miterlimit:10;}
	.st161{clip-path:url(#SVGID_143_);fill:#FEC305;}
	.st162{opacity:0.2;clip-path:url(#SVGID_143_);}
	.st163{clip-path:url(#SVGID_157_);}
	.st164{clip-path:url(#SVGID_159_);fill:#25435A;}
	.st165{clip-path:url(#SVGID_143_);fill:#A47449;}
	.st166{clip-path:url(#SVGID_143_);}
	.st167{clip-path:url(#SVGID_161_);}
	.st168{clip-path:url(#SVGID_163_);fill:#CECECE;}
	.st169{clip-path:url(#SVGID_143_);fill:#FC6E4C;}
	.st170{clip-path:url(#SVGID_143_);fill:#0A7586;}
	.st171{clip-path:url(#SVGID_165_);}
	.st172{clip-path:url(#SVGID_167_);fill:#E1E1E1;}
	.st173{clip-path:url(#SVGID_143_);fill:#E1E1E1;}
	.st174{opacity:0.5;clip-path:url(#SVGID_143_);}
	.st175{clip-path:url(#SVGID_169_);}
	.st176{clip-path:url(#SVGID_171_);fill:#FFFFFF;}
	.st177{clip-path:url(#SVGID_173_);}
	.st178{clip-path:url(#SVGID_175_);fill:#FFFFFF;}
	.st179{clip-path:url(#SVGID_177_);}
	.st180{clip-path:url(#SVGID_179_);fill:#FFFFFF;}
	.st181{clip-path:url(#SVGID_181_);}
	.st182{clip-path:url(#SVGID_183_);fill:#FFFFFF;}
	.st183{clip-path:url(#SVGID_185_);}
	.st184{clip-path:url(#SVGID_187_);fill:#FFFFFF;}
	.st185{clip-path:url(#SVGID_189_);}
	.st186{clip-path:url(#SVGID_191_);fill:#FFFFFF;}
	.st187{clip-path:url(#SVGID_193_);}
	.st188{clip-path:url(#SVGID_195_);fill:#FFFFFF;}
	.st189{clip-path:url(#SVGID_197_);}
	.st190{clip-path:url(#SVGID_199_);fill:#FFFFFF;}
	.st191{clip-path:url(#SVGID_201_);}
	.st192{clip-path:url(#SVGID_203_);fill:#FFFFFF;}
	.st193{clip-path:url(#SVGID_205_);}
	.st194{clip-path:url(#SVGID_207_);fill:#FFFFFF;}
	.st195{fill:#B6B6B6;}
	.st196{fill:#25435A;}
	.st197{fill:none;stroke:#B6B6B6;stroke-width:7.5293;stroke-linecap:round;stroke-miterlimit:10;}
	.st198{clip-path:url(#SVGID_209_);}
	.st199{clip-path:url(#SVGID_211_);fill:none;stroke:#E1E1E1;stroke-width:1.2549;stroke-miterlimit:10;}
	.st200{clip-path:url(#SVGID_213_);}
	.st201{clip-path:url(#SVGID_215_);fill:#E1E1E1;}
	.st202{fill:#FC6E4C;}
	.st203{fill:#0A7586;}
	.st204{clip-path:url(#SVGID_217_);}
	.st205{clip-path:url(#SVGID_219_);fill:#E1E1E1;}
	.st206{opacity:0.41;}
	.st207{clip-path:url(#SVGID_221_);}
	.st208{clip-path:url(#SVGID_223_);fill:#B6B6B6;}
	.st209{fill:#FEC305;}
	.st210{fill:none;stroke:#FFFFFF;stroke-width:1.2549;stroke-miterlimit:10;}
	.st211{fill:none;stroke:#FFFFFF;stroke-width:1.2549;stroke-miterlimit:10;stroke-dasharray:2.4898,4.9778;}
	.st212{fill:none;stroke:#FFFFFF;stroke-width:1.2549;stroke-miterlimit:10;stroke-dasharray:2.5134,5.0268;}
	.st213{clip-path:url(#SVGID_225_);fill:#FFFFFF;}
	.st214{clip-path:url(#SVGID_227_);fill:#FFFFFF;}
	.st215{clip-path:url(#SVGID_229_);fill:#FFFFFF;}
	.st216{clip-path:url(#SVGID_231_);fill:#FFFFFF;}
	.st217{clip-path:url(#SVGID_233_);fill:#FFFFFF;}
	.st218{clip-path:url(#SVGID_235_);fill:#FFFFFF;}
	.st219{clip-path:url(#SVGID_237_);fill:#FFFFFF;}
	.st220{fill:#E9B399;}
	.st221{clip-path:url(#SVGID_239_);}
	.st222{clip-path:url(#SVGID_241_);fill:none;stroke:#E1E1E1;stroke-width:1.2549;stroke-miterlimit:10;}
	.st223{fill:#A47449;}
	.st224{fill:none;stroke:#25435A;stroke-width:2.6635;stroke-miterlimit:10;}
	.st225{clip-path:url(#SVGID_243_);}
	.st226{clip-path:url(#SVGID_245_);fill:#FFFFFF;}
	.st227{clip-path:url(#SVGID_247_);}
	.st228{clip-path:url(#SVGID_249_);fill:#FFFFFF;}
	.st229{clip-path:url(#SVGID_251_);}
	.st230{clip-path:url(#SVGID_253_);fill:#FFFFFF;}
	.st231{clip-path:url(#SVGID_255_);}
	.st232{clip-path:url(#SVGID_257_);fill:#FFFFFF;}
	.st233{fill:none;stroke:#0A7586;stroke-width:3.0165;stroke-linecap:round;stroke-miterlimit:10;}
	.st234{fill:none;stroke:#25435A;stroke-width:3.0165;stroke-miterlimit:10;}
	.st235{fill:none;stroke:#0A7586;stroke-width:2.2618;stroke-miterlimit:10;}
	.st236{fill:#FEA000;}
</style>
<g>
	<g>
		<defs>
			<path id="SVGID_52_" d="M91.32,37.79c0-3.26-2.66-5.92-5.92-5.92H51.55c-3.26,0-5.92,2.66-5.92,5.92v68.79
				c0,3.26,2.66,5.92,5.92,5.92H85.4c3.26,0,5.92-2.66,5.92-5.92V77.57l0-0.01V37.79z M48.32,37.79c0-1.78,1.45-3.23,3.23-3.23H85.4
				c1.78,0,3.23,1.45,3.23,3.23v2.14H48.32V37.79z M88.63,106.58c0,1.78-1.45,3.23-3.23,3.23H51.55c-1.78,0-3.23-1.45-3.23-3.23
				V96.38h40.32V106.58z M88.63,93.69H48.32V42.62h40.32v32.25v2.69V93.69z"/>
		</defs>
		<clipPath id="SVGID_1_">
			<use xlink:href="#SVGID_52_"  style="overflow:visible;"/>
		</clipPath>
		
			<linearGradient id="SVGID_2_" gradientUnits="userSpaceOnUse" x1="1048.9553" y1="-3407.9692" x2="1050.4855" y2="-3407.9692" gradientTransform="matrix(117.2849 130.5625 130.5625 -117.2849 321895.75 -536696.75)">
			<stop  offset="0" style="stop-color:#FFEA14"/>
			<stop  offset="0.309" style="stop-color:#FFEA14"/>
			<stop  offset="0.389" style="stop-color:#FAEB1B"/>
			<stop  offset="0.5089" style="stop-color:#EBED30"/>
			<stop  offset="0.6539" style="stop-color:#D2F251"/>
			<stop  offset="0.8185" style="stop-color:#B1F880"/>
			<stop  offset="0.9975" style="stop-color:#86FFBB"/>
			<stop  offset="1" style="stop-color:#85FFBC"/>
		</linearGradient>
		<polygon style="clip-path:url(#SVGID_1_);fill:url(#SVGID_2_);" points="71.22,3.65 134.99,74.65 65.11,137.42 1.34,66.43 		"/>
	</g>
	<path class="st47" d="M68.48,99.07c-2.22,0-4.03,1.81-4.03,4.03c0,2.22,1.81,4.03,4.03,4.03c2.22,0,4.03-1.81,4.03-4.03
		C72.51,100.87,70.7,99.07,68.48,99.07z M68.48,105.74c-1.46,0-2.64-1.18-2.64-2.64s1.18-2.64,2.64-2.64c1.46,0,2.64,1.18,2.64,2.64
		S69.93,105.74,68.48,105.74z"/>
	<g>
		<path class="st27" d="M67.76,36.31h-3.76c-0.52,0-0.94,0.42-0.94,0.94c0,0.52,0.42,0.94,0.94,0.94h3.76
			c0.52,0,0.94-0.42,0.94-0.94C68.7,36.73,68.27,36.31,67.76,36.31z"/>
		<path class="st27" d="M72.96,36.31h-0.94c-0.52,0-0.94,0.42-0.94,0.94c0,0.52,0.42,0.94,0.94,0.94h0.94
			c0.52,0,0.94-0.42,0.94-0.94C73.9,36.73,73.48,36.31,72.96,36.31z"/>
	</g>
	
		<linearGradient id="SVGID_4_" gradientUnits="userSpaceOnUse" x1="1051.4762" y1="-3426.6919" x2="1052.8389" y2="-3426.6919" gradientTransform="matrix(76.3994 61.9133 61.9133 -76.3994 131842.6562 -326870.4375)">
		<stop  offset="0" style="stop-color:#FFEA14"/>
		<stop  offset="0.309" style="stop-color:#FFEA14"/>
		<stop  offset="0.389" style="stop-color:#FAEB1B"/>
		<stop  offset="0.5089" style="stop-color:#EBED30"/>
		<stop  offset="0.6539" style="stop-color:#D2F251"/>
		<stop  offset="0.8185" style="stop-color:#B1F880"/>
		<stop  offset="0.9975" style="stop-color:#86FFBB"/>
		<stop  offset="1" style="stop-color:#85FFBC"/>
	</linearGradient>
	<path style="fill:url(#SVGID_4_);" d="M134.92,69.31h0.68c0,36.75-29.79,66.55-66.55,66.55c-36.75,0-66.55-29.79-66.55-66.55
		c0-36.75,29.79-66.55,66.55-66.55c36.75,0,66.55,29.79,66.55,66.55H134.92h-0.68c-0.07-36-29.18-65.12-65.18-65.18
		c-36,0.07-65.12,29.18-65.18,65.18c0.07,36,29.18,65.12,65.18,65.18c36-0.07,65.12-29.18,65.18-65.18H134.92z"/>
	<path class="st27" d="M72.77,69.38l-2.34,1.06l2.34,1.06c0.04,0.02,0.05,0.05,0.05,0.08c0,0.02-0.01,0.06-0.05,0.08l-2.56,1.16
		c-0.72,0.33-1.54,0.33-2.26,0l-2.56-1.16c-0.04-0.02-0.05-0.05-0.05-0.08c0-0.02,0.01-0.06,0.05-0.08l1.58-0.72l0.72,0.33
		c0.44,0.2,0.92,0.3,1.39,0.3c0.48,0,0.95-0.1,1.39-0.3l0.21-0.09l-0.8-0.36c-0.64,0.2-1.32,0.16-1.94-0.12l-2.56-1.16
		c-0.04-0.02-0.05-0.05-0.05-0.08c0-0.02,0.01-0.06,0.05-0.08l1.58-0.71l0.72,0.33c0.44,0.2,0.92,0.3,1.39,0.3
		c0.48,0,0.95-0.1,1.39-0.3l0.21-0.09l-0.8-0.36c-0.63,0.2-1.32,0.15-1.93-0.12l-2.56-1.16c-0.04-0.02-0.05-0.05-0.05-0.08
		c0-0.02,0.01-0.06,0.05-0.08l2.56-1.16c0.72-0.33,1.54-0.33,2.26,0l2.56,1.16c0.04,0.02,0.05,0.05,0.05,0.08
		c0,0.02-0.01,0.06-0.05,0.08l-2.34,1.06l2.34,1.06c0.04,0.02,0.05,0.05,0.05,0.08C72.81,69.33,72.81,69.37,72.77,69.38
		 M73.45,69.31c0-0.29-0.16-0.54-0.42-0.65l-1.07-0.49l1.07-0.49c0.26-0.12,0.42-0.37,0.42-0.65c0-0.28-0.16-0.54-0.42-0.65
		l-2.56-1.16c-0.89-0.4-1.9-0.4-2.79,0l-2.56,1.16c-0.26,0.12-0.42,0.37-0.42,0.65c0,0.29,0.16,0.54,0.42,0.65l1.07,0.49l-1.07,0.49
		c-0.26,0.12-0.42,0.37-0.42,0.65c0,0.29,0.16,0.54,0.42,0.65l1.07,0.49l-1.07,0.49c-0.26,0.12-0.42,0.37-0.42,0.65
		c0,0.29,0.16,0.54,0.42,0.65l2.56,1.16c0.44,0.2,0.92,0.3,1.39,0.3c0.48,0,0.95-0.1,1.39-0.3l2.56-1.16
		c0.26-0.12,0.42-0.37,0.42-0.65c0-0.28-0.16-0.54-0.42-0.65l-1.07-0.49l1.07-0.49C73.29,69.85,73.45,69.59,73.45,69.31"/>
	<g>
		<linearGradient id="SVGID_6_" gradientUnits="userSpaceOnUse" x1="56.2352" y1="69.3097" x2="82.152" y2="69.3097">
			<stop  offset="0" style="stop-color:#FFEA14"/>
			<stop  offset="0.309" style="stop-color:#FFEA14"/>
			<stop  offset="0.389" style="stop-color:#FAEB1B"/>
			<stop  offset="0.5089" style="stop-color:#EBED30"/>
			<stop  offset="0.6539" style="stop-color:#D2F251"/>
			<stop  offset="0.8185" style="stop-color:#B1F880"/>
			<stop  offset="0.9975" style="stop-color:#86FFBB"/>
			<stop  offset="1" style="stop-color:#85FFBC"/>
		</linearGradient>
		<path style="fill:url(#SVGID_6_);" d="M69.19,82.27c-7.15,0-12.96-5.81-12.96-12.96s5.81-12.96,12.96-12.96
			s12.96,5.81,12.96,12.96S76.34,82.27,69.19,82.27z M69.19,56.98c-6.8,0-12.33,5.53-12.33,12.33c0,6.8,5.53,12.33,12.33,12.33
			s12.33-5.53,12.33-12.33C81.52,62.51,75.99,56.98,69.19,56.98z"/>
	</g>
</g>
</svg>
