<?xml version="1.0" encoding="utf-8"?>
<!-- Generator: Adobe Illustrator 23.0.1, SVG Export Plug-In . SVG Version: 6.00 Build 0)  -->
<svg version="1.1" xmlns="http://www.w3.org/2000/svg" xmlns:xlink="http://www.w3.org/1999/xlink" x="0px" y="0px"
	 viewBox="0 0 915.43 739.59" style="enable-background:new 0 0 915.43 739.59;" xml:space="preserve">
<style type="text/css">
	.st0{fill:#FC6E4C;}
	.st1{fill:#E9B399;}
	.st2{fill:#0A7586;}
	.st3{fill:#A47449;}
	.st4{fill:#25435A;}
	.st5{fill:#7F5737;}
	.st6{fill:#FFFFFF;}
	.st7{fill:#C2907A;}
	.st8{fill:url(#SVGID_1_);stroke:url(#SVGID_2_);stroke-width:1.0698;stroke-miterlimit:10;}
	.st9{fill:#ECED2E;}
	.st10{fill:url(#SVGID_3_);}
	.st11{fill:#E1E1E1;}
	.st12{fill:#FEC305;}
	.st13{fill:#CECECE;}
	.st14{opacity:0.25;fill:#FFFFFF;}
	.st15{fill:none;stroke:#FFFFFF;stroke-width:1.0698;stroke-miterlimit:10;}
	.st16{fill:none;stroke:#FFFFFF;stroke-width:0.9831;stroke-linecap:round;stroke-miterlimit:10;}
	.st17{fill:#052741;}
	.st18{fill:none;stroke:#25435A;stroke-width:1.2485;stroke-miterlimit:10;}
	.st19{fill:none;stroke:#25435A;stroke-width:1.0291;stroke-miterlimit:10;}
	.st20{fill:none;stroke:#FFFFFF;stroke-width:1.3063;stroke-linecap:round;stroke-miterlimit:10;}
	.st21{opacity:0.4;fill:#FFFFFF;}
	.st22{opacity:0.25;fill:none;stroke:#FFFFFF;stroke-width:1.0698;stroke-miterlimit:10;}
	.st23{fill:url(#SVGID_4_);}
	.st24{opacity:0.4;fill:none;stroke:#FFFFFF;stroke-width:2.1397;stroke-miterlimit:10;}
	.st25{opacity:0.9;fill:none;stroke:#FFFFFF;stroke-width:2.1397;stroke-miterlimit:10;}
	.st26{opacity:0.7;fill:none;stroke:#FFFFFF;stroke-width:2.1397;stroke-miterlimit:10;}
	.st27{opacity:0.2;fill:#25435A;}
	.st28{opacity:0.5;fill:#FFFFFF;}
	.st29{display:none;}
	.st30{display:inline;opacity:0.08;}
	.st31{fill:#E30613;}
</style>
<g id="Layer_1">
	<path class="st0" d="M632.13,739.55"/>
	<path class="st1" d="M816.4,180.98l5.56,18.55c0,0,20.99,4.44,23.01,1.83c0.24-0.3,8.5-9.37,8.5-9.37l1.87-10.85
		c0,0-9.67-0.75-9.67-9.59l1.44-21.98c-0.72-10.35,7.65-13.65,7.65-13.65c3.98-5.61,10.06-20.11-2.94-26.66
		c-13-6.55-26.54-0.86-28.82,2.72c-1.97,3.08-2.79,4.85-3.75,10.69c-0.86,5.26-2.91,9.31-2.91,9.31s-2.02,2.18,0.18,3.18
		c0.4,0.18,1.31,0.61,1.86,0.82c0,0,0.47,0.12,0.38,0.77c-0.1,0.74-0.49,1.96-0.55,2.43c0,0-0.04,0.52,0.53,0.76
		c0.21,0.09,0.47,0.5,0.46,0.57s-0.22,0.46-0.49,0.65c-0.26,0.19-0.34,0.53-0.34,0.53c-0.24,0.91,0.7,1.72,0.81,3.23
		c0.11,1.51-2.75,6.4,0.79,6.73c0,0,3.04,0.14,4.74,0.13c0,0,1.19,0.05,1.24,1.91s0,3.33,0,3.33v8.94
		C825.97,165.96,825.6,177.07,816.4,180.98"/>
	<path class="st2" d="M747.77,239.05c0-28.57,24.76-39.66,24.76-39.66l45.13-19c0,0,2.99,16.05,20.55,16.54s16.45-16.04,16.45-16.04
		l36.09,2.49c0,0,24.73,7.79,24.73,45.59v147.29l-164.57,17.43L747.77,239.05"/>
	<path class="st3" d="M854.59,101.32c0,0,9.04,3.57,10.19,9.9c0.67,3.7-0.87,6.91-0.33,8.87c0.53,1.96,4.7,6.01,1.37,14.12
		c-1.52,3.71-7.49,2.77-7.42,7.91c0.12,8.52-2.36,11.07-6.29,12.85c-3.92,1.78-7.04-2.95-6.37-9.06c0.32-2.94,5.31-13.43,5.56-16.75
		c0.25-3.32-4.44-4.81-7.15-2.84s-2.5,12.5-2.41,17.3c0.24,12.98-9.62,16.39-9.62,16.39s-14.09,6.83-14.34-2.13
		c-0.15-5.34,0.8-11.64,0.05-17.93c-0.57-4.8,3.81-4.35,3.81-4.35c2.66-0.08,6.5,0.27,9.51-0.18c4.67-0.7,6.38-5.88,6.38-5.88
		c1.05-2.57,2.4-5.29,3.18-6.21c1.48-1.76,1.48-5.88,0-7.96c-1.48-2.08-5.56-3.26-5.56-3.26s-4.38-1.13-4.56-5.2
		c-0.25-5.85,4.56-5.48,4.56-5.48s3.13,0.64,7.29-1.47C842.42,99.97,846.48,97.19,854.59,101.32z"/>
	<path class="st3" d="M405.75,247.69c-0.43-2.84-0.87-7.26-2.81-10.8c-2.16-3.94-14.41-12.91-27.04-5.8
		c-12.63,7.11-6.73,22.86-2.86,28.95c0,0,8.68,8.57,7.99,19.81l0.55,24.32l19.46,3.42v-24.63v-7.26c1.65,0.02,4.61-0.14,4.61-0.14
		c3.55-0.38,1.86-4.11,1.97-5.75s1.02-2.52,0.79-3.5c0,0-0.07-0.37-0.33-0.57c-0.26-0.2-0.46-0.62-0.47-0.7
		c-0.01-0.08,0.24-0.52,0.45-0.62c0.55-0.27,0.51-0.83,0.51-0.83c-0.05-0.51-0.44-1.83-0.54-2.64c-0.08-0.7,0.37-0.83,0.37-0.83
		c0.54-0.23,1.49-0.58,1.81-0.89c0.54-0.53-0.32-1.34-0.32-1.34S406.61,253.39,405.75,247.69z"/>
	<path class="st4" d="M375.94,264.58c0.44,0.51,0.84-1.92,2.28-9.42c2.03-10.59,5.91-7.78,5.91-7.78s2.19,1.92,3.43,0.97
		c1.24-0.95-0.07-3.18,0.2-5.55c0.28-2.4,4.4-4.36,12.42-4.65c8.01-0.29,8.29-9.71,8.29-9.71s0.48-2.61-3.05-1.62
		c-3.51,0.98-7.73-0.86-7.73-0.86s-17.5-6.26-25.74,3.9C362.61,241.36,366.59,253.9,375.94,264.58z"/>
	<path class="st5" d="M401.04,275.69c0,0-5.39-0.12-7.74-0.78c-2.35-0.66-2.28,1.83-0.59,3.16c1.69,1.32,4.17,2.64,8.32,3.96V275.69
		z"/>
	<path class="st6" d="M372.25,298.81c0,0,8.16-0.19,9.9-1.35c1.75-1.16,5.33-4.03,12.3,3.16c0,0,1.81,2.02,2.76,0.47
		c1.41-2.31,1.8-3.92,3.83-3.2s19.04,9.68,19.04,9.68l-6.83,75.03l-1.36,17.14h-14.48l-5.92-13.37l-11.95-36.92l-9.15-39.65
		L372.25,298.81z"/>
	<g>
		<path class="st1" d="M512.01,211.12c0.96-5.84,1.66-7.67,3.62-10.75c2.29-3.58,15.51-11.07,28.51-4.53
			c13,6.55,6.92,21.05,2.94,26.66c0,0-6.31,6.05-5.59,16.4l1.08,24.52l-19.12,2.86v-22.68l-1.24-5.24c-1.7,0.02-9.92-0.13-9.92-0.13
			c-3.65-0.35-0.68-5.23-0.79-6.73c-0.11-1.51-1.04-2.32-0.81-3.23c0,0,0.08-0.34,0.34-0.53c0.26-0.19,0.47-0.57,0.49-0.65
			c0.01-0.07-0.25-0.48-0.46-0.57c-0.57-0.25-0.53-0.76-0.53-0.76c0.06-0.47,0.45-1.69,0.55-2.43c0.09-0.64-0.38-0.77-0.38-0.77
			c-0.56-0.21-1.46-0.65-1.86-0.82c-1.3-0.56-0.18-3.18-0.18-3.18S511.15,216.38,512.01,211.12z"/>
		<path class="st6" d="M519.05,261.9c0,0,3.04,4.11,7.51,4.25c4.47,0.14,10.53-1.31,11.35-2.55"/>
		<path class="st0" d="M495.61,264.03c-13.81,5.32-36.57,22.38-38.94,77.18l-22.73,108.06h137.89c0,0,30.91-75.19,28.42-138.12
			c0,0-1.71-32-23.8-35.86c-23.1-4.04-25.76-10.01-32.95-24.81c-0.79-1.63-2.58-0.3-2.58-0.3c-2.9,2.64-7.1,4.51-10.54,4.91
			c0,0-6.01,0.1-6.92-3.52c-0.91-3.62-3.8,2.07-7.11,4.24S495.61,264.03,495.61,264.03z"/>
	</g>
	<path class="st6" d="M593.41,376.55"/>
	<path class="st4" d="M533.4,185.96c0,0,6.54,1.81,10.47,2.9c3.93,1.09,11.31,4.97,9.06,19.98c0,0-0.27,2.74-2.97,2.84
		c0,0-32.22-4.27-34.27-3.99c-2.05,0.28-13.95-2.03-24.91-5.21c0,0-3.03-3.8,1.02-3.67l19.96,1.72
		C511.74,200.54,513.54,180.32,533.4,185.96z"/>
	<path class="st4" d="M409.79,374.04l9.31-66.98c1.37,0.85,4.49,2,4.49,2s11,3.53,17.5,5.3c0,0,20.36,4.61,21.31,29.17
		c0.54,13.92,1.62,20.71,2.41,33.93l11.22,152.43l-187.77-2.07c0,0,6.67-126.41,6.67-138.76c0-62.06,48.44-83.67,71.07-89.15
		c0,0,4.32-1.21,8.65-1.21l7.11,34.78c0,0,10.41,42.6,13.66,45.16C398.68,381.19,408.17,384.96,409.79,374.04z"/>
	<path class="st4" d="M397.26,303.07c-0.53,0.98,7.79,41.22,7.79,41.22l6.13,48.24l-6.99,8.67l-8.97-9.75l0.96-52.87l-0.76-35.51
		H397.26z"/>
	<path class="st4" d="M350.56,390.6v62.54h7.49L354.3,413c0,0,0.47-1.8,0-4.93c-0.47-3.12-0.47-4.37,0-5.77
		c0.47-1.4,1.09-1.24,0.94-4.06c-0.16-2.81-1.09-3.28-0.94-4.84c0.16-1.56,0.31-2.81,0-5.15c-0.31-2.34-0.62-5.62-1.09-6.09
		c-0.47-0.47-0.94-0.31-1.4,0c-0.47,0.31-1.25,0.62-1.25,2.18C350.56,385.91,350.56,390.6,350.56,390.6z"/>
	<path class="st4" d="M396.73,305.8c0,0-2.5-0.91-2.87-1.28c-0.37-0.37-1.01-0.63-1.28-1.46c-0.27-0.83-0.37-1.56,0-2.29
		c0.37-0.73,1.11-0.82,1.95-1.19c0.9-0.4,0.93-0.24,1.91-0.88s2.67,1.17,2.67,1.17s1.52,1.54,1.43,2.36
		c-0.09,0.82-0.82,1.03-1.37,1.92C398.15,305.8,396.73,305.8,396.73,305.8z"/>
	<path class="st1" d="M219.68,344.31l-15.72,3.38c-22.63,5.48-25.5,15.44-29.33,41.18c-9.35,62.75-7,149.16-7,149.16h129.45
		l0.24-174.12c-1.77-17.59-13.86-20.9-33.14-20.9l-22.68-1.81l0.76,21.86l-8.89,16.44l-10.26-4.01l-2.65-15.55L219.68,344.31z"/>
	<path class="st7" d="M242.51,453.93c0,0,3.49,0.77,2.27,2.88c-1.61,2.78,9.4,3.89-1.74,5c0,0-8.13,1.25-10.02,4.59
		c-1.59,2.81-10.46,12.2-19.32,4.36c-6.46-5.72-10.23-24.62-10.23-24.62s-0.23-1.52,0.5-0.72c0.73,0.8,2.13,10.69,17.65,8.82
		L242.51,453.93z"/>
	<path class="st3" d="M237.65,330.52"/>
	<path class="st3" d="M241.75,368.47c-0.36,0.47-4.1,9.16-4.1,9.16s-10.24-3.37-10.9-3.54c-13.07-3.24-5-30.62-5-30.62l0.75-30.32
		c-1.42,0.42-6.09,1.93-6.09,1.93c-3.14,0.54-3.56-1.75-4.05-3.13c-0.49-1.38-1.49-1.92-1.53-2.82c0,0-0.03-0.34,0.15-0.57
		c0.17-0.24,0.24-0.65,0.24-0.72s-0.33-0.39-0.54-0.43c-0.54-0.09-0.64-0.59-0.64-0.59c-0.08-0.45-0.11-2.1-0.21-2.82
		c-0.1-0.68-0.55-0.82-0.55-0.82c-1.29-0.42-1.74-0.05-2.14-0.06c-1.34-0.04-1-1.57-1-1.57s1.18-4.17,1.25-10.9
		c0.03-2.57-0.02-6.16,0.79-9.68c0.9-3.91,9.45-13.08,22.04-10.04c12.59,3.04,11.35,18.01,9.51,24.19c0,0-1.97,8.56-2.06,12.28
		s0.41,30.85,0.41,30.85"/>
	<path class="st6" d="M244.18,343.74c-0.1-3.77-3.69-6.97-5.59-6.31c-1.9,0.65,1.34,10.06-0.3,14.59c-1.64,4.53,0.78,3.09,0.78,7.53
		c0,10.08-5.12,9.96-5.12,9.96s-7.41,0.59-9.32-2.73c-1.91-3.32-2.97-25.05-2.97-25.05s-5.43,1.67-5.04,4.27
		c0.38,2.6-0.04,14.91-0.04,14.91s-1.01,25.9,0.9,39.74c1.91,13.84,9.93,7.75,14.62,11.62c4.69,3.87,7.15-9.41,7.91-11.07
		C240.01,401.21,245.19,379.97,244.18,343.74z"/>
	<g>
		<path class="st3" d="M203.01,437.85c-0.72-2.46-1.33-4.71-1.95-7.05l-1.8-6.94c-1.17-4.63-2.29-9.25-3.36-13.88
			c-2.15-9.26-4.14-18.53-6-27.82c-1.82-9.3-3.59-18.59-5.14-27.92c-1.6-9.32-3.02-18.66-4.39-28c-0.3-2.03,1.11-3.91,3.14-4.21
			c1.89-0.28,3.65,0.92,4.12,2.72l0.01,0.03c2.41,9.06,4.86,18.1,7.5,27.08c2.59,8.99,5.38,17.92,8.21,26.82
			c2.87,8.89,5.86,17.73,8.99,26.49c1.56,4.38,3.16,8.75,4.81,13.08l2.5,6.47c0.84,2.12,1.72,4.33,2.55,6.3
			c2.2,5.19-0.23,11.17-5.41,13.36c-5.19,2.2-11.17-0.23-13.36-5.41C203.25,438.6,203.12,438.22,203.01,437.85z"/>
	</g>
	<path class="st3" d="M184.63,353.83l-6.97-38.93c0,0-12.39-6.38-13.03-11.7c-0.56-4.73-0.53-8.84,1.97-10.04
		c3-1.44,8.93,0.15,10.54,3.73c1.07,2.38,7.08,14.45,7.08,14.45c1.14,5.21,5.6,21.82,5.6,21.82s-7.6-5.83-9.22-6.99L184.63,353.83z"
		/>
	
		<ellipse transform="matrix(0.9704 -0.2416 0.2416 0.9704 -70.4628 54.3489)" class="st4" cx="186.39" cy="314.5" rx="3.25" ry="4.9"/>
	<path class="st4" d="M185.12,317.73l-6.46,1.61c-0.47,0.12-0.94-0.17-1.06-0.63l-0.71-2.85c-0.1-0.4,0.14-0.8,0.54-0.9l6.58-1.64
		L185.12,317.73z"/>
	<linearGradient id="SVGID_1_" gradientUnits="userSpaceOnUse" x1="320.2098" y1="553.9509" x2="320.2098" y2="329.101">
		<stop  offset="0.1153" style="stop-color:#F2F2F2"/>
		<stop  offset="0.4812" style="stop-color:#FAFAFA;stop-opacity:0.6278"/>
		<stop  offset="1" style="stop-color:#FFFFFF;stop-opacity:0.1"/>
	</linearGradient>
	<linearGradient id="SVGID_2_" gradientUnits="userSpaceOnUse" x1="251.6097" y1="518.3435" x2="388.81" y2="518.3435">
		<stop  offset="0.1153" style="stop-color:#F2F2F2"/>
		<stop  offset="0.4812" style="stop-color:#FAFAFA;stop-opacity:0.6278"/>
		<stop  offset="1" style="stop-color:#FFFFFF;stop-opacity:0.1"/>
	</linearGradient>
	<path class="st8" d="M388.28,677.23H252.14V374.48c0-8.3,6.73-15.02,15.02-15.02h106.08c8.3,0,15.02,6.73,15.02,15.02V677.23z"/>
	<path class="st1" d="M673.09,231.88l-21.26-2.05l1.02-47.15c0.66-10.04-7.73-14.46-7.73-14.46c-8.37-4.09-10.01-23.65,2-30.01
		c12.01-6.35,25.01,1.92,27.06,5.44c1.85,3.17,3.25,6.02,3.9,8.51c1.47,5.63,3.19,9.84,3.19,9.84s0.82,0.73,0.31,1.2
		c-0.31,0.28-1.68,0.98-2.2,1.19c0,0-0.43,0.12-0.35,0.74c0.09,0.72,0.46,1.9,0.51,2.36c0,0,0.04,0.5-0.49,0.74
		c-0.2,0.09-0.44,0.48-0.42,0.56s0.21,0.45,0.45,0.63c0.24,0.18,0.31,0.51,0.31,0.51c0.22,0.88-0.64,1.67-0.75,3.13
		c-0.1,1.46,1.5,4.79-1.87,5.14c0,0-2.81,0.14-4.38,0.12c0,0-2.53-0.14-3.05,2.07C668.81,182.6,673.09,231.88,673.09,231.88z"/>
	<path class="st4" d="M587.23,264.1c3.94,19.54-2.71,29.07-2.71,29.07l10.3,100.51h138.85c0,0,1.67-67.18-1.21-105.85
		c-1.67-22.48-30.17-69.99-30.17-69.99h-24.91c-7.31,0-6.04-24.02-6.04-24.02s0.17-1.45,0.51-2.92c0,0,0.78-2.39-1.41-2.44
		c-5.26-0.11-17.06,0.15-18.52,0.33c-2.1,0.25-0.92,3.6-0.72,4.31c0.2,0.71,0.23,1.91,0.23,1.91c0,26.69-6,22.83-10.86,23.56h-23.03
		C617.53,218.57,578.15,218.99,587.23,264.1z"/>
	<path class="st3" d="M695.69,217.35"/>
	<path class="st9" d="M603.53,344.64c0,0-9.99-25.39-1.25-47.08c2.23-5.54,8.74-5.14,9.16,0c0.42,5.14,2.08,47.08,2.08,47.08H603.53
		z"/>
	<linearGradient id="SVGID_3_" gradientUnits="userSpaceOnUse" x1="744.5947" y1="250.8146" x2="744.5947" y2="41.3385">
		<stop  offset="0.2356" style="stop-color:#FFFFFF;stop-opacity:0.7"/>
		<stop  offset="0.9693" style="stop-color:#FFFFFF;stop-opacity:0.0264"/>
		<stop  offset="1" style="stop-color:#FFFFFF;stop-opacity:0"/>
	</linearGradient>
	<polygon class="st10" points="699.21,3.43 789.98,3.43 788.99,216.14 768.55,274.07 699.21,274.07 	"/>
	<rect x="699.21" y="215.64" class="st11" width="90.1" height="61.18"/>
	<rect x="666.18" y="273.75" class="st11" width="102.37" height="3.07"/>
	<g>
		<path class="st3" d="M722.18,302.98c-0.24,0.22-0.34,0.54-0.34,0.54c-0.24,0.93,0.7,1.77,0.81,3.31c0.11,1.55-2.86,6.68,0.79,7.04
			c0,0,3.04,0.02,4.74,0c0,0,4.08-0.09,5.14,1.85c1.27,2.33,1.18,9.41-4.91,12.73s0,0,0,0l-4.5,10.9l15.86,27.48l18.54-35.12
			c-5.24-6.55-5.69-17.29-5.69-17.29c-0.72-10.63,5.59-16.84,5.59-16.84c3.98-5.76,10.06-20.65-2.94-27.37s-26.22,0.97-28.51,4.65
			c-1.97,3.16-2.05,2.03-4.23,7.93c0,0-6.65,13.79-2.91,13.87c0,0,3.07-0.3,2.6,1.77c-0.17,0.75-0.49,2.02-0.55,2.5
			c0,0-0.04,0.53,0.53,0.78C722.2,301.73,723.05,302.2,722.18,302.98z"/>
		<path class="st12" d="M754.52,326.3c9.33,14.29,17.36,19.78,30.67,25.99c19.56,9.13,24.3,36.31,24.3,36.31
			c10.18,70.15,7.04,104.58,7.04,104.58h-166.9l8.4-86.34c2.6-45.13,20.18-52.22,31.08-57.52c10.9-5.3,40.2-21.36,40.2-21.36
			s-0.15,14.04,3.64,15.56c14.81,5.93,16.09-14.83,18.99-17.54C751.94,325.99,753.51,324.76,754.52,326.3z"/>
		<path class="st4" d="M766.12,266.55c-2.41-3.27-5.77-5.7-11.21-5.47c-5.44,0.23-6.98-2.48-10.65-5.51
			c-3.67-3.02-9.7,4.58-13.48,5.74s-4.87,1.74-6.46,3.61c-1.59,1.86-3.57,3.49-3.17,7.91s4.95,5.21,7.98,5.58
			c2.31,0.28,8.33,3.02,9.23,5.82c0.91,2.79,0.56,2.71,1.14,6.22c0.73,4.44,2.03,0.76,5.03-2.27s8.03-1.67,9.18,3.46
			c0.97,4.33-3.94,21.22-1.1,22.79s7.73-5.58,10.54-10.5c2.36-4.13,4.99-9.45,6.65-13.37C769.81,290.57,775.35,279.09,766.12,266.55
			z"/>
	</g>
	<path class="st6" d="M813.21,455.75"/>
	<path class="st2" d="M601.95,355.69c-0.5-3.04-3.67-2.87-4.78-0.19c0,0-1.33,8.23-10.33,12.05c-7.32,3.1-27.77,10.84-43.16,21.71
		c0,0-59.01,5.82-13.55,226.03l138.58,6.58c25.58-214.4-13.74-234.58-13.74-234.58l-24.73-15.64L601.95,355.69z"/>
	<path class="st12" d="M378.18,479.86c0,69.08,0,240.65,0,240.65l148.67-98.64c2.69-89.5,0-152.31,0-152.31
		c0-24.33-15.64-31.66-15.64-31.66s-25.39-12.75-66.76-11.64C444.44,426.27,378.18,424.72,378.18,479.86z"/>
	<path class="st1" d="M738.23,449.01l15.72,3.38c22.63,5.48,25.5,15.44,29.33,41.18c9.35,62.75,7,174.61,7,174.61l-132.32-23.65
		V540.07c0-40.27-16.43-67.28,21.47-79.48l42.88-16.14l2.07,9.72l7.25,9.1l-1.53-9.85l2.28-7.9L738.23,449.01z"/>
	<path class="st3" d="M713.93,428.89"/>
	<path class="st1" d="M144.7,417.16c0.65-2.49,2.05-5.35,3.9-8.51c2.05-3.52,15.5-9.28,27.51-2.93c12.01,6.35,7.1,24.96,1.05,29.1
		c0,0-7.05,2.3-6.39,12.35l0.18,47.66l-21.26,2.05l0.71-47.07v-6.49c-1.57,0.02-4.38-0.12-4.38-0.12c-3.37-0.34-1.77-3.67-1.87-5.14
		s-0.97-2.25-0.75-3.13c0,0,0.07-0.33,0.31-0.51s0.44-0.56,0.45-0.63c0.01-0.07-0.23-0.47-0.42-0.56c-0.53-0.24-0.49-0.74-0.49-0.74
		c0.05-0.46,0.42-1.64,0.51-2.36c0.08-0.62-0.35-0.74-0.35-0.74c-0.51-0.2-1.89-0.9-2.2-1.19c-0.51-0.47,0.31-1.2,0.31-1.2
		S143.24,422.8,144.7,417.16z"/>
	<path class="st13" d="M150.38,443.32c0,0,5.28-0.11,7.37-0.7c2.1-0.59,2.03,1.64,0.52,2.82c-1.51,1.18-4.19,2.36-7.9,3.54V443.32z"
		/>
	<path class="st4" d="M148.64,461.32c2.06-0.61,7-2.13,10.73-5.88c3.74-3.76,7.85-5.99,7.96-14.33s-1.52-11.62-1.76-13.62
		c-0.16-1.34-0.13-4.38,3.27-5.88s6.11,4.25,5.65,6.63s-1.67,7.75,0,7.96c1.67,0.21,5.23-2.41,6.25-4.21
		c0.77-1.36,2.39-2.23,3.64-6.45c6.86-23.25-14.53-27.39-14.53-27.39c-7.65-2-17.09,0.96-18.74,1.79c-1.65,0.83-5.03-0.14-5.03-0.14
		c-1.24-0.9-2.62,1.65-2.62,1.65c-2.27,3.65,2.76,8.54,5.92,7.79c3.17-0.76,10.2-1.38,12.86,0.69c2.66,2.07,0.32,4.68,0.32,4.68
		c-3.38,2.25-0.5,7.25,0,10.5c0,0,0.3,6.53-4.87,8.27c-5.17,1.74-11.98-2.61-12.69-2.84c-0.7-0.23-2.11-0.12-2.23,0.82
		s2.14,1.53,2.71,2.58c0.58,1.06-0.63,2.2-1.68,2.51s-1.22,5.38-0.55,8.07c0,0,0.31,4.42-2.22,7.75
		C138.51,455.6,139.84,463.91,148.64,461.32z"/>
	<path class="st4" d="M122.38,479.37"/>
	<path class="st4" d="M122.38,479.37c16.33,0.18,18.96-6.07,18.96-6.07s1.3-3.09,8.61-3.74l1.01,26l9.71-23.72
		c0,0,1.46-0.49,3.25-0.65c1.79-0.16,10.56-0.32,10.56-0.32s1.3,0.97,1.3,2.27c0,1.3,1.95,10.4,7.31,11.21
		c5.36,0.81,17.06,0.81,24.7,4.22s22.07,8.76,30.53,33.21c18.51,53.49,14.62,117.73,14.62,117.73l-25,0.75H93.8
		c0,0,12.23-92.76,10.59-104.84c-1.64-12.08,5.27-18.41,5.27-18.41l-0.38-13.33l20.55-15.56l8.06,15.56l24.36,78.24"/>
	<path class="st4" d="M133.25,480.22c0,0-22.88-5.18-37.44,10.07c0,0-13.94,12.29-28.84,31.64c0,0-15.11,20.16-33.14,26.66
		l2.98-59.57l-15.79,1.06c0,0-9.53,48.68-8.87,68.28c0,0-0.41,17.02,12.96,20.49c0,0,19.4,6.47,59.45-36.89
		c0,0,24.05-26.44,30.44-29.51C121.39,509.39,133.25,480.22,133.25,480.22z"/>
	<path class="st3" d="M122.38,479.37"/>
	<path class="st4" d="M183.47,311.33c0,0-1.13,2.55-3.18,2.98l0.38,2.98l2.96-1.91L183.47,311.33z"/>
	<path class="st4" d="M182.29,318.45c0,0,1.82-0.42,3.52,0.42l-0.51-2.36l-2.26-0.59l-0.99,1.36L182.29,318.45z"/>
	<path class="st1" d="M616.72,345.9l1.38,29.27l-19.67-14.47l0.18-23.28c0.66-10.04-6.39-12.35-6.39-12.35
		c-6.05-4.14-10.96-22.74,1.05-29.1c12.01-6.35,25.46-0.59,27.51,2.93c1.85,3.17,3.08,5.65,4.03,8.04c0,0,2.79,8.53,3.36,9.93
		c0.57,1.4,0,1.58,0,1.58c-0.31,0.28-1.68,0.98-2.2,1.19c0,0-0.43,0.12-0.35,0.74c0.09,0.72,0.46,1.9,0.51,2.36
		c0,0,0.04,0.5-0.49,0.74c-0.2,0.09-0.44,0.48-0.42,0.56s0.21,0.45,0.45,0.63c0.24,0.18,0.31,0.51,0.31,0.51
		c0.22,0.88-0.64,1.67-0.75,3.13s1.5,4.79-1.87,5.14c0,0-0.79,0.35-2.83,0.63C620.53,334.08,615.74,334.68,616.72,345.9z"/>
	<path class="st6" d="M556.82,545.11"/>
	<path class="st4" d="M211.83,275.16c-0.4,6.43,1.04,14.91,15.83,18.47c0,0,7.67,4.11,8.76,10.95c0,0,1.23,17.05,14.51,16.43
		c0,0,12.43-1.25,17.25,3.29c0,0,21.96,22.09,30.66,9.76c0,0,13.68-21.47-16.08-33.71c0,0-14.9-6.69-18.87-12.52
		c0,0-12.62-23.95-25.16-25.9S212.42,265.72,211.83,275.16z"/>
	<path class="st3" d="M554.97,570.82"/>
	<path class="st3" d="M214.45,590.23"/>
	<path class="st14" d="M376,437.3h-72.83c-1.93,0-3.49-1.56-3.49-3.49v-35.34c0-1.93,1.56-3.49,3.49-3.49H376
		c1.93,0,3.49,1.56,3.49,3.49v35.34C379.49,435.73,377.93,437.3,376,437.3z"/>
	<path class="st14" d="M329.62,490.09h-64.61c-1.93,0-3.49-1.56-3.49-3.49v-40.37c0-1.93,1.56-3.49,3.49-3.49h64.61
		c1.93,0,3.49,1.56,3.49,3.49v40.37C333.12,488.53,331.55,490.09,329.62,490.09z"/>
	<path class="st14" d="M329.62,583.6h-64.61c-1.93,0-3.49-1.56-3.49-3.49v-81.95c0-1.93,1.56-3.49,3.49-3.49h64.61
		c1.93,0,3.49,1.56,3.49,3.49v81.95C333.12,582.03,331.55,583.6,329.62,583.6z"/>
	<path class="st14" d="M290.86,437.3h-25.84c-1.93,0-3.49-1.56-3.49-3.49v-35.34c0-1.93,1.56-3.49,3.49-3.49h25.84
		c1.93,0,3.49,1.56,3.49,3.49v35.34C294.36,435.73,292.79,437.3,290.86,437.3z"/>
	<path class="st14" d="M376,521.96h-34.62c-1.93,0-3.49-1.56-3.49-3.49V445.6c0-1.93,1.56-3.49,3.49-3.49H376
		c1.93,0,3.49,1.56,3.49,3.49v72.87C379.49,520.4,377.93,521.96,376,521.96z"/>
	<path class="st1" d="M126.69,592.33c0,0-3.68,2.55,1.32-1.12s4.04-8.53,3.61-10.29c-0.43-1.76-2.72-2.26-2.72-2.26
		c-1.7,0.02-5.78,0.85-5.78,0.85c-4.4,0.67-2.86-4.09-2.98-5.59c-0.11-1.51-0.88-2.59-0.64-3.5c0,0,0.12-0.72,0.38-0.91
		c0.26-0.19,0.41-0.6,0.42-0.68l-1.31-1.19c0.06-0.47,0.62-3.43,0.72-4.18c0.09-0.64,0,0,0,0c-0.56-0.21-0.91-0.1-1.33-0.23
		c-2.05-0.64-1.65-0.97-0.8-3.25c0.85-2.27,2.29-9.1,2.29-9.1c0.8-5.86,2.41-7.3,4.38-10.38c2.29-3.58,15.51-11.07,28.51-4.53
		c7.54,3.8,20.81,10.14,15.5,10.58c-6.27,0.52-11.28,5.41-12.01,11.66c-1.08,9.24-1.03,9.57-6.14,20.82l1.08,24.52l-19.12,2.86"/>
	<path class="st0" d="M152.11,590.58c9.33,13.92,17.36,19.26,30.67,25.31c19.56,8.89,41.25,35.36,41.25,35.36
		c10.18,68.32-4.26,88.34-4.26,88.34H54.42l10.88-58.27c3.89-54.45,28.04-72.01,38.94-77.18s22.67-11.94,22.67-11.94
		s8.03,3.47,12.09,2.99c3.44-0.41,7.64-2.28,10.54-4.91C149.54,590.28,151.11,589.08,152.11,590.58z"/>
	<path class="st6" d="M202.03,716.66"/>
	<path class="st7" d="M614,232.97"/>
	<circle class="st15" cx="270.83" cy="377.83" r="8.32"/>
	<circle class="st15" cx="270.83" cy="376.38" r="3.35"/>
	<path class="st15" d="M266.14,384.42c0-2.59,2.1-4.69,4.69-4.69s4.69,2.1,4.69,4.69"/>
	<circle class="st0" cx="769.81" cy="236.2" r="7.12"/>
	<rect x="741.24" y="227.62" transform="matrix(0.866 -0.5 0.5 0.866 -15.432 406.5478)" class="st12" width="19.34" height="8.9"/>
	<path class="st4" d="M630.45,450.35h-27.8c-3.22,0-5.83-2.61-5.83-5.83V389.2c0-3.22,2.61-5.83,5.83-5.83h27.8
		c3.22,0,5.83,2.61,5.83,5.83v55.33C636.28,447.74,633.67,450.35,630.45,450.35z"/>
	<rect x="596.82" y="390.16" class="st6" width="39.46" height="52.26"/>
	<polyline class="st16" points="305.28,421.11 338.45,414.95 373.44,403.74 	"/>
	<polyline class="st16" points="305.28,431.08 338.45,407.58 373.44,417.89 	"/>
	<path class="st4" d="M119.88,546.64c0,0,10.76-3.94,17.22,0.59c6.8,4.78,1.73,15.63,1.73,15.63s-6.8,16.21,7.7,35.21
		c0,0,4.67,5.47,0,15.82c-3.43,7.6-8.43,16.62,0,23.33s18.74,5.09,18.74,5.09s9.31-2.02,11.4,10.73c1.62,9.88,17.7,7.24,21.45,5.63
		s10.46-5.63,10.73-12.87c0.27-7.24,1.01-20.38,5.6-25.74c4.59-5.36,11.02-20.65,1.64-40.76s-33.35-46.12-48.72-52.02
		c-15.36-5.9-31.87-6.97-39.7-3.22S119.88,546.64,119.88,546.64z"/>
	<path class="st4" d="M80.23,546.56c0,0,23.54-20.08,23.64,5.1c0,0,16.36-12.8,16.01-14.47c-0.36-1.68-4.28-21.81-4.28-21.81
		l-9.63-4.14L80.23,546.56z"/>
	<path class="st1" d="M126.69,592.33"/>
	<path class="st4" d="M34.25,540.86c0,0-0.79,8.96,5.31,5.15l1.74,5.81l-11.89,6.9c0,0-4.76-7.51-4.78-8.06
		C24.6,550.11,34.25,540.86,34.25,540.86z"/>
	<path class="st4" d="M553.27,397.14c-31.54,2.91-26.75-37.56-12.86-45.71c11.16-6.56,26.23-10.9,24.83-23.5
		c-0.26-2.36-0.4-13.27,9.84-15.83c7.76-1.94,6.36-11.12,6.36-11.12c0.58-12.12,6.56-16.35,14.07-18.96
		c7.51-2.61,25.65,4.09,27.32,11.1c2.4,10.06-7,12.38-7,12.38c-10.16,3.63-12.59,17.99-11.49,32.54c0,0,4.87,22.94-27.2,33.53
		c0,0-6.42,2.15-10.57,8.39S565.57,396,553.27,397.14z"/>
	<path class="st4" d="M558.15,368.51c1.61-6.9,5.11-9.64,3.78-15.06"/>
	<path class="st4" d="M717.51,446.68l8-2.45l12.72,4.77c16.47,7.73,41.84,22.3,41.84,22.3s15.39-27.87,12.11-44.89l-13.06-25.75
		c0.1,12.76-10.61,13.15-10.61,13.15c-9.68,0.21-20.58-9.97-24.82-24.71c-4.84-16.83-19.48-18.57-26.84-17.51
		c-7.36,1.06-17.28,6.27-17.64,18.94v11.91c0,0-0.09,9.29-3.42,15.12c-3.33,5.82-1.27,13.46-0.23,16.33
		c2.94,8.16-3.65,8.21-4.9,12.37c-1.25,4.16,0.55,9.47,0.55,9.47L717.51,446.68z"/>
	<path class="st1" d="M537.41,578.05c0,0,6.78,7.05,16.84,8.16l-10.05,13.17l-9.93,11.64l-15.15-0.21l-27.04-26.98
		c18.56,0,16.77-11.89,16.77-11.89c-2.39-12.4-8.58-15.35-8.58-15.35c-8.66-3.11-20.75-22.53-8.19-34.06
		c12.56-11.53,30.72-8.81,34.32-5.19c3.25,3.26,5.96,6.76,7.26,9.72c2.62,5.92,7.17,10.31,7.17,10.31s1.22,0.62,0.75,1.36
		c-0.28,0.44-1.73,1.73-2.29,2.14c0,0-0.49,0.28-0.19,1.01c0.34,0.85,1.16,2.17,1.37,2.7c0,0,0.16,0.55-0.36,1.05
		c-0.71,0.69,0.41,1.43,0.41,1.43c0.35,0.14,0.54,0.52,0.54,0.52c0.55,1-0.25,2.23,0.09,4.04c0.34,1.81,3.34,5.34-0.64,6.83
		l-9.62,2.63C530.9,561.08,522,563.94,537.41,578.05z"/>
	<path class="st3" d="M490.29,549.87c2.56,6.58,6.06,6.35,8.37,9.37c4.58,5.98,6.87,6.75,8.55,5.47c2.15-1.63-1.01-8.45-2.58-11.05
		c-5.5-9.08-4.18-13.3-0.43-13.92c4.6-0.76,8.29,6.35,9.29,7.71c1,1.36,2.72,0.38,0.98-3.45c0,0-3.33-7.78-5.56-12.24
		c-2.23-4.46,2.47-8.47,4.61-9.86c0.56-0.37,12.1-7.15,13.88-8.37c4.78-3.26,2.73-14.02-5.41-11.71c0,0-2.94,0.74-5.41-0.24
		c-1.91-0.76-8.09-2.12-11.39,0.56s-5.11,4.93-8.24,5.51c-4.54,0.84-9.57,1.32-12.86,6.54c0,0-3.26,5.2-3.92,11.09
		c-0.61,5.38-0.05,17.54,7.11,20.91"/>
	<path class="st7" d="M539.33,535.73c-1.68,1.13-3.99,0.81-8.24,3.73c0,0-3.97,3.04-8.24,1.28c-1.56-0.65-2.12-0.9-3.71-1.94
		c0,0-3.28-1.97-7.14-1.36c-3.42,0.55,0.73-1.14,0.73-1.14l2.16-1.06l4.37-1.63l7.29-1.24l11.16,1.38"/>
	<path class="st0" d="M519.72,579.32"/>
	<path class="st0" d="M461.57,739.59L449.5,643.2c2.36-25.64,12.86-39.9,25.92-52.37c15.94-15.22,42.16-8.33,42.16-8.33
		c50.98,15.95,86.64-48.76,86.64-48.76c6.68-9.38,7.47-12.62,2.93-12.4c-2.76,0.13-63.98,2.59-63.98,2.59l-1.78-9.91
		c0,0,50.67-6.7,68.22-9.72c18.38-3.17,35.69,4.74,15.63,36.41c-6.29,9.93-14.03,24.88-26.43,48.32
		c-12.4,23.43-5.79,76.12-5.79,76.12c-3.53,49.72,39.1,74.45,39.1,74.45H461.57z"/>
	<g>
		<path class="st4" d="M511.74,537.57c4.87-2.52,12.21,0.23,12.21,0.23c3.47,1.2,6.5-0.79,8.14-1.45l9.96-4.59
			c4.72-1.91,7.49-8.09,5.1-13.99c-0.86-2.13-3.48-8.38-5.01-9.7c-2.72-2.34-5.65-3.27-8.67-2.05l-13.48,6.35
			c-2.68,1.09-3.94,2.69-3.95,5.51c0,0,1.14,10.95-2.82,13.34l-25.48,14.65c0,0-0.79,0.29-0.51,1.1c0.44,1.29,1.94,3.53,2.45,3.27
			c0.68-0.35,8.39-4.97,11.31-6.9c0.18-2.13,1.42-3.28,3.23-3.58c1.03-0.17,1.9,0.12,2.69,0.44L511.74,537.57z"/>
	</g>
	<path class="st3" d="M592.95,421.76c0,0-0.48-6.42,5.02-6.64c1.78-0.07,6.76-0.14,7.87,3.73c0.36,1.26,1.06,10.65-0.08,12.1
		c-1.14,1.45-5.99,7.36-5.99,7.36l-6.82,2.4V421.76z"/>
	<path class="st4" d="M587.49,739.5h133.97v-74.73c0-71.01-63.5-67.17-63.5-67.17s-40.09-1.61-43.95-25.97
		c-0.3-3.26-11.14-114.96-12.46-133.69l-14.07-0.03V739.5z"/>
	<path class="st3" d="M646.35,603.52l4.66-32.57c0,0,1.26-6.28-4.74-14.94c-2.08-3-0.21-4.42,0.76-5.51
		c0.97-1.09,0.95-2.34,1.72-2.76c0,0,0.28-0.17,0.57-0.09c0.29,0.08,0.69-0.02,0.75-0.06c0.06-0.04,0.18-0.51,0.11-0.73
		c-0.18-0.6,0.2-0.91,0.2-0.91c0.36-0.27,1.79-0.99,2.37-1.4c0.55-0.39,0.45-0.91,0.45-0.91c-0.27-1.52-0.82-1.83-1.01-2.25
		c-0.63-1.41,0.89-1.7,0.89-1.7s4.24-0.52,10.19-3.26c2.27-1.04,5.4-2.59,8.89-3.22c3.88-0.7,16.15,4.34,19.69,18.68
		c3.54,14.33-10.22,19.3-16.56,19.96c0,0-5.65,1.35-8.95,2.84c-5.81,2.63-2.73,28.28-2.73,28.28s6.39,15.92-11.15,16.3
		C644.29,619.44,646.35,603.52,646.35,603.52z"/>
	<path class="st6" d="M301.4,689.71l1.07,49.89h159.1h29.8c0,0-9.02-32.58-11.52-60.86c0,0-2.87-56.44-23.04-70.34
		c0,0-20.34-22.78-98.46-13.55C358.34,594.85,300.33,604.26,301.4,689.71z"/>
	<path class="st1" d="M398.52,571.61v-8.94c0,0,0.05-1.47,0-3.33c-0.05-1.86-1.24-1.91-1.24-1.91c-1.7,0.02-4.74-0.13-4.74-0.13
		c-3.54-0.34-0.68-5.23-0.79-6.73s-1.04-2.32-0.81-3.23c0,0,0.08-0.34,0.34-0.53c0.26-0.19,0.47-0.57,0.49-0.65
		s-0.07-0.54-0.46-0.57c-0.9-0.07-0.78-1.01-0.78-1.01c0.06-0.47,0.6-1.47,0.8-2.19c0.23-0.83-0.23-1.77-0.23-1.77
		c-0.56-0.21-1.48-0.42-1.88-0.6c0,0-2.12-0.59-1.89-1.16c1.43-3.45,4.01-14.56,4.01-14.56c0.67-5.88,3.97-10.11,6.68-12.56
		c3.53-3.2,13.36-3.39,26.35,3.16c13,6.55,6.92,21.05,2.94,26.66c0,0-8.36,3.3-7.65,13.65l-0.83,26.19c0,0-0.55,14.19,0,16.75
		c0.55,2.56,0.66,8.13-4.09,8.68c-4.75,0.55-18.64,0.02-19.01-3.19s1.61-6.34,1.96-9.55C398.29,588.85,398.52,571.61,398.52,571.61z
		"/>
	<path class="st4" d="M418.29,537.89c0,0,2.94,1.35,0.56,5.99c-2.38,4.64-6.11,24.68,3.36,18.66c6.85-4.36,14.71-1.34,14.71-1.34
		s7.78,0.88,6.52-7.53c0,0-0.63-4.39,2.89-7.15c3.51-2.76,1.13-8.15,1.13-8.15s-3.39-4.77-0.88-8.03c2.51-3.26,5.65-7.78,2.63-11.42
		c-3.01-3.64-8.28-4.39-8.28-4.39s-6.15-2.13-8.28-8.78c-2.13-6.65-8.03-10.66-17.69-8.66c0,0-4.89,0.75-7.65,0.38
		c-2.76-0.38-11.29,1.38-11.42,7.03c-0.13,5.65,1.51,6.52,1.51,6.52s1,1.76,0.5,4.27c-0.5,2.51,0,6.15,6.27,8.41
		c6.27,2.26,6.27,7.03,6.02,8.15s-3.32,4.27-2.01,7.4c0.51,1.22,3.14,3.51,6.9-0.5C415.09,538.74,416.59,536.76,418.29,537.89z"/>
	<polygon class="st0" points="609.56,504.31 586.93,507.76 586.47,522.19 610.26,521.65 	"/>
	<path class="st1" d="M671.43,275.13c0,0-6.15-2.85-10.5-0.89c-3.67,1.65-9.63,7.13-10.54,10.6c-2.45,9.29,7.07,11.71,8.5,8.72
		c3.5-7.28,12.24-10.1,12.24-10.1s24.15-6.74,20.86-7.07C688.33,276.03,671.43,275.13,671.43,275.13z"/>
	<circle class="st0" cx="522.28" cy="528.3" r="1.58"/>
	<path class="st4" d="M677.46,172.3c0.51,0.14,1.08-0.11,1.25,0.2s1.09,3.69,0.63,4.56c-0.46,0.87-1.55,2.22-3.67,1.74
		c-2.13-0.48-3.54-1.64-3.44-3.38c0.1-1.74,0.11-3.21-0.01-4.28c-0.12-1.06-0.33-3.04,0.06-4.02c0.4-0.99,1.53-1.39,2.26-1.42
		c0.72-0.02,2.27,0.3,2.78-0.07c0.51-0.36,1.47-0.63,1.81-0.54c0.34,0.1,0.64,0.75,0.36,1.14s-1.42,0.87-1.83,0.94
		s-1.5,0.58-1.62,1.59C675.92,169.71,675.6,171.77,677.46,172.3z"/>
	
		<rect x="844.46" y="488.04" transform="matrix(-1 4.526500e-11 -4.526500e-11 -1 1695.5073 982.664)" class="st17" width="6.59" height="6.59"/>
	<path class="st0" d="M817.06,442.32"/>
	<path class="st0" d="M816.99,432.68"/>
	<path class="st1" d="M473.82,430.04v-27.85c0,0-0.05-1.47,0-3.33c0.05-1.86,1.24-1.91,1.24-1.91c1.7,0.02,4.74-0.13,4.74-0.13
		c3.54-0.34,0.68-5.23,0.79-6.73s1.04-2.32,0.81-3.23c0,0-0.08-0.34-0.34-0.53s-0.47-0.57-0.49-0.65s0.25-0.48,0.46-0.57
		c0.57-0.25,0.53-0.76,0.53-0.76c-0.06-0.47-0.45-1.69-0.55-2.43c-0.09-0.64,0.38-0.77,0.38-0.77c0.56-0.21,1.46-0.64,1.86-0.82
		c2.2-1,0.18-3.18,0.18-3.18s-2.04-4.05-2.91-9.31c-0.96-5.84-1.78-7.61-3.75-10.69c-2.29-3.58-15.83-9.27-28.82-2.72
		c-13,6.55-6.92,21.05-2.94,26.66c0,0,8.36,3.3,7.65,13.65v22.76v20.41c0,0,0.44,11.35,13.08,8.68
		C476.64,444.29,473.82,430.04,473.82,430.04z"/>
	<path class="st18" d="M456.4,378.19c0,0,6.75,14.95,28.35,9.78"/>
	<path class="st12" d="M452.67,394.74c2.89-1.44-2.01-17.88-1.04-22.1c1.14-4.99,7.04-3.1,9.12,0.55c1.8,3.17,4.75,6.17,3.7,1.79
		c-1.05-4.38,2.53-9.57,2.53-9.57c1.88-2.74,7.56-4.67,9.88-4.44c2.32,0.23,5.54-0.94,5.5-5.3c-0.04-4.32-2.35-6.21-3.93-8.02
		c-1.59-1.81-2.15-3.32-5.54-5.59c-3.28-2.19-6.82-1.48-10.49,1.46s-5.67,1.96-11.1,1.73c0,0-7.36-0.5-10.43,5.21
		c0,0-1.98,4.19-3.2,10.51c0,0-1.21,5.22-3.74,9.82c-2.53,4.59-0.02,13.14,5.41,14.57c0,0,4.59,1.71,5.29,4.5
		C445.33,392.65,447.34,397.39,452.67,394.74z"/>
	<path class="st4" d="M453.58,365.78l-0.3-20.53h5.83l0.3,20.53c0,0,0.04,2.2,3.74,6.58l-6.75,5.82l-6.04-5.51
		C450.36,372.67,453.29,370.23,453.58,365.78z"/>
	<circle class="st4" cx="456.9" cy="378.63" r="8.85"/>
	<path class="st3" d="M490.29,549.87"/>
	<path class="st1" d="M816.79,465.81"/>
	<path class="st3" d="M730.33,480.74c-12.8,0-11.39-28.41-11.39-28.41l0.75-30.32c-1.42,0.42-6.09,1.93-6.09,1.93
		c-3.14,0.54-3.56-1.75-4.05-3.13s-1.49-1.92-1.53-2.82c0,0-0.03-0.34,0.15-0.57c0,0,0.34-0.56-0.3-1.15
		c-0.41-0.37-0.64-0.59-0.64-0.59c-0.08-0.45-0.11-2.1-0.21-2.82c-0.1-0.68-0.55-0.82-0.55-0.82c-1.29-0.42-1.74-0.05-2.14-0.06
		c-1.34-0.04-1-1.57-1-1.57s1.18-4.17,1.25-10.9c0.03-2.57-0.02-6.16,0.79-9.68c0.9-3.91,9.45-13.08,22.04-10.04
		c12.59,3.04,11.35,18.01,9.51,24.19c0,0-1.97,8.56-2.06,12.28s-0.68,37.83-0.68,37.83v21.54
		C734.16,475.63,734.77,480.74,730.33,480.74z"/>
	<path class="st4" d="M707.76,385.67c0,0,5.02-4.4,9.08-0.33c2.55,2.56,1.96,8.51,4.26,11.17c2.39,2.77,6.58,2.95,6.72,8.77
		c0.14,5.82-4.95,35.87,7.58,42.63l8.95-46.94l-5.51-13.94l-8.75-8.87l-15.35-4.36L707.76,385.67z"/>
	<circle class="st19" cx="712.62" cy="400.25" r="5.26"/>
	<path class="st4" d="M666.26,531.61l7.28,16.3l-15.59,10.8l12.66,23.92c0,0,28.6-2.05,29.89-21.58
		c1.02-15.37-8.94-37.88-32.14-30.61"/>
	<path class="st3" d="M731.01,480.74"/>
	<circle class="st16" cx="287.29" cy="465.98" r="14.42"/>
	<line class="st16" x1="267.56" y1="402.14" x2="267.56" y2="431.83"/>
	<line class="st16" x1="272.87" y1="416.08" x2="272.87" y2="431.83"/>
	<line class="st16" x1="278.18" y1="421.28" x2="278.18" y2="431.83"/>
	<line class="st16" x1="288.8" y1="416.98" x2="288.8" y2="431.83"/>
	<line class="st16" x1="283.49" y1="411.6" x2="283.49" y2="431.83"/>
	<line class="st20" x1="313.25" y1="448.01" x2="328.23" y2="448.01"/>
	<line class="st20" x1="313.25" y1="451.08" x2="327.16" y2="451.08"/>
	<line class="st20" x1="313.25" y1="454.15" x2="328.23" y2="454.15"/>
	<line class="st20" x1="313.25" y1="457.21" x2="325.02" y2="457.21"/>
	<line class="st20" x1="313.25" y1="460.28" x2="328.23" y2="460.28"/>
	<line class="st20" x1="313.25" y1="463.34" x2="326.09" y2="463.34"/>
	<line class="st20" x1="313.25" y1="466.41" x2="328.23" y2="466.41"/>
	<line class="st20" x1="313.25" y1="469.48" x2="326.09" y2="469.48"/>
	<line class="st20" x1="313.25" y1="472.54" x2="328.23" y2="472.54"/>
	<line class="st20" x1="313.25" y1="475.61" x2="328.23" y2="475.61"/>
	<polyline class="st16" points="287.29,451.56 287.29,466.64 299.05,457.63 	"/>
	<circle class="st6" cx="373.55" cy="372.66" r="1.9"/>
	<circle class="st6" cx="367.42" cy="372.66" r="1.9"/>
	<circle class="st6" cx="361.3" cy="372.66" r="1.9"/>
	<line class="st16" x1="305.28" y1="399.75" x2="310.03" y2="399.75"/>
	<line class="st16" x1="313.25" y1="399.75" x2="318" y2="399.75"/>
	<circle class="st20" cx="347.4" cy="476.17" r="4.6"/>
	<path class="st21" d="M374.03,468.83h-30.54c-0.97,0-1.76-0.79-1.76-1.76v-19.04c0-0.97,0.79-1.76,1.76-1.76h30.54
		c0.97,0,1.76,0.79,1.76,1.76v19.04C375.79,468.04,375,468.83,374.03,468.83z"/>
	<circle class="st16" cx="366.29" cy="456.51" r="4.99"/>
	<path class="st22" d="M374.03,495.45h-30.54c-0.97,0-1.76-0.79-1.76-1.76v-19.04c0-0.97,0.79-1.76,1.76-1.76h30.54
		c0.97,0,1.76,0.79,1.76,1.76v19.04C375.79,494.67,375,495.45,374.03,495.45z"/>
	<circle class="st16" cx="366.29" cy="483.13" r="4.99"/>
	<path class="st22" d="M374.03,522.34h-30.54c-0.97,0-1.76-0.79-1.76-1.76v-19.04c0-0.97,0.79-1.76,1.76-1.76h30.54
		c0.97,0,1.76,0.79,1.76,1.76v19.04C375.79,521.55,375,522.34,374.03,522.34z"/>
	<circle class="st16" cx="366.29" cy="510.01" r="4.99"/>
	<path class="st3" d="M352.31,465.15c-1.15-1.95-3.68-3.71-5.05-3.97c0.92-3.29,2.31-6.5,3.87-9.68c0.26-0.53,0.12-1.19-0.36-1.55
		c-0.52-0.39-1.24-0.26-1.61,0.29l0,0c-2.27,3.37-4.46,6.98-6.02,11.01c-1.58,4.01-2.48,8.41-2.66,12.85l0,0.03
		c0,0.01,0,0.01,0,0.02c-0.22,2.25,0.54,9.2,0.54,9.2s9.43,0.51,10.01-0.05s2.9-8.76,3.43-10.95
		C355.11,469.7,353.67,467.44,352.31,465.15z"/>
	<g>
		<g>
			<g>
				<path class="st3" d="M262.84,584.45l-1.84-21.48c-0.93-8.06,1.65-9.49,1.65-9.49c1.4-0.97,3.8-2.84,3.8-2.84
					c2.77-2.4-2.54-4.77-3.35-6.1c-0.8-1.33-0.49-2.64-1.22-3.26c0,0-0.25-0.18-0.62-0.15c-0.33,0.03-0.5-0.23-0.56-0.29
					c-0.06-0.05-0.32-0.53-0.19-0.72c0.38-0.58-0.02-0.94-0.02-0.94c-0.32-0.36-1.37-1.16-1.89-1.72c-0.45-0.49-0.14-0.86-0.14-0.86
					c0.33-0.5,0.85-1.36,1.03-1.77c1.32-2.97-1.74-2.77-1.74-2.77s-3.32-0.4-7.14-4.31c-4.24-4.34-5.89-5.47-9.33-6.92
					c-3.99-1.68-19.23-0.34-25.96,12.65s6.82,21.64,13.4,24.05c0,0,8.73,1.43,14.28,10.53c0,0,1.65,3.31,1.17,14.44v12.93
					l17.14-7.19L262.84,584.45z"/>
				<path class="st4" d="M228.96,550.06c-2.03-4.85,1.3-8.86,5.5-8.12c4.19,0.74,5.75,7.76,6.06,3.27c0.31-4.49-2.43-7.25-3.3-10.06
					c-0.87-2.8,2.16-8.93,4.19-10.08c2.03-1.15,5.53-5.33,3.3-9.17c-2.23-3.84-4.79-4.02-7.15-4.63s-3.6-0.45-7.35,0.78
					c-3.75,1.23-12.98,0.2-14.23,4.79c-1.25,4.59-1.03,6-5.61,8.94c-4.57,2.95-5.9,6.87-6,10.93c-0.1,4.06,2.65,8.81,3.34,10.31
					s2.35,5.6,7.71,8.93c3.62,2.25,5.89,3.7,10.2,5.71c5.13,2.39,16.18,11.18,17.6,8.25C244.63,567,230.67,554.15,228.96,550.06z"/>
			</g>
			<path class="st6" d="M183.85,702.16"/>
		</g>
		<path class="st12" d="M359.74,522.1c-0.43-6.91-1.2-13.69-2.47-20.31c-0.54-3.33-1.33-6.59-2.04-9.85
			c-0.33-1.63-0.8-3.23-1.21-4.84l-1.26-4.81c-0.7-2.69-3.21-4.62-6.1-4.47c-3.31,0.16-5.87,2.98-5.7,6.29l0.01,0.25l0.23,4.71
			c0.06,1.57,0.19,3.13,0.18,4.69c0.02,3.12,0.12,6.23-0.03,9.32c-0.1,6.18-0.71,12.27-1.57,18.2
			c-1.82,11.83-5.36,23.01-10.91,32.14c-5.55,9.15-13.02,16.06-21.72,20.62c-4.48,2.35-9.3,4.12-14.31,5.37
			c-22.49,4.42-44.05,1.34-44.05,1.34c-28.84-4.96-41.23,14.66-41.23,14.66c-22.01,27.29-23,91.84-12.45,144.19h18.4
			c0,0-10-67.5-2.62-79.26c10.03-15.99,9.47,24.25,9.47,24.25v55.01h125.48c-40.92-86.54,1.68-159.56,1.68-159.56l-0.01,0
			c2.82-4.91,5.13-10.02,6.91-15.19c2.48-7.17,3.99-14.44,4.79-21.6l0.31-2.68l0.17-2.67c0.09-1.78,0.26-3.55,0.24-5.31
			c0.01-1.76,0.04-3.52,0.03-5.27L359.74,522.1z"/>
	</g>
	<linearGradient id="SVGID_4_" gradientUnits="userSpaceOnUse" x1="630.0469" y1="416.1987" x2="753.5893" y2="416.1987">
		<stop  offset="0" style="stop-color:#FFFFFF;stop-opacity:0.6"/>
		<stop  offset="0.888" style="stop-color:#FFFFFF;stop-opacity:0"/>
	</linearGradient>
	<rect x="630.05" y="389.98" class="st23" width="123.54" height="52.44"/>
	<path class="st4" d="M33.86,479.37H18.21c-2.06,0-3.73-1.67-3.73-3.73V430.5c0-2.06,1.67-3.73,3.73-3.73h15.65
		c2.06,0,3.73,1.67,3.73,3.73v45.15C37.58,477.7,35.92,479.37,33.86,479.37z"/>
	<rect x="14.48" y="432.3" class="st6" width="23.1" height="40.05"/>
	<rect x="24.58" y="449.09" class="st4" width="2" height="2"/>
	<polygon class="st4" points="34.6,447.08 34.6,445.08 32.59,445.08 32.59,443.08 30.59,443.08 30.59,445.08 30.59,447.08 
		32.59,447.08 	"/>
	<polygon class="st4" points="30.59,447.08 28.59,447.08 28.59,445.08 28.59,443.08 26.58,443.08 26.58,445.08 24.58,445.08 
		24.58,443.08 22.58,443.08 22.58,445.08 22.58,447.08 24.58,447.08 26.58,447.08 26.58,449.09 28.59,449.09 28.59,451.09 
		26.58,451.09 26.58,453.09 28.59,453.09 28.59,454.8 30.59,454.8 30.59,456.8 30.59,458.8 32.59,458.8 32.59,460.81 32.59,462.81 
		34.6,462.81 34.6,460.81 34.6,458.8 34.6,456.8 32.59,456.8 32.59,454.8 34.6,454.8 34.6,452.8 32.59,452.8 32.59,451.09 
		30.59,451.09 30.59,449.09 	"/>
	<rect x="32.59" y="449.09" class="st4" width="2" height="2"/>
	<polygon class="st4" points="22.58,458.8 22.58,456.8 20.58,456.8 20.58,454.8 20.58,453.09 22.58,453.09 22.58,454.8 22.58,456.8 
		24.58,456.8 26.58,456.8 28.59,456.8 28.59,454.8 26.58,454.8 24.58,454.8 24.58,453.09 24.58,452.8 24.58,451.09 22.58,451.09 
		22.58,449.09 22.58,447.08 20.58,447.08 20.58,445.08 20.58,443.08 18.57,443.08 18.57,445.08 18.57,447.08 18.57,449.09 
		20.58,449.09 20.58,451.09 18.57,451.09 18.57,452.8 18.57,453.09 18.57,454.8 18.57,456.8 18.57,458.8 20.58,458.8 20.58,460.81 
		18.57,460.81 18.57,462.81 20.58,462.81 22.58,462.81 24.58,462.81 24.58,460.81 22.58,460.81 	"/>
	<polygon class="st4" points="26.58,458.8 24.58,458.8 24.58,460.81 26.58,460.81 28.59,460.81 28.59,462.81 30.59,462.81 
		30.59,460.81 30.59,458.8 28.59,458.8 	"/>
	<path class="st1" d="M34.87,490.25c0,0,0.65-4.49,2.46-7.88c0.8-1.5,4.48-6.19,3.46-10.62c-0.69-3.03-3.91-17.64-6.81-18.15
		s-1.46,4.73-1.26,5.85s3,12.55,1.26,16.33c-1.74,3.79-12.64,3.63-12.64,3.63l-0.52,11.72L34.87,490.25z"/>
	<circle class="st4" cx="486.05" cy="387.64" r="1.76"/>
	<path class="st24" d="M740.57,189.9l-21.93-16.86c-1.41-1.08-1.41-3.2,0-4.28l21.93-16.86c2.18-1.67,5.2-1.67,7.38,0l21.93,16.86
		c1.41,1.08,1.41,3.2,0,4.28l-21.93,16.86C745.78,191.57,742.75,191.57,740.57,189.9z"/>
	<path class="st25" d="M740.57,149.38l-21.93-16.86c-1.41-1.08-1.41-3.2,0-4.28l21.93-16.86c2.18-1.67,5.2-1.67,7.38,0l21.93,16.86
		c1.41,1.08,1.41,3.2,0,4.28l-21.93,16.86C745.78,151.06,742.75,151.06,740.57,149.38z"/>
	<path class="st26" d="M740.57,169.64l-21.93-16.86c-1.41-1.08-1.41-3.2,0-4.28l21.93-16.86c2.18-1.67,5.2-1.67,7.38,0l21.93,16.86
		c1.41,1.08,1.41,3.2,0,4.28l-21.93,16.86C745.78,171.31,742.75,171.31,740.57,169.64z"/>
	<rect x="875.77" y="476.19" class="st12" width="39.67" height="47.7"/>
	<path class="st27" d="M424.91,739.5c4.42-67.3,12.91-145.57,12.99-146.39l-8.51-0.93c-0.09,0.82-8.65,79.7-13.06,147.31H424.91z"/>
	<path class="st4" d="M440.42,739.59c-2.46-95.19-2.49-146.43-2.49-146.95h-8.56c0,0.52,0.03,51.77,2.48,146.95H440.42z"/>
	<path class="st1" d="M444.51,650.58c-0.57-5.1-1.28-11.22-8.43-11.98c-7.15-0.75-11.94,5.77-10.44,13.49s6.43,9.62,9.37,9.24
		c3.24-0.42,6.5,4.74,8.28-0.81C445.07,654.96,444.51,650.58,444.51,650.58z"/>
	<path class="st3" d="M865.02,306.38l-0.17-21.25c-0.62-10.04,5.87-17.83,5.87-17.83c3.46-5.45,8.74-19.51-2.55-25.87
		c-11.29-6.35-22.23,1.67-24.16,5.19c-1.74,3.17-2.12,7.11-2.51,9.65c-0.77,5.1-3.7,9.09-3.7,9.09s-0.77,0.73-0.29,1.2
		c0.29,0.28,1.14,0.6,1.62,0.8c0,0,0.41,0.12,0.33,0.74c-0.09,0.72-0.43,1.9-0.48,2.36c0,0-0.04,0.5,0.46,0.74
		c0.19,0.09,0.41,0.48,0.4,0.56s-0.19,0.45-0.42,0.63s-0.3,0.51-0.3,0.51c-0.21,0.88,0.6,1.67,0.7,3.13
		c0.1,1.46-1.41,4.79,1.76,5.14c0,0,2.64,0.14,4.12,0.12v6.49l-1.04,16.21c0,0,0.07,8.39,6.89,8.38
		C857.64,312.34,865.06,311.12,865.02,306.38z"/>
	<path class="st13" d="M845.71,281.28c0,0,4.81-0.11,6.91-0.7c2.1-0.59,2.03,1.64,0.52,2.82c-1.51,1.18-3.73,2.36-7.44,3.54V281.28z
		"/>
	<path class="st4" d="M841.91,253.54c0,0-3.09-11.58,7.14-20.77c2.63-2.37,9.98-8.35,13.07-9.48c8.87-3.26,19.36,3.67,19.36,3.67
		s16.72,11.33,9.69,27.9c0,0-5.78,6.02-6.79,10.19s-8.2,6.66-13.4,9.35c-5.2,2.7-6.46-0.63-6.31-2.36c0.14-1.72-5.85-8.36-6.13-9.16
		c0,0-10.6-13.65-12.83-14.64C845.71,248.26,843.73,249.64,841.91,253.54z"/>
	<path class="st3" d="M859.64,264.43c0,0,1.86-1.69,2.82-1.71c1.12-0.02,4.99,0.95,2.21,9.33l-3.55,0.38l-2.18-3.52L859.64,264.43z"
		/>
	<path class="st4" d="M915.43,314.46c-11.16-9.93-23.35-15.4-32.62-17.65c-14.05-3.6-31.71,3.81-31.71,3.81l-28.16,9.15
		c0,0-13.87,4.89-21.13,7.78c0,0-17.5,5.45-20.57,20.7c-2.75,13.66-1.33,28.42-2.12,41.63v160.19L914.69,537
		c0,0,0.26-1.16,0.74-3.26V314.46z"/>
	<path class="st0" d="M915.43,704.89c0,0,0-203.35,0-241.03c0-30.92-33.19-28.69-33.19-28.69H857.7c0,0-20.19,0.75-20.19-9.03
		c0,0-57.21,38.28-74.82,49.65c-18.97,12.25-18.43,37.67-18.43,37.67v194.79l169.9-3.36"/>
	<path class="st1" d="M836.4,457.15l-0.1-48.91c5.11-11.25,5.06-11.58,6.14-20.82c0.73-6.25,5.74-11.14,12.01-11.66
		c5.31-0.44-7.96-6.78-15.5-10.58c-13-6.55-26.22,0.94-28.51,4.53c-1.97,3.08-3.72-0.36-4.51,5.51c0,0-1.3,11.7-2.16,13.97
		c-0.85,2.27-1.25,2.61,0.8,3.25c0.42,0.13,0.78,0.02,1.33,0.23c0,0,0.09-0.64,0,0c-0.1,0.74-0.67,3.71-0.72,4.18l1.31,1.19
		c-0.01,0.07-0.16,0.49-0.42,0.68c-0.26,0.19-0.38,0.91-0.38,0.91c-0.24,0.91,0.53,1.99,0.64,3.5c0.11,1.51-1.42,6.27,2.98,5.59
		c0,0,4.08-0.83,5.78-0.85c0,0,6.19-2.77,5.39,6.58l-3.67,51.38c0,0-0.96,4.53,1.62,5.5C820.99,472.28,836.43,473.13,836.4,457.15z"
		/>
	<path class="st4" d="M842.41,415.6c0-3.25-1.54-6.13-3.92-7.98c2.38-1.85,3.92-4.73,3.92-7.98c0-3.74-2.04-7-5.05-8.74
		c-3.02,1.75-5.05,5-5.05,8.74c0,3.25,1.54,6.13,3.92,7.98c-2.38,1.85-3.92,4.73-3.92,7.98c0,3.25,1.54,6.13,3.92,7.98
		c-2.38,1.85-3.92,4.73-3.92,7.98c0,3.11,1.42,5.88,3.64,7.73c-2.21,1.85-3.64,4.62-3.64,7.73c0,3.11,1.42,5.88,3.64,7.73
		c-2.21,1.85-3.64,4.62-3.64,7.73c0,3.11,1.42,5.88,3.64,7.73c-2.21,1.85-3.64,4.62-3.64,7.73c0,3.74,2.04,7,5.05,8.74
		c3.02-1.75,5.05-5,5.05-8.74c0-3.11-1.42-5.88-3.64-7.73c2.21-1.85,3.64-4.62,3.64-7.73c0-3.11-1.42-5.88-3.64-7.73
		c2.21-1.85,3.64-4.62,3.64-7.73c0-3.11-1.42-5.88-3.64-7.73c2.21-1.85,3.64-4.62,3.64-7.73c0-3.25-1.54-6.13-3.92-7.98
		C840.87,421.73,842.41,418.85,842.41,415.6z"/>
	<path class="st4" d="M805.78,376.44c0,0,8.75-7.84,17.93,0.31c5.5,4.87-0.58,19.69,17.89,18.41l21.74,3.94l7.63-21.81l-11.26-14.71
		l-15.47-9.04l-18.64-6.06l-17.17,4.64l-5.35,17.47L805.78,376.44z"/>
	<path class="st4" d="M838.41,503.91c1.92-3.55,1.66-7.7-0.3-10.91c-3.77,0.11-7.38,2.16-9.3,5.71c-1.92,3.55-1.66,7.7,0.31,10.91
		C832.87,509.51,836.48,507.47,838.41,503.91z"/>
	<path class="st4" d="M827.48,504.18c0,0,0.7,4.15-2.6,4.55c0,0,0.51,0.91,4.22,0.89l1.88-4.08L827.48,504.18z"/>
	<path class="st2" d="M870.98,295.83c0,0-6.02-10.32-6.08-4.83c-0.29,27.33-7.7,36.98-10.66,39.52
		c-10.51,9.07-10.04-23.73-9.47-26.85c0.57-3.12-1.57-7.77-2.69-1.09c-1.12,6.68-6.2,31.06,0.33,43.69
		c5.43,10.5,12.2,8.73,17.31,3.19C863.98,344.83,875.16,318.21,870.98,295.83z"/>
	<path class="st11" d="M850.88,535h-40.3v13.02h-9.84v11.9h-6.06v-31.27l-67.3,44.34v29.39h-28.96v35.35
		c-17.34,0-31.4,15.11-31.4,33.75v4.77v63.25h31.4h217.01V458.21h-39.67v38.5h-24.88"/>
	<rect x="623.22" y="694.75" class="st2" width="55.25" height="44.85"/>
	<rect x="850.88" y="512.76" class="st12" width="64.55" height="226.84"/>
	<polygon class="st6" points="860.72,571.56 860.72,560.49 850.88,560.49 850.88,548.37 810.58,548.37 810.58,560.49 800.74,560.49 
		800.74,571.56 794.6,571.56 794.6,739.59 866.86,739.59 866.86,571.56 	"/>
	<g>
		<rect x="803.61" y="587.71" class="st11" width="6.61" height="6.61"/>
		<rect x="835.13" y="587.71" class="st11" width="6.61" height="6.61"/>
	</g>
	<g>
		<rect x="803.61" y="604.45" class="st11" width="6.61" height="6.61"/>
		<rect x="819.37" y="604.45" class="st11" width="6.61" height="6.61"/>
		<rect x="835.13" y="604.45" class="st11" width="6.61" height="6.61"/>
	</g>
	<g>
		<rect x="803.61" y="621.19" class="st11" width="6.61" height="6.61"/>
		<rect x="835.13" y="621.19" class="st11" width="6.61" height="6.61"/>
		<rect x="850.89" y="621.19" class="st11" width="6.61" height="6.61"/>
	</g>
	<g>
		<rect x="803.61" y="637.92" class="st11" width="6.61" height="6.61"/>
		<rect x="819.37" y="637.92" class="st11" width="6.61" height="6.61"/>
		<rect x="835.13" y="637.92" class="st11" width="6.61" height="6.61"/>
	</g>
	<g>
		<rect x="835.13" y="654.66" class="st11" width="6.61" height="6.61"/>
		<rect x="850.89" y="654.66" class="st11" width="6.61" height="6.61"/>
	</g>
	<g>
		<rect x="819.37" y="671.4" class="st11" width="6.61" height="6.61"/>
		<rect x="835.13" y="671.4" class="st11" width="6.61" height="6.61"/>
		<rect x="850.89" y="671.4" class="st11" width="6.61" height="6.61"/>
	</g>
	<g>
		<rect x="819.37" y="688.14" class="st11" width="6.61" height="6.61"/>
		<rect x="850.89" y="688.14" class="st11" width="6.61" height="6.61"/>
	</g>
	<g>
		<rect x="859.42" y="529.45" class="st28" width="7.8" height="15.51"/>
		<rect x="878.11" y="529.45" class="st28" width="7.8" height="15.51"/>
		<rect x="878.11" y="556.41" class="st28" width="7.8" height="15.51"/>
		<rect x="896.8" y="556.41" class="st28" width="7.8" height="15.51"/>
		<rect x="878.11" y="583.37" class="st28" width="7.8" height="15.51"/>
		<rect x="896.8" y="583.37" class="st28" width="7.8" height="15.51"/>
		<rect x="896.8" y="610.34" class="st28" width="7.8" height="15.51"/>
		<rect x="878.11" y="637.3" class="st28" width="7.8" height="15.51"/>
		<rect x="896.8" y="664.26" class="st28" width="7.8" height="15.51"/>
		<rect x="878.11" y="691.22" class="st28" width="7.8" height="15.51"/>
	</g>
	<g>
		<polygon class="st4" points="727.38,739.59 794.68,739.59 794.68,542.46 727.38,583.71 		"/>
		<rect x="735.39" y="586.18" class="st2" width="2.78" height="58.87"/>
		<rect x="742.34" y="583.37" class="st2" width="2.78" height="61.68"/>
		<rect x="749.28" y="578.73" class="st2" width="2.78" height="66.32"/>
		<rect x="756.23" y="574.69" class="st2" width="2.78" height="83.27"/>
		<rect x="763.18" y="569.92" class="st2" width="2.78" height="82.89"/>
		<rect x="770.12" y="565.94" class="st2" width="2.78" height="79.11"/>
		<rect x="777.07" y="560.86" class="st2" width="2.78" height="84.19"/>
		<rect x="784.02" y="556.32" class="st2" width="2.78" height="88.74"/>
	</g>
	<polygon class="st12" points="833.22,739.59 757.63,739.59 757.63,655.62 795.43,616.08 833.22,655.62 	"/>
	<circle class="st4" cx="794.68" cy="667.73" r="16.9"/>
	<rect x="698.42" y="611.05" class="st6" width="59.21" height="128.54"/>
	<path class="st0" d="M667.03,675.33c0-17.34,14.06-31.4,31.4-31.4s31.4,14.06,31.4,31.4v64.26h-62.79V675.33z"/>
	<rect x="667.03" y="675.33" class="st12" width="62.79" height="4.43"/>
	<path class="st4" d="M678.47,719.43c0-6.26,5.08-11.34,11.34-11.34s11.34,5.08,11.34,11.34v20.16h-22.68V719.43z"/>
	<circle class="st12" cx="837.36" cy="489.31" r="4.25"/>
</g>
<g id="Layer_2" class="st29">
	<g class="st30">
		<rect x="-2864.98" y="256.55" class="st31" width="73.66" height="6233.18"/>
		<rect x="-2762.58" y="256.55" class="st31" width="73.66" height="6233.18"/>
		<rect x="-2660.19" y="256.55" class="st31" width="73.66" height="6233.18"/>
		<rect x="-2557.79" y="256.55" class="st31" width="73.66" height="6233.18"/>
		<rect x="-2455.4" y="256.55" class="st31" width="73.66" height="6233.18"/>
		<rect x="-2353" y="256.55" class="st31" width="73.66" height="6233.18"/>
		<rect x="-2250.61" y="256.55" class="st31" width="73.66" height="6233.18"/>
		<rect x="-2148.21" y="256.55" class="st31" width="73.66" height="6233.18"/>
		<rect x="-2045.82" y="256.55" class="st31" width="73.66" height="6233.18"/>
		<rect x="-1943.43" y="256.55" class="st31" width="73.66" height="6233.18"/>
		<rect x="-1841.03" y="256.55" class="st31" width="73.66" height="6233.18"/>
		<rect x="-1738.64" y="256.55" class="st31" width="73.66" height="6233.18"/>
	</g>
</g>
</svg>
