<?xml version="1.0" encoding="utf-8"?>
<!-- Generator: Adobe Illustrator 23.0.1, SVG Export Plug-In . SVG Version: 6.00 Build 0)  -->
<svg version="1.1" xmlns="http://www.w3.org/2000/svg" xmlns:xlink="http://www.w3.org/1999/xlink" x="0px" y="0px"
	 viewBox="0 0 552.45 444.33" style="enable-background:new 0 0 552.45 444.33;" xml:space="preserve">
<style type="text/css">
	.st0{fill:#B6B6B6;}
	.st1{fill:#E1E1E1;}
	.st2{fill:#25435A;}
	.st3{fill:#FFFFFF;}
	.st4{fill:none;stroke:#052741;stroke-width:3.8608;stroke-linecap:round;stroke-miterlimit:10;}
	.st5{fill:none;stroke:#B6B6B6;stroke-width:5.7913;stroke-linecap:round;stroke-miterlimit:10;}
	.st6{fill:none;stroke:#E1E1E1;stroke-width:0.9652;stroke-miterlimit:10;}
	.st7{fill:#052741;stroke:#25435A;stroke-width:0.9652;stroke-miterlimit:10;}
	.st8{fill:#A47449;}
	.st9{fill:#FC6E4C;}
	.st10{fill:#0A7586;}
	.st11{opacity:0.41;fill:#B6B6B6;}
	.st12{fill:#FEC305;}
	.st13{fill:none;stroke:#FFFFFF;stroke-width:0.9652;stroke-miterlimit:10;}
	.st14{fill:none;stroke:#FFFFFF;stroke-width:0.9652;stroke-miterlimit:10;stroke-dasharray:1.9146,3.8291;}
	.st15{fill:none;stroke:#FFFFFF;stroke-width:0.9652;stroke-miterlimit:10;stroke-dasharray:1.9331,3.8662;}
	.st16{font-family:'MyriadPro-Regular';}
	.st17{font-size:18.4259px;}
	.st18{opacity:0.5;fill:#FFFFFF;}
	.st19{fill:#E9B399;}
	.st20{display:none;}
	.st21{display:inline;opacity:0.08;}
	.st22{fill:#E30613;}
</style>
<g id="Layer_1">
	<path class="st0" d="M521.9,329.51H82.35c-8.52,0-15.43-6.91-15.43-15.43V108.41c0-8.52,6.91-15.43,15.43-15.43H521.9
		c8.52,0,15.43,6.91,15.43,15.43v205.66C537.33,322.6,530.42,329.51,521.9,329.51z"/>
	<path class="st1" d="M502.8,329.51H63.25c-8.52,0-15.43-6.91-15.43-15.43V108.41c0-8.52,6.91-15.43,15.43-15.43H502.8
		c8.52,0,15.43,6.91,15.43,15.43v205.66C518.24,322.6,511.33,329.51,502.8,329.51z"/>
	<rect x="91.14" y="93.17" class="st2" width="375.36" height="236.33"/>
	<rect x="91.14" y="202.56" class="st3" width="68.31" height="126.95"/>
	<g>
		<path class="st2" d="M241.02,120.89v-1.55l10.18-3.53v2.07l-6.95,2.23l6.95,2.25v2.07L241.02,120.89z"/>
		<path class="st2" d="M257.06,124.43v-2.07l6.95-2.25l-6.95-2.23v-2.07l10.18,3.53v1.55L257.06,124.43z"/>
	</g>
	<rect x="249.74" y="294.29" class="st3" width="67.74" height="36.86"/>
	<line class="st4" x1="528.58" y1="200.69" x2="528.58" y2="229.01"/>
	<line class="st5" x1="66.91" y1="195.87" x2="66.91" y2="231.91"/>
	<line class="st6" x1="487.11" y1="163.3" x2="466.5" y2="173.92"/>
	<circle class="st7" cx="528.63" cy="111.56" r="2.08"/>
	<circle class="st7" cx="528.63" cy="117.99" r="2.08"/>
	<circle class="st7" cx="528.63" cy="124.43" r="2.08"/>
	<g>
		<path class="st8" d="M118.49,277.01"/>
	</g>
	<polygon class="st1" points="202.71,170.32 202.71,156.15 143.78,156.15 143.78,170.32 137.39,170.32 137.39,329.51 209.11,329.51 
		209.11,170.32 	"/>
	<polygon class="st9" points="209.48,170.32 209.48,156.15 150.55,156.15 150.55,170.32 144.15,170.32 144.15,329.51 215.87,329.51 
		215.87,170.32 	"/>
	<path class="st10" d="M466.5,223.59c0,0-49.41-9.85-91.05,27.01s-89.1,22.5-89.1,22.5v56.41H466.5V223.59z"/>
	<rect x="204.98" y="216.68" class="st1" width="67.74" height="112.82"/>
	<polygon class="st3" points="336.96,329.51 264.66,329.51 264.66,204.81 336.96,187.57 	"/>
	<path class="st11" d="M66.86,424.47c-32.67,3.99-59.73-1.18-59.73-2.63c0-1.45,32.02-2.82,57.51-4.21c0,0,62.2-1.13,68.56,0.32
		c6.36,1.45-21.14,3.28-20.4,4.58C115.87,427.91,85.67,422.18,66.86,424.47z"/>
	<path class="st12" d="M427.69,92.98c0-6.27,5.08-11.36,11.36-11.36c6.27,0,11.36,5.08,11.36,11.36H427.69z"/>
	<circle class="st12" cx="393.8" cy="41.31" r="11.36"/>
	<circle class="st12" cx="329.2" cy="20.61" r="11.36"/>
	<circle class="st12" cx="269.65" cy="27.97" r="11.36"/>
	<circle class="st12" cx="229.59" cy="51.72" r="11.36"/>
	<circle class="st12" cx="199.48" cy="86.92" r="11.36"/>
	<circle class="st12" cx="184.31" cy="122.76" r="11.36"/>
	<circle class="st12" cx="180.01" cy="156.68" r="11.36"/>
	<rect x="168.15" y="163.82" class="st9" width="36.17" height="16.7"/>
	<g>
		<g>
			<line class="st13" x1="487.11" y1="126.5" x2="486.26" y2="126.95"/>
			<polyline class="st14" points="482.86,128.71 382.94,180.52 276.01,156.77 			"/>
			<polyline class="st13" points="274.14,156.36 273.2,156.15 272.43,156.73 			"/>
			<line class="st15" x1="269.34" y1="159.06" x2="169.12" y2="234.86"/>
			<line class="st13" x1="167.58" y1="236.02" x2="166.81" y2="236.6"/>
		</g>
	</g>
	<g>
		<path class="st9" d="M342.66,75.45h-0.03l-1.42,0.76l-0.21-0.84l1.78-0.95h0.94v8.15h-1.07V75.45z"/>
		<path class="st9" d="M349.73,75.45h-0.03l-1.42,0.76l-0.21-0.84l1.78-0.95h0.94v8.15h-1.07V75.45z"/>
		<path class="st9" d="M359.81,78.41c0,2.77-1.03,4.3-2.83,4.3c-1.59,0-2.67-1.49-2.7-4.19c0-2.73,1.18-4.24,2.83-4.24
			C358.84,74.29,359.81,75.82,359.81,78.41z M355.39,78.54c0,2.12,0.65,3.32,1.66,3.32c1.13,0,1.67-1.32,1.67-3.4
			c0-2.01-0.51-3.32-1.66-3.32C356.09,75.14,355.39,76.32,355.39,78.54z"/>
		<path class="st9" d="M363.86,75.45h-0.03l-1.42,0.76l-0.21-0.84l1.78-0.95h0.94v8.15h-1.07V75.45z"/>
		<path class="st9" d="M373.94,78.41c0,2.77-1.03,4.3-2.83,4.3c-1.59,0-2.67-1.49-2.7-4.19c0-2.73,1.18-4.24,2.83-4.24
			C372.96,74.29,373.94,75.82,373.94,78.41z M369.52,78.54c0,2.12,0.65,3.32,1.66,3.32c1.13,0,1.67-1.32,1.67-3.4
			c0-2.01-0.51-3.32-1.66-3.32C370.22,75.14,369.52,76.32,369.52,78.54z"/>
		<path class="st9" d="M381.01,78.41c0,2.77-1.03,4.3-2.83,4.3c-1.59,0-2.67-1.49-2.7-4.19c0-2.73,1.18-4.24,2.83-4.24
			C380.03,74.29,381.01,75.82,381.01,78.41z M376.58,78.54c0,2.12,0.65,3.32,1.66,3.32c1.13,0,1.67-1.32,1.67-3.4
			c0-2.01-0.51-3.32-1.66-3.32C377.28,75.14,376.58,76.32,376.58,78.54z"/>
		<path class="st9" d="M388.07,78.41c0,2.77-1.03,4.3-2.83,4.3c-1.59,0-2.67-1.49-2.7-4.19c0-2.73,1.18-4.24,2.83-4.24
			C387.09,74.29,388.07,75.82,388.07,78.41z M383.64,78.54c0,2.12,0.65,3.32,1.66,3.32c1.13,0,1.67-1.32,1.67-3.4
			c0-2.01-0.51-3.32-1.66-3.32C384.35,75.14,383.64,76.32,383.64,78.54z"/>
		<path class="st9" d="M358.83,93.47c0,2.77-1.03,4.3-2.83,4.3c-1.59,0-2.67-1.49-2.7-4.19c0-2.73,1.18-4.24,2.83-4.24
			C357.86,89.34,358.83,90.87,358.83,93.47z M354.41,93.6c0,2.12,0.65,3.32,1.66,3.32c1.13,0,1.67-1.32,1.67-3.4
			c0-2.01-0.51-3.32-1.66-3.32C355.11,90.2,354.41,91.38,354.41,93.6z"/>
		<path class="st9" d="M365.9,93.47c0,2.77-1.03,4.3-2.83,4.3c-1.59,0-2.67-1.49-2.7-4.19c0-2.73,1.18-4.24,2.83-4.24
			C364.92,89.34,365.9,90.87,365.9,93.47z M361.47,93.6c0,2.12,0.65,3.32,1.66,3.32c1.13,0,1.67-1.32,1.67-3.4
			c0-2.01-0.51-3.32-1.66-3.32C362.17,90.2,361.47,91.38,361.47,93.6z"/>
		<path class="st9" d="M369.94,90.51h-0.03l-1.42,0.76l-0.21-0.84l1.78-0.95h0.94v8.15h-1.07V90.51z"/>
		<path class="st9" d="M380.03,93.47c0,2.77-1.03,4.3-2.83,4.3c-1.59,0-2.67-1.49-2.7-4.19c0-2.73,1.18-4.24,2.83-4.24
			C379.05,89.34,380.03,90.87,380.03,93.47z M375.6,93.6c0,2.12,0.65,3.32,1.66,3.32c1.13,0,1.67-1.32,1.67-3.4
			c0-2.01-0.51-3.32-1.66-3.32C376.3,90.2,375.6,91.38,375.6,93.6z"/>
		<path class="st9" d="M384.07,90.51h-0.03l-1.42,0.76l-0.21-0.84l1.78-0.95h0.94v8.15h-1.07V90.51z"/>
		<path class="st9" d="M394.16,93.47c0,2.77-1.03,4.3-2.83,4.3c-1.59,0-2.67-1.49-2.7-4.19c0-2.73,1.18-4.24,2.83-4.24
			C393.18,89.34,394.16,90.87,394.16,93.47z M389.73,93.6c0,2.12,0.65,3.32,1.66,3.32c1.13,0,1.67-1.32,1.67-3.4
			c0-2.01-0.51-3.32-1.66-3.32C390.43,90.2,389.73,91.38,389.73,93.6z"/>
		<path class="st9" d="M398.2,90.51h-0.03l-1.42,0.76l-0.21-0.84l1.78-0.95h0.94v8.15h-1.07V90.51z"/>
		<path class="st9" d="M339.38,105.57h-0.03l-1.42,0.76l-0.21-0.84l1.78-0.95h0.94v8.15h-1.07V105.57z"/>
		<path class="st9" d="M346.44,105.57h-0.03l-1.42,0.76l-0.21-0.84l1.78-0.95h0.94v8.15h-1.07V105.57z"/>
		<path class="st9" d="M353.5,105.57h-0.03l-1.42,0.76l-0.21-0.84l1.78-0.95h0.94v8.15h-1.07V105.57z"/>
		<path class="st9" d="M363.59,108.53c0,2.77-1.03,4.3-2.83,4.3c-1.59,0-2.67-1.49-2.7-4.19c0-2.73,1.18-4.24,2.83-4.24
			C362.61,104.4,363.59,105.93,363.59,108.53z M359.16,108.65c0,2.12,0.65,3.32,1.66,3.32c1.13,0,1.67-1.32,1.67-3.4
			c0-2.01-0.51-3.32-1.66-3.32C359.87,105.25,359.16,106.43,359.16,108.65z"/>
		<path class="st9" d="M367.63,105.57h-0.03l-1.42,0.76l-0.21-0.84l1.78-0.95h0.94v8.15h-1.07V105.57z"/>
		<path class="st9" d="M377.72,108.53c0,2.77-1.03,4.3-2.83,4.3c-1.59,0-2.67-1.49-2.7-4.19c0-2.73,1.18-4.24,2.83-4.24
			C376.74,104.4,377.72,105.93,377.72,108.53z M373.29,108.65c0,2.12,0.65,3.32,1.66,3.32c1.13,0,1.67-1.32,1.67-3.4
			c0-2.01-0.51-3.32-1.66-3.32C374,105.25,373.29,106.43,373.29,108.65z"/>
		<path class="st9" d="M381.76,105.57h-0.03l-1.42,0.76l-0.21-0.84l1.78-0.95h0.94v8.15h-1.07V105.57z"/>
		<path class="st9" d="M342.66,120.62h-0.03l-1.42,0.76l-0.21-0.84l1.78-0.95h0.94v8.15h-1.07V120.62z"/>
		<path class="st9" d="M352.75,123.58c0,2.77-1.03,4.3-2.83,4.3c-1.59,0-2.67-1.49-2.7-4.19c0-2.73,1.18-4.24,2.83-4.24
			C351.77,119.46,352.75,120.99,352.75,123.58z M348.32,123.71c0,2.12,0.65,3.32,1.66,3.32c1.13,0,1.67-1.32,1.67-3.4
			c0-2.01-0.51-3.32-1.66-3.32C349.03,120.31,348.32,121.49,348.32,123.71z"/>
		<path class="st9" d="M356.79,120.62h-0.03l-1.42,0.76l-0.21-0.84l1.78-0.95h0.94v8.15h-1.07V120.62z"/>
		<path class="st9" d="M366.88,123.58c0,2.77-1.03,4.3-2.83,4.3c-1.59,0-2.67-1.49-2.7-4.19c0-2.73,1.18-4.24,2.83-4.24
			C365.9,119.46,366.88,120.99,366.88,123.58z M362.45,123.71c0,2.12,0.65,3.32,1.66,3.32c1.13,0,1.67-1.32,1.67-3.4
			c0-2.01-0.51-3.32-1.66-3.32C363.15,120.31,362.45,121.49,362.45,123.71z"/>
		<path class="st9" d="M370.92,120.62h-0.03l-1.42,0.76l-0.21-0.84l1.78-0.95h0.94v8.15h-1.07V120.62z"/>
		<path class="st9" d="M381.01,123.58c0,2.77-1.03,4.3-2.83,4.3c-1.59,0-2.67-1.49-2.7-4.19c0-2.73,1.18-4.24,2.83-4.24
			C380.03,119.46,381.01,120.99,381.01,123.58z M376.58,123.71c0,2.12,0.65,3.32,1.66,3.32c1.13,0,1.67-1.32,1.67-3.4
			c0-2.01-0.51-3.32-1.66-3.32C377.28,120.31,376.58,121.49,376.58,123.71z"/>
		<path class="st9" d="M385.05,120.62h-0.03l-1.42,0.76l-0.21-0.84l1.78-0.95h0.94v8.15h-1.07V120.62z"/>
	</g>
	<g>
		<path class="st2" d="M283.93,62.26l6.36-3.28v0.95l-5.36,2.69v0.03l5.36,2.69v0.95L283.93,63V62.26z"/>
		<path class="st2" d="M302.73,63.01l-6.36,3.26v-0.95l5.4-2.69v-0.03l-5.4-2.69v-0.95l6.36,3.26V63.01z"/>
	</g>
	<text transform="matrix(1 0 0 1 417.4534 127.3618)" class="st10 st16 st17">+</text>
	<g>
		<path class="st3" d="M111.58,137.18l4.06-10.54h0.99l-4.07,10.54H111.58z"/>
		<path class="st3" d="M117.29,137.18l4.06-10.54h0.99l-4.07,10.54H117.29z"/>
	</g>
	<rect x="210.84" y="216.67" class="st12" width="67.74" height="112.84"/>
	<g>
		<rect x="222.28" y="227.75" class="st18" width="7.32" height="14.55"/>
		<rect x="239.81" y="227.75" class="st18" width="7.32" height="14.55"/>
		<rect x="239.81" y="253.04" class="st18" width="7.32" height="14.55"/>
		<rect x="257.34" y="253.04" class="st18" width="7.32" height="14.55"/>
		<rect x="239.81" y="278.32" class="st18" width="7.32" height="14.55"/>
		<rect x="257.34" y="278.32" class="st18" width="7.32" height="14.55"/>
		<rect x="257.34" y="303.61" class="st18" width="7.32" height="14.55"/>
	</g>
	<g>
		<g>
			<path class="st9" d="M123.35,326.34c0.09,0.81,0.1,1.27,0.14,1.87c0.02,0.55,0.05,1.12,0.04,1.66c0.01,1.1-0.01,2.18-0.06,3.25
				c-0.09,2.15-0.31,4.3-0.64,6.43c-0.67,4.26-1.79,8.52-3.61,12.59c-1.8,4.07-4.3,7.95-7.48,11.21c-3.17,3.28-7,5.87-11.03,7.66
				c-2,0.95-4.09,1.57-6.15,2.19l-3.12,0.69c-1.04,0.26-2.08,0.31-3.12,0.47c-2.08,0.34-4.14,0.34-6.19,0.46
				c-1.03,0.05-2.04-0.03-3.05-0.04c-1.01-0.04-2.03-0.02-3.03-0.12c-8.03-0.6-15.73-2.32-23.19-4.5l1.61-6.37
				c7.29,1.45,14.65,2.4,21.82,2.29c0.9,0.01,1.78-0.09,2.67-0.13c0.88-0.07,1.78-0.07,2.64-0.19c1.73-0.26,3.48-0.4,5.13-0.84
				c0.83-0.21,1.69-0.32,2.48-0.6l2.39-0.76c1.52-0.63,3.06-1.22,4.42-2.04c2.79-1.56,5.18-3.55,7.1-5.93
				c1.92-2.37,3.37-5.13,4.38-8.11c1.03-2.98,1.58-6.21,1.8-9.49c0.11-1.64,0.13-3.3,0.05-4.94c-0.03-0.82-0.09-1.64-0.18-2.44
				c-0.03-0.41-0.09-0.79-0.14-1.18c-0.05-0.34-0.12-0.83-0.16-0.96L123.35,326.34z"/>
		</g>
		<g>
			<path class="st9" d="M129.75,323.21c0.55,0.61,0.82,0.95,1.19,1.41c0.33,0.42,0.67,0.85,0.98,1.27c0.63,0.85,1.23,1.69,1.8,2.54
				c1.15,1.71,2.22,3.44,3.2,5.23c1.97,3.56,3.67,7.25,5.01,11.09c2.71,7.65,4.01,15.87,3.58,23.98c-0.07,2.03-0.34,4.04-0.6,6.04
				c-0.38,1.98-0.7,3.97-1.26,5.89c-0.46,1.95-1.15,3.82-1.77,5.71c-0.35,0.93-0.74,1.84-1.12,2.75l-0.57,1.37l-0.64,1.33
				c-3.41,7.09-7.9,13.43-12.99,19.05l-5.68-4.66c4.16-5.65,7.57-11.74,9.87-18.09l0.44-1.19l0.36-1.21
				c0.23-0.81,0.49-1.6,0.71-2.41c0.35-1.63,0.78-3.23,0.99-4.88c0.31-1.62,0.39-3.27,0.54-4.89c0.03-1.64,0.1-3.26-0.02-4.89
				c-0.32-6.49-1.99-12.83-4.77-18.69c-1.37-2.94-3.03-5.75-4.88-8.4c-0.92-1.33-1.9-2.61-2.92-3.84c-0.51-0.61-1.03-1.21-1.55-1.77
				c-0.26-0.29-0.52-0.56-0.78-0.82c-0.23-0.23-0.57-0.57-0.65-0.62L129.75,323.21z"/>
		</g>
		<path class="st10" d="M134.64,330.21h-29.75c-7.74-29.5-3.53-37.17,3.95-45.79s22.72-5.38,22.72-5.38
			c7.01,1.6,10.14-2.03,15.03-5.58c10.92-7.93,16.26-27.34,16.26-27.34l3.22,0.4c-3.98,20.15-10.53,31.59-29.59,46
			C136.49,292.51,122.54,300.72,134.64,330.21z"/>
		<path class="st19" d="M122.19,281.14c0,0-0.45-6.51,0.14-7.69c0.59-1.18,1.42-2.02,1.7-2.46c1.26-1.96,1.08-5.5,0.61-6.32
			s-5.88,0.88-5.88,0.88l-2.13,2.3l-0.24,4.96l1.65,1.12c0,0,0.04,1.48-0.04,7.44L122.19,281.14z"/>
		<path class="st2" d="M121.47,270.73c-0.22,0.69-0.52,1.54-0.65,2.36c0,0-0.66,3.73-4.79,2.72c0,0-3.34-0.83-5.62,0.01
			c0,0-4.84,1.74-9.08,8.58c-2.73,4.42-9.55,9.94-15.14,0.93c-1.72-2.77,3.07-8.71,6.31-9.49c3.23-0.78,4.67-5.99,4.87-6.47
			c0.2-0.48,3.23-4.19,7.25-3.71c4.89,0.58,7.62-3.44,7.62-3.44s2.61-3.65,5.9-4.16c3.29-0.51,6.9,2.4,7.06,4.88
			c0.09,1.52,0.6,4.78-2.16,6.09C123.04,269.01,121.87,269.47,121.47,270.73z"/>
		<path class="st19" d="M166.81,236.6c0.07-0.11,0.01-0.71-0.42-0.3c-0.37,0.35-2.64,4.66-3.04,6.2c-0.4,1.54-0.52,3.91-0.52,3.91
			s2.56,1.96,3.08,0.4c1.67-4.97-0.32-4.58-0.52-5.19c0,0-0.34-0.37,0-1.26C165.72,239.47,166.81,236.6,166.81,236.6z"/>
	</g>
	<polygon class="st9" points="281.94,161.19 281.94,151.1 273.2,146.06 264.46,151.1 264.46,161.19 273.2,166.24 	"/>
	<polygon class="st19" points="390.91,184.17 390.91,174.08 382.18,169.03 373.44,174.08 373.44,184.17 382.18,189.22 	"/>
	<polygon class="st10" points="495.85,131.55 495.85,121.46 487.11,116.41 478.38,121.46 478.38,131.55 487.11,136.59 	"/>
	<polygon class="st0" points="495.85,167.12 495.85,157.03 487.11,151.99 478.38,157.03 478.38,167.12 487.11,172.17 	"/>
	<circle class="st1" cx="322.31" cy="229.01" r="4.47"/>
	<circle class="st1" cx="322.31" cy="209.38" r="4.47"/>
	<circle class="st1" cx="305.38" cy="229.01" r="4.47"/>
	<circle class="st1" cx="288.45" cy="229.01" r="4.47"/>
	<circle class="st1" cx="322.31" cy="250.58" r="4.47"/>
	<circle class="st1" cx="305.38" cy="250.58" r="4.47"/>
	<circle class="st1" cx="305.38" cy="272.15" r="4.47"/>
	<circle class="st1" cx="288.45" cy="272.15" r="4.47"/>
	<circle class="st1" cx="322.31" cy="293.71" r="4.47"/>
	<circle class="st1" cx="288.45" cy="293.71" r="4.47"/>
	<polygon class="st9" points="407.31,329.51 336.42,329.51 336.42,250.75 371.86,226.49 407.31,250.75 	"/>
	<g>
		<path class="st3" d="M377.78,216.19c-1.58-1.58-3.68-2.45-5.91-2.45s-4.33,0.87-5.91,2.45l-0.71-0.71
			c1.77-1.77,4.12-2.74,6.62-2.74s4.85,0.97,6.62,2.74L377.78,216.19z"/>
	</g>
	<g>
		<path class="st3" d="M375.59,218.37c-1-1-2.32-1.54-3.73-1.54s-2.73,0.55-3.73,1.54l-0.71-0.71c1.18-1.18,2.76-1.84,4.43-1.84
			s3.25,0.65,4.43,1.84L375.59,218.37z"/>
	</g>
	<g>
		<path class="st3" d="M373.35,220.61c-0.8-0.8-2.18-0.8-2.98,0l-0.71-0.71c1.17-1.17,3.22-1.18,4.4,0L373.35,220.61z"/>
	</g>
	<line class="st6" x1="216.56" y1="209.38" x2="166.81" y2="236.6"/>
	<path class="st2" d="M120.8,406.18c0,0-3.03,10.72,6.31,12.93c0,0,8.32,0.4,6.87-0.46c-3.94-2.31-7.66-4.3-7.75-8.07L120.8,406.18z
		"/>
	<path class="st2" d="M122.68,409.54l-3.51,7.44c0,0-2.26,0.81-1.85-0.53c0.41-1.34,3.48-10.27,3.48-10.27L122.68,409.54z"/>
	<path class="st2" d="M54.51,363.95c0,0-9.46-2.79-11.99,6.48c0,0-2.29,9.85-1.39,8.43c2.44-3.86,8.01-8.79,11.79-8.75L54.51,363.95
		z"/>
	<path class="st2" d="M51.08,365.71l-7.31-3.76c0,0-0.73-2.29,0.59-1.83c1.33,0.46,10.14,3.83,10.14,3.83L51.08,365.71z"/>
</g>
<g id="Layer_2" class="st20">
	<g class="st21">
		<rect x="-3890.4" y="-38.71" class="st22" width="73.66" height="6233.18"/>
		<rect x="-3788.01" y="-38.71" class="st22" width="73.66" height="6233.18"/>
		<rect x="-3685.62" y="-38.71" class="st22" width="73.66" height="6233.18"/>
		<rect x="-3583.22" y="-38.71" class="st22" width="73.66" height="6233.18"/>
		<rect x="-3480.83" y="-38.71" class="st22" width="73.66" height="6233.18"/>
		<rect x="-3378.43" y="-38.71" class="st22" width="73.66" height="6233.18"/>
		<rect x="-3276.04" y="-38.71" class="st22" width="73.66" height="6233.18"/>
		<rect x="-3173.64" y="-38.71" class="st22" width="73.66" height="6233.18"/>
		<rect x="-3071.25" y="-38.71" class="st22" width="73.66" height="6233.18"/>
		<rect x="-2968.85" y="-38.71" class="st22" width="73.66" height="6233.18"/>
		<rect x="-2866.46" y="-38.71" class="st22" width="73.66" height="6233.18"/>
		<rect x="-2764.06" y="-38.71" class="st22" width="73.66" height="6233.18"/>
	</g>
</g>
</svg>
