<?xml version="1.0" encoding="utf-8"?>
<!-- Generator: Adobe Illustrator 23.0.1, SVG Export Plug-In . SVG Version: 6.00 Build 0)  -->
<svg version="1.1" id="Layer_1" xmlns="http://www.w3.org/2000/svg" xmlns:xlink="http://www.w3.org/1999/xlink" x="0px" y="0px"
	 viewBox="0 0 472.5 474.03" style="enable-background:new 0 0 472.5 474.03;" xml:space="preserve">
<style type="text/css">
	.st0{fill:#FC6E4C;}
	.st1{fill:#25435A;}
	.st2{fill:#FFFFFF;}
	.st3{fill:#0A7586;}
	.st4{fill:#FEC305;}
	.st5{fill:#E9B399;}
	.st6{fill:#A47449;}
	.st7{fill:none;stroke:#25435A;stroke-width:1.8733;stroke-miterlimit:10;}
	.st8{fill:none;stroke:#25435A;stroke-width:2.81;stroke-miterlimit:10;}
	.st9{fill:#E1E1E1;}
	.st10{opacity:0.5;fill:#FFFFFF;enable-background:new    ;}
	.st11{fill:none;stroke:#0A7586;stroke-width:2.1216;stroke-linecap:round;stroke-miterlimit:10;}
	.st12{fill:none;stroke:#25435A;stroke-width:2.1216;stroke-miterlimit:10;}
	.st13{fill:none;stroke:#0A7586;stroke-width:1.5912;stroke-miterlimit:10;}
	.st14{fill:#FEA000;}
	.st15{display:none;}
	.st16{display:inline;opacity:0.08;}
	.st17{fill:#E30613;}
</style>
<g>
	<rect x="128.41" y="39.19" class="st0" width="64.55" height="139.09"/>
	<rect x="32.04" y="123.36" class="st1" width="80.15" height="94.85"/>
	<path class="st2" d="M272.05,63.87h-14.12c-16.93,0-30.66,13.67-30.66,30.61s13.73,30.66,30.66,30.66H379.9
		c16.93,0,30.66-13.73,30.66-30.66s-13.73-30.66-30.66-30.66h-5.26c-11.01,0-19.94-8.93-19.94-19.94l-0.52-6.61c0-11.6-9.4-21-21-21
		h-4.42c-11.62,0-21.04,9.42-21.04,21.04c0,0-1.41,9.98-9.29,9.98h-12.52C285.91,47.28,272.05,47.4,272.05,63.87z"/>
	<path class="st2" d="M422.86,182.27h14.12c16.93,0,30.66,13.67,30.66,30.61s-13.73,30.66-30.66,30.66H315.01
		c-16.93,0-30.66-13.73-30.66-30.66s13.73-30.66,30.66-30.66h5.26c11.01,0,19.94-8.93,19.94-19.94l0.52-6.61c0-11.6,9.4-21,21-21
		h4.42c11.62,0,21.04,9.42,21.04,21.04c0,0,1.41,9.98,9.29,9.98H409C409,165.68,422.86,165.8,422.86,182.27z"/>
	<rect x="288.58" y="97.61" class="st3" width="65.38" height="202.84"/>
	<rect x="160.69" y="53.39" class="st4" width="86.64" height="144.43"/>
	<path class="st1" d="M152.66,213.62h-48.5c-4.43,0-8.03-3.59-8.03-8.03V86.22c0-4.43,3.59-8.03,8.03-8.03h48.5
		c4.43,0,8.03,3.59,8.03,8.03V205.6C160.69,210.03,157.1,213.62,152.66,213.62z"/>
	<rect x="96.14" y="94.48" class="st3" width="64.42" height="104.58"/>
	<path class="st5" d="M288.69,185.31v60.64l-42.06-8.42v-59.87c1.72-27.67-19.66-48.76-19.66-48.76
		c-9.53-15.01-24.07-53.77,7.03-71.28s61.25,4.6,66.57,14.29c4.78,8.72,5.86,19.6,6.92,26.6c2.13,14.04,10.2,25.05,10.2,25.05
		s2.12,2,0.79,3.3c-0.79,0.78-3.13,1.64-4.46,2.2c0,0-1.13,0.33-0.92,2.05c0.24,1.99,1.18,5.25,1.32,6.5c0,0,0.1,1.38-1.26,2.04
		c-0.51,0.25-1.13,1.33-1.1,1.53s0.53,1.23,1.17,1.73c0.63,0.5,0.81,1.41,0.81,1.41c0.57,2.43-1.66,4.6-1.93,8.63
		s3.88,13.21-4.85,14.15C307.25,167.1,288.69,165.7,288.69,185.31z"/>
	<path class="st6" d="M158.04,441.28c1.32-1.72,3.29-14.18,3.29-14.18c0.03-1.8-3.52-2.94-3.52-2.94c-2.62-0.82-2.38-2.12-2.39-2.72
		c-0.02-2.42,0.66-3.93,0.66-3.93c0.27-0.67,0.54-1.57,0.22-1.9c-0.32-0.33-0.96-0.4-0.82-0.79c0.14-0.38,7.15-10.45,7.15-10.45
		l4.6,0.73c0,0,3.61,3.35,3.93,4c0.31,0.65,2.1,5.19,2.02,6.09s1.4,2.88,1.32,4.17c-0.09,1.29-6.1,24.79-5.98,25.31L158.04,441.28z"
		/>
	<path class="st4" d="M144.72,394.1l-16.32,22.86l-8.17,11.44c-0.39,0.55-0.54,0.74-0.82,1.15c-0.25,0.37-0.5,0.77-0.74,1.16
		c-0.48,0.79-0.91,1.6-1.26,2.39c-0.72,1.56-1.09,3.1-1.05,3.94c0.02,0.41,0.11,0.62,0.18,0.64c0.06,0.04,0.08-0.01,0.23,0.09
		c0.25,0.19,1.33,0.75,2.83,1.11c3.09,0.74,7.27,0.87,11.44,0.62c4.21-0.24,7.82,0,12.2-0.74c4.38-0.73,8.22-0.58,15.04-4.03
		l2.36,19.21c-4.76,0.7-9.57,1.3-14.45,1.72c-4.88,0.43-9.83,0.68-14.94,0.57c-2.56-0.06-5.16-0.21-7.85-0.55
		c-2.69-0.35-5.47-0.88-8.42-1.86c-1.48-0.51-3.01-1.15-4.57-2.04s-3.18-2.06-4.64-3.67c-1.46-1.59-2.69-3.67-3.34-5.86
		c-0.67-2.19-0.76-4.35-0.59-6.26c0.41-3.82,1.71-6.74,3.11-9.32c0.71-1.29,1.49-2.48,2.31-3.62c0.41-0.57,0.84-1.13,1.28-1.69
		c0.41-0.52,1.02-1.23,1.36-1.58l9.47-10.28l18.96-20.58L144.72,394.1z"/>
	<line class="st7" x1="254.12" y1="230.74" x2="207.68" y2="366.09"/>
	<line class="st7" x1="226.45" y1="232.92" x2="207.68" y2="366.09"/>
	<line class="st7" x1="195.48" y1="232.92" x2="207.68" y2="366.09"/>
	<line class="st7" x1="170.69" y1="235.94" x2="207.68" y2="366.09"/>
	<path class="st8" d="M247.34,441.46"/>
	<path class="st8" d="M252.86,344.99"/>
	<path class="st1" d="M291.22,300.45H189.43c-6.32,0-11.45-5.13-11.45-11.45v-79.72c0-6.32,5.13-11.45,11.45-11.45h101.79
		c6.32,0,11.45,5.13,11.45,11.45V289C302.67,295.32,297.54,300.45,291.22,300.45z"/>
	<path class="st3" d="M273.13,261.21c-6.61,0-11.93-5.72-11.61-12.65c0.29-6.49,5.68-11.49,11.94-11.49h28.9
		c1.3,0,2.35,1.09,2.35,2.44v19.26c0,1.35-1.05,2.44-2.35,2.44H273.13z"/>
	<polygon class="st0" points="195.42,283.91 112.19,283.91 112.19,156.7 153.81,123.36 195.42,156.7 	"/>
	<path class="st9" d="M36.06,207.86c-18.27,0-33.07,14.81-33.07,33.07C2.99,259.19,17.8,274,36.06,274h131.56
		c18.27,0,33.07-14.81,33.07-33.07s-14.81-33.07-33.07-33.07h-5.67c-11.88,0-21.51-9.63-21.51-21.51l-0.56-7.13
		c0-12.51-10.14-22.65-22.65-22.65s-22.65,10.14-22.65,22.65c0,0,2.21,7.94-11.04,7.94l-7.97-0.03c-5.67,0-10.26,4.59-10.26,10.26
		l-0.04,4.14c0,3.53-2.86,6.39-6.39,6.39L36.06,207.86z"/>
	<path class="st0" d="M87.91,251.59H76.65c-13.5,0-24.45,10.9-24.45,24.41c0,13.5,10.95,24.45,24.45,24.45h113.12
		c13.5,0,24.45-10.95,24.45-24.45s-10.95-24.45-24.45-24.45h-4.19c-8.78,0-15.9-7.12-15.9-15.9l-0.41-5.27
		c0-9.25-7.5-16.74-16.74-16.74H149c-9.27,0-16.78,7.51-16.78,16.78c0,0-1.13,7.96-7.41,7.96H98.96
		C98.96,238.36,87.91,238.45,87.91,251.59z"/>
	<circle class="st4" cx="274.24" cy="249.14" r="5.59"/>
	<path class="st0" d="M32.04,150.98c0,3.54,2.87,6.41,6.41,6.41s6.41-2.87,6.41-6.41v-27.62H32.04V150.98z"/>
	<path class="st2" d="M44.86,150.98c0,3.54,2.87,6.41,6.41,6.41s6.41-2.87,6.41-6.41v-27.62H44.86V150.98z"/>
	<path class="st2" d="M70.5,150.98c0,3.54,2.87,6.41,6.41,6.41s6.41-2.87,6.41-6.41v-27.62H70.5V150.98z"/>
	<path class="st0" d="M57.68,150.98c0,3.54,2.87,6.41,6.41,6.41c3.54,0,6.41-2.87,6.41-6.41v-27.62H57.68V150.98z"/>
	<path class="st0" d="M83.32,150.98c0,3.54,2.87,6.41,6.41,6.41s6.41-2.87,6.41-6.41v-27.62H83.32V150.98z"/>
	<rect x="178.81" y="166.36" class="st10" width="6.64" height="17.14"/>
	<rect x="164.43" y="171.14" class="st10" width="6.64" height="17.14"/>
	<rect x="178.81" y="191.46" class="st10" width="6.64" height="6.64"/>
	<rect x="147.17" y="164.73" class="st10" width="6.64" height="6.64"/>
	<line class="st11" x1="121.74" y1="86.87" x2="135.09" y2="86.87"/>
	<rect x="160.69" y="40.87" class="st4" width="61.64" height="27.67"/>
	<rect x="160.69" y="23.34" class="st4" width="46.99" height="32.53"/>
	<path class="st1" d="M252.99,124.66c0,0-6,2.15-2.11,11.66s7.79,49.47-9.76,36.04c-12.71-9.72-28.64-5.14-28.64-5.14
		s-15.41,0.4-11.52-15.88c0,0,1.98-8.51-4.44-14.53s-0.83-16.2-0.83-16.2s7.46-8.78,3.09-15.61c-4.37-6.83-4.61-19.7,1.92-26.33
		s11.85-7.98,11.85-7.98s12.43-3.14,17.75-15.82c5.32-12.69,17.57-15.31,36.19-9.73c0,0,9.47,2.31,14.95,2.04
		s21.92,4.63,21.21,15.73c-0.72,11.1-4.07,12.55-4.07,12.55s-2.27,3.28-1.71,8.29s-1.05,12.06-13.74,15.43s-13.51,12.72-13.21,14.98
		c0.3,2.26,5.78,8.94,2.68,14.87c-1.21,2.3-6.75,6.36-13.46-2.16C259.14,126.87,256.52,122.74,252.99,124.66z"/>
	<g>
		<path class="st12" d="M117,300.45v34.93c0,8.27,6.77,15.03,15.03,15.03h27.82c8.27,0,15.03-6.73,15.03-14.95
			s-6.77-14.95-15.03-14.95h-0.2c-8.27,0-15.03,6.77-15.03,15.03v53.55"/>
	</g>
	<path class="st1" d="M173.73,423.61c-0.31,0.26-0.32-1.21-0.47-5.79c-0.21-6.46-2.77-5.16-2.77-5.16s-1.47,0.93-2.12,0.25
		s0.34-1.87,0.4-3.3c0.06-1.45-2.2-3-6.92-3.91c-4.72-0.92-4-6.53-4-6.53s-0.04-1.59,1.96-0.68c1.99,0.91,4.66,0.21,4.66,0.21
		s10.95-2.07,14.88,4.72C183.8,411.11,180.27,418.16,173.73,423.61z"/>
	<path class="st5" d="M231.13,443.75c-0.98-1.93-0.63-14.55-0.63-14.55c0.3-1.78,3.01-0.67,3.01-0.67c2.21,0.75,2.73-1.65,2.85-2.23
		c0.47-2.38,0.07-3.98,0.07-3.98c-0.15-0.71-0.83-2.74-0.29-3.1c0.38-0.25,1.21-0.71,1.11-1.16c-0.09-0.4-2.3-9.85-2.3-9.85
		l-4.66-0.13c0,0-4.17,2.63-4.59,3.21c-0.43,0.58-3.02,4.71-3.11,5.61s-1.91,2.58-2.06,3.86s0.2,25.49-0.01,25.98L231.13,443.75z"/>
	<path class="st4" d="M151.42,439.16c0,0,1.61-2.25,3.59-2.93c2.42-0.83,5.27-4.5,5.75-2.58s2.2,5.3,2.2,5.3
		c1.83-0.22,5.53-4.64,7.06-6.04c0,0,0.95-0.7,1.37,0.16c3.81,7.85,5.23,11.02,17.49,13.17c11.72,2.05,12.63,19.03,12.63,19.03
		c0.11,2.88,0.09,5.81-0.04,8.76h-62.98V449.7L151.42,439.16z"/>
	<path class="st4" d="M127.2,455.89c0,0,11.95-0.09,11.32,16.01l4.39-3.22l0.94-17.29l-8.33-2.72L127.2,455.89z"/>
	<polygon class="st0" points="187.63,421.35 187.63,474.03 202.64,474.03 201.3,450.23 	"/>
	<line class="st7" x1="207.68" y1="362.57" x2="207.68" y2="472.51"/>
	<path class="st5" d="M202.07,368.82c0,0,3.32-10.23,6.47-9.35s5.54,6.41,4.69,8.08s-6.12,5.82-7.76,5.11
		S201.55,370.27,202.07,368.82z"/>
	<g>
		<path class="st0" d="M208,371.98c-2.43,7.88-4.62,15.95-6.31,23.93c-0.83,3.99-1.55,8-1.87,11.8c-0.17,1.93-0.16,3.55-0.03,5.52
			c0.1,1.89,0.33,3.77,0.61,5.63c1.2,7.43,3.9,14.49,7.74,20.87c1.92,3.19,4.11,6.21,6.51,9.02c1.2,1.4,2.46,2.75,3.76,4.02
			c0.65,0.63,1.3,1.25,1.96,1.83l0.97,0.83l0.47,0.38c0.12,0.09,0.35,0.27,0.31,0.22l-13.18,15.08c-0.42-0.4-0.58-0.58-0.84-0.85
			l-0.66-0.72c-0.43-0.47-0.83-0.94-1.23-1.41c-0.79-0.93-1.54-1.87-2.26-2.82c-1.45-1.89-2.79-3.83-4.05-5.81
			c-2.52-3.97-4.7-8.11-6.52-12.42c-3.64-8.6-5.73-17.9-5.89-27.16c-0.02-2.32,0.03-4.62,0.23-6.91c0.18-2.21,0.49-4.78,0.98-6.99
			c0.96-4.48,2.27-8.61,3.66-12.69c2.83-8.14,6.04-15.93,9.54-23.71L208,371.98z"/>
	</g>
	<path class="st5" d="M281.03,421.15c0,0-1.7,0.08-2.65,0.07c0,0-0.67,0.03-0.69,1.07c-0.03,1.04,0,1.86,0,1.86v15.56
		c0,0,1.58,7.97-4.51,9.25c-7.06,1.49-7.31-4.85-7.31-4.85V432.7v-12.72c0.4-5.78-4.27-7.63-4.27-7.63
		c-2.23-3.14-5.62-11.24,1.64-14.9s14.82-0.48,16.1,1.52c1.1,1.72,1.56,2.71,2.09,5.97c0.48,2.94,1.62,5.2,1.62,5.2
		s1.13,1.22-0.1,1.78c-0.22,0.1-0.73,0.34-1.04,0.46c0,0-0.26,0.07-0.21,0.43c0.06,0.42,0.25,1.45,0.28,1.71
		c0,0,0.79,3.62,0.56,5.05C282.31,421.01,281.4,421.14,281.03,421.15z"/>
	<path class="st1" d="M265.87,419.99c1.62-0.8-1.12-9.99-0.58-12.35c0.64-2.79,3.94-1.73,5.09,0.31c1.01,1.77,2.65,3.45,2.07,1
		c-0.59-2.44,1.41-5.35,1.41-5.35c1.05-1.53,4.23-2.61,5.52-2.48c1.3,0.13,3.1-0.52,3.07-2.96c-0.02-2.41-1.31-3.47-2.2-4.48
		s-1.2-1.85-3.09-3.12c-1.83-1.23-3.81-0.83-5.86,0.82s-3.17,1.09-6.2,0.97c0,0-4.11-0.28-5.82,2.91c0,0-1.11,2.34-1.79,5.87
		c0,0-0.67,2.92-2.09,5.48s-0.01,7.34,3.02,8.14c0,0,2.57,0.96,2.95,2.51S262.89,421.47,265.87,419.99z"/>
	<path class="st3" d="M301.72,422.49c0,0-6.12,16.37-23.49,16.28c-17.38-0.1,3.6,19.47,3.6,19.47l11.97-7.32L301.72,422.49z"/>
	<path class="st3" d="M310.1,434.2c0,0-11.54,19.85-11.54,39.83h-16.02v-21.98L310.1,434.2z"/>
	<path class="st3" d="M275.27,438.73h-12.51c0,0-30.31,0.92-21.34,35.29h55.09l-4.93-21.75L275.27,438.73z"/>
	<g>
		<path class="st0" d="M258.67,474.03c-3.66-20.28-14.74-27.89-14.74-27.89s-3.24-5.55-21.26-5.07c0,0-28.86-0.67-28.86,23.34
			l-0.09,9.62H258.67z"/>
	</g>
	<path class="st1" d="M232.81,401.12c2.46,0,4.45,1.99,4.45,4.45s-1.99,4.45-4.45,4.45c0,0-7.57,0-8.35,5.92
		c-0.79,5.92-3.93,6.18-3.93,6.18V455c0,0-9.21-9.16-12.2-15.29v-22.53c0,0-1.17-16.05,12.73-16.05"/>
	<line class="st12" x1="279.34" y1="393.69" x2="279.34" y2="300.45"/>
	<path class="st5" d="M284.75,363.57c0,0-3.32-10.23-6.47-9.35c-3.16,0.88-5.54,6.41-4.69,8.08s6.12,5.82,7.76,5.11
		C282.98,366.71,285.26,365.02,284.75,363.57z"/>
	<g>
		<path class="st3" d="M285.24,363.72l24.32,33.07l-0.25-0.33l0.31,0.38l0.22,0.29c0.15,0.19,0.27,0.37,0.4,0.55
			c0.26,0.37,0.48,0.72,0.71,1.08c0.44,0.72,0.85,1.44,1.21,2.18c0.73,1.48,1.34,3,1.81,4.56c0.95,3.13,1.38,6.41,1.34,9.66
			c-0.05,3.25-0.57,6.46-1.43,9.51c-0.87,3.05-2.09,5.93-3.49,8.67c-2.84,5.46-6.46,10.28-10.41,14.61
			c-3.95,4.34-8.23,8.24-12.67,11.86l-9.56-12.96c4.22-2.81,8.26-5.83,11.93-9.13c3.68-3.29,6.94-6.9,9.49-10.8
			c1.26-1.95,2.35-3.97,3.18-6.04c0.81-2.07,1.38-4.2,1.63-6.34c0.24-2.14,0.18-4.29-0.23-6.39c-0.19-1.05-0.5-2.08-0.86-3.06
			c-0.18-0.5-0.39-0.97-0.61-1.43c-0.11-0.22-0.22-0.45-0.33-0.65l-0.16-0.29l-0.07-0.12c-0.01-0.02-0.06-0.09,0-0.02l-0.25-0.33
			l-21.65-34.87L285.24,363.72z"/>
	</g>
	<line class="st12" x1="278.38" y1="421.22" x2="278.38" y2="474.03"/>
	<path class="st4" d="M118.17,431.62c0,0-3.07,6.13,1.44,7.27c0,0-5.76,3.19-5.76,2.84c0-0.36-3.3-6.87-3.3-6.87L118.17,431.62z"/>
	<line class="st12" x1="144.36" y1="389.85" x2="144.36" y2="474.03"/>
	<path class="st6" d="M139.22,390.04c0,0,2.65-8.38,3.62-9.52c0.97-1.15,2.72-1.39,3.52-0.39s3.49,5.54,3.1,8.15
		c-0.4,2.61-5.14,6.3-5.14,6.3L139.22,390.04z"/>
	<polygon class="st3" points="348.08,128.96 348.08,145.98 362.82,134.99 	"/>
	<path class="st4" d="M426.34,166.45c0-27.61-22.38-49.99-49.99-49.99c-27.61,0-49.99,22.38-49.99,49.99
		c0,13.36,5.25,25.49,13.79,34.45l-0.01,0.02c0,0,0.13,0.12,0.36,0.35c0.25,0.26,0.5,0.52,0.76,0.77
		c3.25,3.37,12.45,13.83,12.45,24.18l0.1-0.15v17.46h45.07v-17.31c0-9.53,7.8-19.15,11.57-23.25
		C420.22,193.85,426.34,180.87,426.34,166.45z"/>
	<g>
		<circle class="st13" cx="376" cy="163.45" r="4.59"/>
		<line class="st13" x1="376" y1="168.05" x2="376" y2="239.26"/>
	</g>
	<g>
		<circle class="st13" cx="394.41" cy="178.82" r="4.59"/>
		<g>
			<path class="st13" d="M391.45,182.33l-7.05,7.05c-1.17,1.17-2.13,3.48-2.13,5.13v49.03"/>
		</g>
	</g>
	<g>
		<circle class="st13" cx="357.7" cy="178.82" r="4.59"/>
		<g>
			<path class="st13" d="M360.54,182.33l7.05,7.05c1.17,1.17,2.13,3.48,2.13,5.13v49.03"/>
		</g>
	</g>
	<path class="st3" d="M396.67,252.86h-19.62c-1.88,0-3.41-1.53-3.41-3.41v-0.41c0-1.88,1.53-3.41,3.41-3.41h19.62
		c1.88,0,3.41,1.53,3.41,3.41v0.41C400.08,251.34,398.56,252.86,396.67,252.86z"/>
	<path class="st3" d="M396.67,262.19h-19.62c-1.88,0-3.41-1.53-3.41-3.41v-0.41c0-1.88,1.53-3.41,3.41-3.41h19.62
		c1.88,0,3.41,1.53,3.41,3.41v0.41C400.08,260.66,398.56,262.19,396.67,262.19z"/>
	<path class="st3" d="M396.67,271.51h-19.62c-1.88,0-3.41-1.53-3.41-3.41v-0.41c0-1.88,1.53-3.41,3.41-3.41h19.62
		c1.88,0,3.41,1.53,3.41,3.41v0.41C400.08,269.98,398.56,271.51,396.67,271.51z"/>
	<g>
		<ellipse class="st14" cx="356.53" cy="261.21" rx="32.03" ry="41.12"/>
		<ellipse class="st4" cx="349.77" cy="261.21" rx="32.03" ry="41.12"/>
	</g>
	<g>
		<polygon class="st3" points="345.95,81.58 345.95,89.59 337.94,89.59 337.94,97.61 345.95,97.61 353.96,97.61 353.96,89.59 
			353.96,81.58 		"/>
		<rect x="337.94" y="64.53" class="st3" width="8.01" height="8.01"/>
		<rect x="329.92" y="81.58" class="st3" width="8.01" height="8.01"/>
		<rect x="321.91" y="73.57" class="st3" width="8.01" height="8.01"/>
		<rect x="321.91" y="57.55" class="st3" width="8.01" height="8.01"/>
		<polygon class="st3" points="313.9,89.59 313.9,97.61 321.91,97.61 329.92,97.61 329.92,89.59 321.91,89.59 		"/>
	</g>
</g>
<g class="st15">
	<g class="st16">
		<rect x="-4552.82" y="-3.07" class="st17" width="73.66" height="6233.18"/>
		<rect x="-4450.42" y="-3.07" class="st17" width="73.66" height="6233.18"/>
		<rect x="-4348.03" y="-3.07" class="st17" width="73.66" height="6233.18"/>
		<rect x="-4245.64" y="-3.07" class="st17" width="73.66" height="6233.18"/>
		<rect x="-4143.24" y="-3.07" class="st17" width="73.66" height="6233.18"/>
		<rect x="-4040.85" y="-3.07" class="st17" width="73.66" height="6233.18"/>
		<rect x="-3938.45" y="-3.07" class="st17" width="73.66" height="6233.18"/>
		<rect x="-3836.06" y="-3.07" class="st17" width="73.66" height="6233.18"/>
		<rect x="-3733.66" y="-3.07" class="st17" width="73.66" height="6233.18"/>
		<rect x="-3631.27" y="-3.07" class="st17" width="73.66" height="6233.18"/>
		<rect x="-3528.87" y="-3.07" class="st17" width="73.66" height="6233.18"/>
		<rect x="-3426.48" y="-3.07" class="st17" width="73.66" height="6233.18"/>
	</g>
</g>
</svg>
