<?xml version="1.0" encoding="utf-8"?>
<!-- Generator: Adobe Illustrator 23.0.1, SVG Export Plug-In . SVG Version: 6.00 Build 0)  -->
<svg version="1.1" id="Layer_1" xmlns="http://www.w3.org/2000/svg" xmlns:xlink="http://www.w3.org/1999/xlink" x="0px" y="0px"
	 viewBox="0 0 60 60" style="enable-background:new 0 0 60 60;" xml:space="preserve">
<style type="text/css">
	.st0{fill:url(#SVGID_1_);}
	.st1{fill:url(#SVGID_2_);}
</style>
<g>
	<g>
		<linearGradient id="SVGID_1_" gradientUnits="userSpaceOnUse" x1="6.9944" y1="11.3565" x2="53.0056" y2="48.6436">
			<stop  offset="0.309" style="stop-color:#FFEA14"/>
			<stop  offset="0.389" style="stop-color:#FAEB1B"/>
			<stop  offset="0.509" style="stop-color:#EBED30"/>
			<stop  offset="0.6544" style="stop-color:#D2F252"/>
			<stop  offset="0.8196" style="stop-color:#B0F880"/>
			<stop  offset="1" style="stop-color:#85FFBC"/>
		</linearGradient>
		<path class="st0" d="M30,59.62C13.67,59.62,0.38,46.33,0.38,30C0.38,13.67,13.67,0.38,30,0.38c16.33,0,29.62,13.29,29.62,29.62
			C59.62,46.33,46.33,59.62,30,59.62z M30,1.38C14.22,1.38,1.38,14.22,1.38,30c0,15.78,12.84,28.62,28.62,28.62
			S58.62,45.78,58.62,30C58.62,14.22,45.78,1.38,30,1.38z"/>
	</g>
	<linearGradient id="SVGID_2_" gradientUnits="userSpaceOnUse" x1="13.1588" y1="28.5129" x2="46.7528" y2="28.5129">
		<stop  offset="0.309" style="stop-color:#FFEA14"/>
		<stop  offset="0.389" style="stop-color:#FAEB1B"/>
		<stop  offset="0.509" style="stop-color:#EBED30"/>
		<stop  offset="0.6544" style="stop-color:#D2F252"/>
		<stop  offset="0.8196" style="stop-color:#B0F880"/>
		<stop  offset="1" style="stop-color:#85FFBC"/>
	</linearGradient>
	<path class="st1" d="M46.52,32.91l-6.66-3.84h-0.47l-6.42,3.71l-2.54-1.47v-3.49l6.42-3.71l0.24-0.41v-7.69l-0.24-0.41l-6.66-3.84
		h-0.47l-6.66,3.84l-0.24,0.41v7.69l0.24,0.41l6.42,3.71v3.49l-2.54,1.47l-6.42-3.71h-0.47l-6.66,3.84l-0.24,0.41v7.69l0.24,0.41
		l6.66,3.84h0.47l6.66-3.84l0.24-0.41v-7.41l2.54-1.47l2.54,1.47v7.41l0.24,0.41l6.66,3.84h0.47l6.66-3.84l0.24-0.41v-7.69
		L46.52,32.91z M19.82,44.03l-5.71-3.3v-6.6l5.71,3.3V44.03z M20.29,36.62l-5.71-3.3l5.71-3.3l5.71,3.3L20.29,36.62z M26.47,40.73
		l-5.71,3.3v-6.6l5.71-3.3V40.73z M36.14,23.43l-5.71,3.3v-6.6l5.71-3.3V23.43z M29.48,26.73l-5.71-3.3v-6.6l5.71,3.3V26.73z
		 M24.24,16.02l5.71-3.3l5.71,3.3l-5.71,3.3L24.24,16.02z M39.15,44.03l-5.71-3.3v-6.6l5.71,3.3V44.03z M39.62,36.62l-5.71-3.3
		l5.71-3.3l5.71,3.3L39.62,36.62z M45.81,40.73l-5.71,3.3v-6.6l5.71-3.3V40.73z"/>
</g>
</svg>
