<?xml version="1.0" encoding="utf-8"?>
<!-- Generator: Adobe Illustrator 23.0.1, SVG Export Plug-In . SVG Version: 6.00 Build 0)  -->
<svg version="1.1" id="Layer_1" xmlns="http://www.w3.org/2000/svg" xmlns:xlink="http://www.w3.org/1999/xlink" x="0px" y="0px"
	 viewBox="0 0 76 76" style="enable-background:new 0 0 76 76;" xml:space="preserve">
<style type="text/css">
	.st0{fill:#FFFFFF;}
</style>
<g>
	<path class="st0" d="M38,1.5c20.1,0,36.5,16.4,36.5,36.5c0,20.1-16.4,36.5-36.5,36.5C17.9,74.5,1.5,58.1,1.5,38
		C1.5,17.9,17.9,1.5,38,1.5 M38,0.5C17.3,0.5,0.5,17.3,0.5,38c0,20.7,16.8,37.5,37.5,37.5S75.5,58.7,75.5,38
		C75.5,17.3,58.7,0.5,38,0.5L38,0.5z"/>
	<circle class="st0" cx="38" cy="38" r="6.5"/>
	<path class="st0" d="M38,16.5c5.7,0,11.1,2.2,15.2,6.3c8.4,8.4,8.4,22,0,30.4c-4.1,4.1-9.5,6.3-15.2,6.3c-5.7,0-11.1-2.2-15.2-6.3
		c-8.4-8.4-8.4-22,0-30.4C26.9,18.7,32.3,16.5,38,16.5 M38,15.5c-5.8,0-11.5,2.2-15.9,6.6c-8.8,8.8-8.8,23,0,31.8
		c4.4,4.4,10.2,6.6,15.9,6.6s11.5-2.2,15.9-6.6c8.8-8.8,8.8-23,0-31.8C49.5,17.7,43.8,15.5,38,15.5L38,15.5z"/>
</g>
</svg>
