<?xml version="1.0" encoding="utf-8"?>
<!-- Generator: Adobe Illustrator 23.0.1, SVG Export Plug-In . SVG Version: 6.00 Build 0)  -->
<svg version="1.1" id="Layer_1" xmlns="http://www.w3.org/2000/svg" xmlns:xlink="http://www.w3.org/1999/xlink" x="0px" y="0px"
	 viewBox="0 0 60 60" style="enable-background:new 0 0 60 60;" xml:space="preserve">
<style type="text/css">
	.st0{fill:url(#SVGID_1_);}
	.st1{fill:url(#SVGID_2_);}
</style>
<g>
	<linearGradient id="SVGID_1_" gradientUnits="userSpaceOnUse" x1="6.9944" y1="11.3565" x2="53.0056" y2="48.6436">
		<stop  offset="0.309" style="stop-color:#FFEA14"/>
		<stop  offset="0.389" style="stop-color:#FAEB1B"/>
		<stop  offset="0.509" style="stop-color:#EBED30"/>
		<stop  offset="0.6544" style="stop-color:#D2F252"/>
		<stop  offset="0.8196" style="stop-color:#B0F880"/>
		<stop  offset="1" style="stop-color:#85FFBC"/>
	</linearGradient>
	<path class="st0" d="M30,59.62C13.67,59.62,0.38,46.33,0.38,30C0.38,13.67,13.67,0.38,30,0.38c16.33,0,29.62,13.29,29.62,29.62
		C59.62,46.33,46.33,59.62,30,59.62z M30,1.38C14.22,1.38,1.38,14.22,1.38,30c0,15.78,12.84,28.62,28.62,28.62S58.62,45.78,58.62,30
		C58.62,14.22,45.78,1.38,30,1.38z"/>
	<linearGradient id="SVGID_2_" gradientUnits="userSpaceOnUse" x1="-8.8682" y1="-13.1114" x2="61.7985" y2="65.5553">
		<stop  offset="0.309" style="stop-color:#FFEA14"/>
		<stop  offset="0.389" style="stop-color:#FAEB1B"/>
		<stop  offset="0.509" style="stop-color:#EBED30"/>
		<stop  offset="0.6544" style="stop-color:#D2F252"/>
		<stop  offset="0.8196" style="stop-color:#B0F880"/>
		<stop  offset="1" style="stop-color:#85FFBC"/>
	</linearGradient>
	<path class="st1" d="M40.62,14.96H26.25l-0.41,0.17l-6.96,6.96l-0.17,0.41v22.17l0.58,0.59h21.33l0.58-0.59V15.54L40.62,14.96z
		 M25.67,16.95v4.96H20.7L25.67,16.95z M40.04,44.09H19.88v-21h6.38l0.58-0.59v-6.37h13.2V44.09z"/>
</g>
</svg>
