<?xml version="1.0" encoding="utf-8"?>
<!-- Generator: Adobe Illustrator 23.0.1, SVG Export Plug-In . SVG Version: 6.00 Build 0)  -->
<svg version="1.1" id="Layer_1" xmlns="http://www.w3.org/2000/svg" xmlns:xlink="http://www.w3.org/1999/xlink" x="0px" y="0px"
	 viewBox="0 0 60 60" style="enable-background:new 0 0 60 60;" xml:space="preserve">
<style type="text/css">
	.st0{fill:url(#SVGID_1_);}
	.st1{fill:url(#SVGID_2_);}
	.st2{fill:url(#SVGID_3_);}
</style>
<g>
	<linearGradient id="SVGID_1_" gradientUnits="userSpaceOnUse" x1="6.9941" y1="11.3563" x2="53.0058" y2="48.6437">
		<stop  offset="0.309" style="stop-color:#FFEA14"/>
		<stop  offset="0.389" style="stop-color:#FAEB1B"/>
		<stop  offset="0.509" style="stop-color:#EBED30"/>
		<stop  offset="0.6544" style="stop-color:#D2F252"/>
		<stop  offset="0.8196" style="stop-color:#B0F880"/>
		<stop  offset="1" style="stop-color:#85FFBC"/>
	</linearGradient>
	<path class="st0" d="M30,59.62C13.67,59.62,0.38,46.34,0.38,30C0.38,13.66,13.67,0.38,30,0.38c16.33,0,29.62,13.29,29.62,29.62
		C59.62,46.34,46.33,59.62,30,59.62z M30,1.38C14.22,1.38,1.38,14.22,1.38,30c0,15.78,12.84,28.62,28.62,28.62S58.62,45.78,58.62,30
		C58.62,14.22,45.78,1.38,30,1.38z"/>
	<g>
		<linearGradient id="SVGID_2_" gradientUnits="userSpaceOnUse" x1="13.9122" y1="29.8555" x2="46.0881" y2="29.8555">
			<stop  offset="0.309" style="stop-color:#FFEA14"/>
			<stop  offset="0.389" style="stop-color:#FAEB1B"/>
			<stop  offset="0.509" style="stop-color:#EBED30"/>
			<stop  offset="0.6544" style="stop-color:#D2F252"/>
			<stop  offset="0.8196" style="stop-color:#B0F880"/>
			<stop  offset="1" style="stop-color:#85FFBC"/>
		</linearGradient>
		<path class="st1" d="M45.48,18.36H14.52l-0.6,0.6v21.79l0.6,0.6h30.97l0.6-0.6V18.96L45.48,18.36z M44.88,40.15H15.12V19.56h29.76
			V40.15z"/>
		<linearGradient id="SVGID_3_" gradientUnits="userSpaceOnUse" x1="24.0679" y1="44.7606" x2="35.9324" y2="44.7606">
			<stop  offset="0.309" style="stop-color:#FFEA14"/>
			<stop  offset="0.389" style="stop-color:#FAEB1B"/>
			<stop  offset="0.509" style="stop-color:#EBED30"/>
			<stop  offset="0.6544" style="stop-color:#D2F252"/>
			<stop  offset="0.8196" style="stop-color:#B0F880"/>
			<stop  offset="1" style="stop-color:#85FFBC"/>
		</linearGradient>
		<rect x="24.07" y="44.16" class="st2" width="11.86" height="1.21"/>
	</g>
</g>
</svg>
