<?xml version="1.0" encoding="utf-8"?>
<!-- Generator: Adobe Illustrator 23.0.1, SVG Export Plug-In . SVG Version: 6.00 Build 0)  -->
<svg version="1.1" id="Layer_1" xmlns="http://www.w3.org/2000/svg" xmlns:xlink="http://www.w3.org/1999/xlink" x="0px" y="0px"
	 viewBox="0 0 60 60" style="enable-background:new 0 0 60 60;" xml:space="preserve">
<style type="text/css">
	.st0{fill:url(#SVGID_1_);}
	.st1{fill:url(#SVGID_2_);}
</style>
<g>
	<linearGradient id="SVGID_1_" gradientUnits="userSpaceOnUse" x1="6.9943" y1="11.3564" x2="53.0057" y2="48.6436">
		<stop  offset="0.309" style="stop-color:#FFEA14"/>
		<stop  offset="0.389" style="stop-color:#FAEB1B"/>
		<stop  offset="0.509" style="stop-color:#EBED30"/>
		<stop  offset="0.6544" style="stop-color:#D2F252"/>
		<stop  offset="0.8196" style="stop-color:#B0F880"/>
		<stop  offset="1" style="stop-color:#85FFBC"/>
	</linearGradient>
	<path class="st0" d="M30,59.62C13.67,59.62,0.38,46.33,0.38,30S13.67,0.38,30,0.38c16.33,0,29.62,13.29,29.62,29.62
		S46.33,59.62,30,59.62z M30,1.38C14.22,1.38,1.38,14.22,1.38,30S14.22,58.62,30,58.62S58.62,45.78,58.62,30S45.78,1.38,30,1.38z"/>
	<linearGradient id="SVGID_2_" gradientUnits="userSpaceOnUse" x1="-9.9393" y1="-9.2791" x2="70.7274" y2="70.0542">
		<stop  offset="0.309" style="stop-color:#FFEA14"/>
		<stop  offset="0.389" style="stop-color:#FAEB1B"/>
		<stop  offset="0.509" style="stop-color:#EBED30"/>
		<stop  offset="0.6544" style="stop-color:#D2F252"/>
		<stop  offset="0.8196" style="stop-color:#B0F880"/>
		<stop  offset="1" style="stop-color:#85FFBC"/>
	</linearGradient>
	<path class="st1" d="M45.55,21.75l-15.24-7.62h-0.63l-15.24,7.62v1.25l6.36,3.18l-6.36,3.18v1.26l6.36,3.18l-6.36,3.18v1.26
		l15.24,7.62h0.63l15.24-7.62v-1.26l-6.36-3.18l6.36-3.18v-1.25l-6.36-3.18l6.36-3.18V21.75z M43.67,37.62L30,44.45l-13.67-6.83
		l6.05-3.02l7.3,3.65h0.63l7.3-3.65L43.67,37.62z M43.67,30L30,36.83L16.33,30l6.05-3.03l7.3,3.65h0.63l7.3-3.65L43.67,30z
		 M30,29.22l-13.67-6.83L30,15.55l13.67,6.83L30,29.22z"/>
</g>
</svg>
