<?xml version="1.0" encoding="utf-8"?>
<!-- Generator: Adobe Illustrator 23.0.1, SVG Export Plug-In . SVG Version: 6.00 Build 0)  -->
<svg version="1.1" id="Layer_1" xmlns="http://www.w3.org/2000/svg" xmlns:xlink="http://www.w3.org/1999/xlink" x="0px" y="0px"
	 viewBox="0 0 60 60" style="enable-background:new 0 0 60 60;" xml:space="preserve">
<style type="text/css">
	.st0{fill:url(#SVGID_1_);}
	.st1{fill:url(#SVGID_2_);}
</style>
<g>
	<g>
		<linearGradient id="SVGID_1_" gradientUnits="userSpaceOnUse" x1="6.994" y1="11.3562" x2="53.0059" y2="48.6438">
			<stop  offset="0.309" style="stop-color:#FFEA14"/>
			<stop  offset="0.389" style="stop-color:#FAEB1B"/>
			<stop  offset="0.509" style="stop-color:#EBED30"/>
			<stop  offset="0.6544" style="stop-color:#D2F252"/>
			<stop  offset="0.8196" style="stop-color:#B0F880"/>
			<stop  offset="1" style="stop-color:#85FFBC"/>
		</linearGradient>
		<path class="st0" d="M30,59.62C13.67,59.62,0.38,46.34,0.38,30C0.38,13.66,13.67,0.38,30,0.38S59.62,13.66,59.62,30
			C59.62,46.34,46.33,59.62,30,59.62z M30,1.38C14.22,1.38,1.38,14.22,1.38,30c0,15.78,12.84,28.62,28.62,28.62
			S58.62,45.78,58.62,30C58.62,14.22,45.78,1.38,30,1.38z"/>
	</g>
	<linearGradient id="SVGID_2_" gradientUnits="userSpaceOnUse" x1="8.0873" y1="12.1066" x2="81.5007" y2="72.2373">
		<stop  offset="0.309" style="stop-color:#FFEA14"/>
		<stop  offset="0.389" style="stop-color:#FAEB1B"/>
		<stop  offset="0.509" style="stop-color:#EBED30"/>
		<stop  offset="0.6544" style="stop-color:#D2F252"/>
		<stop  offset="0.8196" style="stop-color:#B0F880"/>
		<stop  offset="1" style="stop-color:#85FFBC"/>
	</linearGradient>
	<path class="st1" d="M43.67,21.76H16.88v-1.03c0-0.57,0.46-1.03,1.03-1.03h26.27v-1.09H17.91c-1.17,0-2.12,0.95-2.12,2.12v1.58v2.2
		v16.88l0.54,0.54h27.33l0.54-0.54V22.31L43.67,21.76z M16.88,40.84V24.51v-1.65h26.24v5.08h-6.15c-1.79,0-3.24,1.45-3.24,3.24
		c0,1.79,1.45,3.24,3.24,3.24h6.15v6.43H16.88z M43.12,29.02v4.31h-6.15c-1.19,0-2.15-0.97-2.15-2.15c0-1.19,0.97-2.15,2.15-2.15
		H43.12z"/>
</g>
</svg>
