<?xml version="1.0" encoding="utf-8"?>
<!-- Generator: Adobe Illustrator 23.0.1, SVG Export Plug-In . SVG Version: 6.00 Build 0)  -->
<svg version="1.1" id="Layer_1" xmlns="http://www.w3.org/2000/svg" xmlns:xlink="http://www.w3.org/1999/xlink" x="0px" y="0px"
	 viewBox="0 0 60 60" style="enable-background:new 0 0 60 60;" xml:space="preserve">
<style type="text/css">
	.st0{fill:url(#SVGID_1_);}
	.st1{fill:url(#SVGID_2_);}
	.st2{fill:url(#SVGID_3_);}
	.st3{fill:url(#SVGID_4_);}
	.st4{fill:url(#SVGID_5_);}
	.st5{fill:url(#SVGID_6_);}
	.st6{fill:url(#SVGID_7_);}
	.st7{fill:url(#SVGID_8_);}
</style>
<g>
	<linearGradient id="SVGID_1_" gradientUnits="userSpaceOnUse" x1="6.9941" y1="11.3563" x2="53.0058" y2="48.6437">
		<stop  offset="0.309" style="stop-color:#FFEA14"/>
		<stop  offset="0.389" style="stop-color:#FAEB1B"/>
		<stop  offset="0.509" style="stop-color:#EBED30"/>
		<stop  offset="0.6544" style="stop-color:#D2F252"/>
		<stop  offset="0.8196" style="stop-color:#B0F880"/>
		<stop  offset="1" style="stop-color:#85FFBC"/>
	</linearGradient>
	<path class="st0" d="M30,59.62C13.67,59.62,0.38,46.34,0.38,30C0.38,13.66,13.67,0.38,30,0.38c16.33,0,29.62,13.29,29.62,29.62
		C59.62,46.34,46.33,59.62,30,59.62z M30,1.38C14.22,1.38,1.38,14.22,1.38,30c0,15.78,12.84,28.62,28.62,28.62S58.62,45.78,58.62,30
		C58.62,14.22,45.78,1.38,30,1.38z"/>
	<g>
		<g>
			<linearGradient id="SVGID_2_" gradientUnits="userSpaceOnUse" x1="3.7987" y1="4.538" x2="72.2555" y2="75.1175">
				<stop  offset="0.309" style="stop-color:#FFEA14"/>
				<stop  offset="0.389" style="stop-color:#FAEB1B"/>
				<stop  offset="0.509" style="stop-color:#EBED30"/>
				<stop  offset="0.6544" style="stop-color:#D2F252"/>
				<stop  offset="0.8196" style="stop-color:#B0F880"/>
				<stop  offset="1" style="stop-color:#85FFBC"/>
			</linearGradient>
			<path class="st1" d="M44.99,42.68H15.01l-0.59-0.59V21.01l0.59-0.59h29.97l0.59,0.59V42.1L44.99,42.68z M15.6,41.51h28.8V21.59
				H15.6V41.51z"/>
		</g>
		<g>
			<linearGradient id="SVGID_3_" gradientUnits="userSpaceOnUse" x1="0.7272" y1="7.517" x2="69.184" y2="78.0965">
				<stop  offset="0.309" style="stop-color:#FFEA14"/>
				<stop  offset="0.389" style="stop-color:#FAEB1B"/>
				<stop  offset="0.509" style="stop-color:#EBED30"/>
				<stop  offset="0.6544" style="stop-color:#D2F252"/>
				<stop  offset="0.8196" style="stop-color:#B0F880"/>
				<stop  offset="1" style="stop-color:#85FFBC"/>
			</linearGradient>
			<path class="st2" d="M24.04,37.23c-3.13,0-5.68-2.55-5.68-5.68s2.55-5.68,5.68-5.68s5.68,2.55,5.68,5.68S27.17,37.23,24.04,37.23
				z M24.04,27.04c-2.49,0-4.51,2.02-4.51,4.51c0,2.49,2.02,4.51,4.51,4.51s4.51-2.02,4.51-4.51
				C28.55,29.07,26.53,27.04,24.04,27.04z"/>
		</g>
		<g>
			<linearGradient id="SVGID_4_" gradientUnits="userSpaceOnUse" x1="10.0319" y1="-1.5078" x2="78.4887" y2="69.0717">
				<stop  offset="0.309" style="stop-color:#FFEA14"/>
				<stop  offset="0.389" style="stop-color:#FAEB1B"/>
				<stop  offset="0.509" style="stop-color:#EBED30"/>
				<stop  offset="0.6544" style="stop-color:#D2F252"/>
				<stop  offset="0.8196" style="stop-color:#B0F880"/>
				<stop  offset="1" style="stop-color:#85FFBC"/>
			</linearGradient>
			<rect x="33.32" y="26.21" class="st3" width="8.33" height="1.17"/>
		</g>
		<g>
			<linearGradient id="SVGID_5_" gradientUnits="userSpaceOnUse" x1="8.5509" y1="-0.0713" x2="77.0077" y2="70.5081">
				<stop  offset="0.309" style="stop-color:#FFEA14"/>
				<stop  offset="0.389" style="stop-color:#FAEB1B"/>
				<stop  offset="0.509" style="stop-color:#EBED30"/>
				<stop  offset="0.6544" style="stop-color:#D2F252"/>
				<stop  offset="0.8196" style="stop-color:#B0F880"/>
				<stop  offset="1" style="stop-color:#85FFBC"/>
			</linearGradient>
			<rect x="33.32" y="29.17" class="st4" width="8.33" height="1.17"/>
		</g>
		<g>
			<linearGradient id="SVGID_6_" gradientUnits="userSpaceOnUse" x1="7.0699" y1="1.3651" x2="75.5267" y2="71.9446">
				<stop  offset="0.309" style="stop-color:#FFEA14"/>
				<stop  offset="0.389" style="stop-color:#FAEB1B"/>
				<stop  offset="0.509" style="stop-color:#EBED30"/>
				<stop  offset="0.6544" style="stop-color:#D2F252"/>
				<stop  offset="0.8196" style="stop-color:#B0F880"/>
				<stop  offset="1" style="stop-color:#85FFBC"/>
			</linearGradient>
			<rect x="33.32" y="32.14" class="st5" width="8.33" height="1.17"/>
		</g>
		<g>
			<linearGradient id="SVGID_7_" gradientUnits="userSpaceOnUse" x1="5.5886" y1="2.8018" x2="74.0454" y2="73.3813">
				<stop  offset="0.309" style="stop-color:#FFEA14"/>
				<stop  offset="0.389" style="stop-color:#FAEB1B"/>
				<stop  offset="0.509" style="stop-color:#EBED30"/>
				<stop  offset="0.6544" style="stop-color:#D2F252"/>
				<stop  offset="0.8196" style="stop-color:#B0F880"/>
				<stop  offset="1" style="stop-color:#85FFBC"/>
			</linearGradient>
			<rect x="33.32" y="35.1" class="st6" width="8.33" height="1.17"/>
		</g>
		<g>
			<linearGradient id="SVGID_8_" gradientUnits="userSpaceOnUse" x1="10.4753" y1="-1.9379" x2="78.9321" y2="68.6416">
				<stop  offset="0.309" style="stop-color:#FFEA14"/>
				<stop  offset="0.389" style="stop-color:#FAEB1B"/>
				<stop  offset="0.509" style="stop-color:#EBED30"/>
				<stop  offset="0.6544" style="stop-color:#D2F252"/>
				<stop  offset="0.8196" style="stop-color:#B0F880"/>
				<stop  offset="1" style="stop-color:#85FFBC"/>
			</linearGradient>
			<rect x="14.45" y="17.32" class="st7" width="30.53" height="1.17"/>
		</g>
	</g>
</g>
</svg>
