<?xml version="1.0" encoding="utf-8"?>
<!-- Generator: Adobe Illustrator 22.1.0, SVG Export Plug-In . SVG Version: 6.00 Build 0)  -->
<svg version="1.1" id="Layer_1" xmlns="http://www.w3.org/2000/svg" xmlns:xlink="http://www.w3.org/1999/xlink" x="0px" y="0px"
	 viewBox="0 0 380 50" style="enable-background:new 0 0 380 50;" xml:space="preserve">
<style type="text/css">
	.st0{fill:#FFFFFF;}
</style>
<g>
	<g>
		<g>
			<polygon class="st0" points="93.5,3.1 91.6,3.1 66.5,47.4 68.1,47.4 92.5,4.4 92.6,4.4 116.5,47.4 118.1,47.4 			"/>
			<path class="st0" d="M138.6,3.1l35.8,42.7h0.2V3.1h1.4v44.2h-2.2L138,4.6h-0.2v42.7h-1.4V3.1H138.6z"/>
			<path class="st0" d="M236.5,9.8c-0.9-1.5-2.1-2.8-3.6-3.8c-1.5-1-3.3-1.7-5.3-2.1c-2-0.4-4.3-0.6-6.6-0.6c-1.8,0-3.7,0.2-5.7,0.5
				s-3.7,0.9-5.3,1.7c-1.6,0.8-2.9,1.8-3.9,3.2c-1,1.3-1.5,2.9-1.5,4.9s0.5,3.6,1.6,4.8c1.1,1.2,2.4,2.2,4.1,2.9s3.6,1.3,5.8,1.8
				c2.1,0.4,4.3,0.9,6.6,1.3c2.5,0.5,4.8,1.1,6.9,1.5s4.1,1.2,5.7,2c1.6,0.8,2.9,1.9,3.8,3.3c1,1.4,1.4,3.2,1.4,5.5
				c0,2.1-0.5,3.9-1.6,5.4c-1.1,1.5-2.5,2.7-4.3,3.7s-3.7,1.7-5.9,2.1c-2.2,0.4-4.4,0.6-6.7,0.6c-3,0-5.7-0.3-8.2-0.9
				c-2.5-0.6-4.7-1.5-6.5-2.8c-1.8-1.3-3.3-2.9-4.3-4.9s-1.5-4.4-1.4-7.2h1.4c0,2.6,0.5,4.9,1.4,6.7c0.9,1.8,2.2,3.3,3.9,4.5
				c1.7,1.2,3.7,2,6,2.5c2.3,0.5,4.9,0.8,7.6,0.8c2,0,4.1-0.2,6.1-0.6c2-0.4,3.8-1,5.4-1.9c1.6-0.9,2.9-2,3.9-3.4
				c1-1.4,1.5-3,1.5-4.9c0-2.2-0.6-4-1.7-5.3c-1.2-1.3-2.6-2.4-4.4-3.1c-1.8-0.7-3.7-1.3-5.9-1.7s-4.3-0.8-6.2-1.2
				c-2.1-0.4-4.2-0.9-6.3-1.3c-2.1-0.5-4-1.1-5.7-1.9c-1.7-0.8-3-1.9-4.1-3.2s-1.5-3.1-1.5-5.2c0-2.2,0.5-4,1.6-5.5
				c1.1-1.4,2.5-2.6,4.2-3.5c1.7-0.9,3.6-1.5,5.8-1.9c2.1-0.4,4.2-0.5,6.4-0.5c2.6,0,5,0.2,7.2,0.7c2.2,0.5,4.1,1.2,5.7,2.3
				s2.9,2.5,3.9,4.2s1.5,3.8,1.7,6.3h-1.4C237.9,13.2,237.4,11.3,236.5,9.8z"/>
			<path class="st0" d="M265.3,25.3c0-3.2,0.5-6.1,1.6-8.9c1.1-2.8,2.6-5.3,4.6-7.4s4.5-3.8,7.5-5c3-1.2,6.5-1.9,10.4-1.9
				c3.9,0,7.4,0.6,10.4,1.9s5.5,2.9,7.5,5s3.6,4.5,4.6,7.4c1.1,2.8,1.6,5.8,1.6,8.9s-0.5,6.1-1.6,8.9c-1.1,2.8-2.6,5.3-4.6,7.4
				c-2,2.1-4.5,3.8-7.5,5c-3,1.2-6.5,1.8-10.4,1.8c-3.9,0-7.4-0.6-10.4-1.8c-3-1.2-5.5-2.9-7.5-5c-2-2.1-3.6-4.5-4.6-7.4
				C265.8,31.3,265.3,28.4,265.3,25.3z M266.8,25.3c0.1,3.2,0.6,6.1,1.7,8.8c1.1,2.7,2.6,5,4.5,6.9c1.9,1.9,4.3,3.5,7.1,4.5
				c2.8,1.1,5.9,1.7,9.5,1.7s6.7-0.5,9.5-1.7c2.8-1.1,5.1-2.6,7.1-4.5c1.9-1.9,3.4-4.3,4.5-6.9c1.1-2.7,1.6-5.6,1.7-8.8
				c-0.1-3.2-0.6-6.1-1.7-8.8c-1.1-2.7-2.6-5-4.5-6.9C304,7.6,301.7,6,298.9,5c-2.8-1.1-5.9-1.7-9.5-1.7S282.7,3.8,280,5
				c-2.8,1.1-5.1,2.6-7.1,4.5c-1.9,1.9-3.4,4.3-4.5,6.9C267.4,19.1,266.8,22,266.8,25.3z"/>
			<path class="st0" d="M341.1,3.1l35.8,42.7h0.2V3.1h1.4v44.2h-2.2L340.5,4.6h-0.2v42.7h-1.4V3.1H341.1z"/>
		</g>
		<path class="st0" d="M0,12.1v-9h9C5.7,5.8,2.7,8.8,0,12.1z M14.2,47.4L14.2,47.4h7.1l0,0c0-12.7,10.3-23,23-23v-7.1
			C27.7,17.3,14.2,30.8,14.2,47.4z M37.1,47.4L37.1,47.4h7.2v-7.2C40.3,40.2,37.1,43.4,37.1,47.4z M25.7,47.4L25.7,47.4h7.2l0,0
			C32.9,41.1,38,36,44.2,36v-7.2C34,28.8,25.7,37.1,25.7,47.4z M33.6,3.1H16.7C9.9,7.3,4.2,13,0,19.8v16.9C4,20.1,17,7.1,33.6,3.1z
			 M3.2,47.4L3.2,47.4h6.5l0,0c0-19.1,15.5-34.6,34.6-34.6V6.3C21.6,6.3,3.2,24.7,3.2,47.4z"/>
	</g>
	<g>
		<g>
			<polygon class="st0" points="115.4,49.2 92.6,8.1 69.2,49.2 63.3,49.2 90.5,1.2 94.6,1.2 121.3,49.2 			"/>
			<polygon class="st0" points="173,49.2 139.7,9.6 139.7,49.2 134.6,49.2 134.6,1.2 139.5,1.2 172.7,40.9 172.7,1.2 177.9,1.2 
				177.9,49.2 			"/>
			<path class="st0" d="M222,50.2c-3.1,0-6-0.3-8.7-0.9c-2.7-0.6-5.1-1.7-7.2-3c-2.1-1.4-3.7-3.3-4.9-5.6c-1.1-2.2-1.7-5-1.7-8.1
				l0.1-1.8h5.2v1.9c0,2.4,0.4,4.3,1.2,5.9c0.8,1.5,1.9,2.8,3.3,3.8c1.5,1,3.3,1.8,5.3,2.2c2.2,0.5,4.6,0.7,7.3,0.7
				c1.9,0,3.8-0.2,5.8-0.5c1.8-0.4,3.5-0.9,4.9-1.7c1.3-0.7,2.5-1.7,3.3-2.8c0.7-1.1,1.1-2.3,1.1-3.8c0-1.8-0.4-3.1-1.3-4.1
				c-1-1.1-2.2-2-3.7-2.6c-1.7-0.7-3.5-1.2-5.6-1.6c-2.2-0.4-4.3-0.8-6.3-1.2c-2.1-0.4-4.2-0.9-6.3-1.3c-2.2-0.5-4.3-1.2-6.1-2
				c-1.9-0.9-3.5-2.2-4.8-3.8c-1.3-1.7-1.9-3.8-1.9-6.4s0.6-4.8,2-6.6c1.2-1.7,2.9-3,4.9-4.1c1.9-1,4-1.7,6.3-2
				c2.2-0.4,4.5-0.6,6.7-0.6c2.7,0,5.2,0.3,7.5,0.7c2.4,0.5,4.5,1.4,6.4,2.6c1.9,1.2,3.4,2.8,4.5,4.8s1.8,4.3,1.9,7.1l0.1,2h-5.2
				l-0.1-1.8c-0.1-2-0.5-3.6-1.2-4.9c-0.7-1.3-1.8-2.4-3-3.2c-1.3-0.9-2.9-1.4-4.6-1.8c-1.9-0.4-4-0.6-6.3-0.6
				c-1.7,0-3.5,0.2-5.3,0.4c-1.8,0.3-3.4,0.7-4.8,1.5c-1.3,0.6-2.4,1.5-3.3,2.6c-0.7,1-1.1,2.2-1.1,3.8c0,1.5,0.4,2.7,1.1,3.5
				c0.9,1,2,1.8,3.5,2.5c1.5,0.7,3.4,1.2,5.3,1.6c2.1,0.4,4.4,0.9,6.6,1.3c2.5,0.5,4.8,1.1,7,1.5c2.3,0.5,4.4,1.2,6.1,2.1
				c1.9,1,3.4,2.2,4.5,3.9c1.2,1.7,1.8,3.9,1.8,6.6c0,2.5-0.6,4.7-2,6.5c-1.2,1.7-2.9,3.2-4.9,4.2c-1.9,1.1-4.1,1.8-6.5,2.3
				C226.8,50,224.4,50.2,222,50.2z"/>
			<path class="st0" d="M289.4,50.2c-4.1,0-7.9-0.6-11.1-2c-3.3-1.3-6-3.2-8.2-5.4c-2.2-2.3-3.9-5-5-8c-1.1-3-1.7-6.3-1.7-9.6
				s0.6-6.6,1.7-9.6c1.1-3,2.8-5.7,5-8c2.2-2.3,5-4.1,8.2-5.4s6.9-2,11.1-2c4.1,0,7.9,0.7,11.1,2c3.3,1.3,6,3.2,8.2,5.4
				c2.2,2.3,3.9,5,5,8c1.1,3,1.7,6.2,1.7,9.6c0,3.4-0.6,6.6-1.7,9.6c-1.1,3-2.8,5.7-5,8c-2.2,2.3-5,4.1-8.2,5.4
				C297.3,49.6,293.6,50.2,289.4,50.2z M268.6,25.3c0.1,2.9,0.5,5.7,1.5,8.1c1,2.5,2.3,4.5,4.1,6.3c1.8,1.8,3.9,3.2,6.4,4.1
				c2.6,1,5.5,1.5,8.8,1.5c3.3,0,6.2-0.5,8.8-1.5c2.5-1,4.7-2.4,6.4-4.1c1.8-1.8,3.1-3.8,4.1-6.3c1-2.5,1.5-5.2,1.5-8.1
				c-0.1-2.9-0.5-5.7-1.5-8.1c-1-2.5-2.3-4.5-4.1-6.3c-1.8-1.8-3.9-3.2-6.4-4.1c-2.6-1-5.5-1.5-8.8-1.5s-6.2,0.5-8.8,1.5
				c-2.5,1-4.7,2.4-6.4,4.1c-1.8,1.8-3.1,3.8-4.1,6.3C269.2,19.6,268.7,22.3,268.6,25.3z"/>
			<polygon class="st0" points="375.4,49.2 342.2,9.6 342.2,49.2 337,49.2 337,1.2 341.9,1.2 375.2,40.9 375.2,1.2 380.3,1.2 
				380.3,49.2 			"/>
		</g>
	</g>
</g>
</svg>
