<?xml version="1.0" encoding="utf-8"?>
<!-- Generator: Adobe Illustrator 23.0.1, SVG Export Plug-In . SVG Version: 6.00 Build 0)  -->
<svg version="1.1" id="Layer_1" xmlns="http://www.w3.org/2000/svg" xmlns:xlink="http://www.w3.org/1999/xlink" x="0px" y="0px"
	 viewBox="0 0 74 74" style="enable-background:new 0 0 74 74;" xml:space="preserve">
<style type="text/css">
	.st0{fill:#05283F;}
	.st1{opacity:0.27;fill:#FFFFFF;}
</style>
<g>
	<path class="st0" d="M0,74.03h74V0H0V74.03z"/>
	<path class="st1" d="M8.98,69.06c-2.21,0-4.01-1.8-4.01-4.01c0-2.21,1.8-4.01,4.01-4.01c2.21,0,4.01,1.8,4.01,4.01
		C12.99,67.26,11.19,69.06,8.98,69.06z M27.59,69.17c-2.21,0-4.01-1.79-4.01-4.01c0-2.21,1.79-4.01,4.01-4.01s4.01,1.79,4.01,4.01
		C31.6,67.38,29.81,69.17,27.59,69.17z M27.62,50.56l-4.15-4.15l4.15-4.15l4.15,4.15L27.62,50.56z M23.61,27.62
		c0-2.21,1.8-4.01,4.01-4.01c2.21,0,4.01,1.8,4.01,4.01c0,2.21-1.8,4.01-4.01,4.01C25.41,31.63,23.61,29.84,23.61,27.62z
		 M65.16,69.32l-4.15-4.15l4.15-4.15l4.15,4.15L65.16,69.32z M61.13,46.41c0-2.21,1.8-4.01,4.01-4.01c2.21,0,4.01,1.79,4.01,4.01
		s-1.79,4.01-4.01,4.01C62.92,50.42,61.13,48.62,61.13,46.41z M65.13,4.86c2.21,0,4.01,1.8,4.01,4.01c0,2.21-1.8,4.01-4.01,4.01
		c-2.21,0-4.01-1.8-4.01-4.01C61.13,6.66,62.92,4.86,65.13,4.86z M60.96,24.69l1.24-1.24l2.94,2.94l2.94-2.94l1.24,1.24l-2.94,2.94
		l2.94,2.94l-1.24,1.24l-2.94-2.94L62.2,31.8l-1.24-1.24l2.94-2.94L60.96,24.69z M46.38,4.72l4.15,4.15l-4.15,4.15l-4.15-4.15
		L46.38,4.72z M46.46,31.63c-2.21,0-4.01-1.79-4.01-4.01s1.79-4.01,4.01-4.01c2.21,0,4.01,1.79,4.01,4.01S48.68,31.63,46.46,31.63z
		 M50.47,46.41c0,2.21-1.8,4.01-4.01,4.01c-2.21,0-4.01-1.8-4.01-4.01c0-2.21,1.8-4.01,4.01-4.01C48.67,42.4,50.47,44.2,50.47,46.41
		z M42.2,62.23l1.24-1.24l2.94,2.94l2.94-2.94l1.24,1.24l-2.94,2.94l2.94,2.94l-1.24,1.24l-2.94-2.94l-2.94,2.94L42.2,68.1
		l2.94-2.94L42.2,62.23z M23.44,5.93l1.24-1.24l2.94,2.94l2.94-2.94l1.24,1.24l-2.94,2.94l2.94,2.94l-1.24,1.24l-2.94-2.94
		l-2.94,2.94l-1.24-1.24l2.94-2.94L23.44,5.93z M8.87,4.86c2.21,0,4.01,1.79,4.01,4.01s-1.79,4.01-4.01,4.01
		c-2.21,0-4.01-1.79-4.01-4.01S6.65,4.86,8.87,4.86z M8.87,23.47l4.15,4.15l-4.15,4.15l-4.15-4.15L8.87,23.47z M4.69,43.47
		l1.24-1.24l2.94,2.94l2.94-2.94l1.24,1.24l-2.94,2.94l2.94,2.94l-1.24,1.24l-2.94-2.94l-2.94,2.94l-1.24-1.24l2.94-2.94L4.69,43.47
		z"/>
</g>
</svg>
