<?xml version="1.0" encoding="utf-8"?>
<!-- Generator: Adobe Illustrator 23.0.1, SVG Export Plug-In . SVG Version: 6.00 Build 0)  -->
<svg version="1.1" id="Layer_1" xmlns="http://www.w3.org/2000/svg" xmlns:xlink="http://www.w3.org/1999/xlink" x="0px" y="0px"
	 viewBox="0 0 159 109" style="enable-background:new 0 0 159 109;" xml:space="preserve">
<style type="text/css">
	.st0{fill-rule:evenodd;clip-rule:evenodd;fill:#052741;}
	.st1{fill-rule:evenodd;clip-rule:evenodd;fill:#052741;fill-opacity:0.25;}
	.st2{fill-rule:evenodd;clip-rule:evenodd;fill:#052741;fill-opacity:0.5;}
</style>
<g>
	<g transform="translate(0 27)">
		<path class="st0" d="M31.8,0.5c4.1,0,8.1,0.8,11.8,2.4c3.7,1.6,7,3.8,9.8,6.6s5,6.1,6.7,9.8s2.5,7.7,2.5,11.9s-0.8,8.2-2.3,11.9
			c-1.6,3.7-3.7,7-6.5,9.8s-6,5-9.8,6.6s-7.8,2.4-12.1,2.4c-5.2,0-10-1.1-14.2-3.2v14.6c0,2.2-0.8,4.1-2.4,5.7s-3.6,2.4-6,2.4
			c-2.1,0-4-0.7-5.7-2.2S1,76,0.9,73.8V31.3c0-4.1,0.8-8.1,2.5-11.8s3.9-7,6.7-9.8s6.1-5,9.8-6.7S27.6,0.5,31.8,0.5z M15.5,30.5
			c0,2.1-0.4,4.8,1.5,9c1.2,3.7,3.2,6.2,6,7.5s6.5,1.5,11,0.5c4.6-1.1,8.1-2.9,10.5-5.5s3.8-6.4,4-11.5c0.3-5.3-1.3-9.5-4.9-12.5
			c-5.4-4.5-16.1-3.5-21.1-1S15.5,28.6,15.5,30.5z M98.8,0.4c4.1,0,8.1,0.8,11.8,2.4c3.7,1.6,7,3.8,9.8,6.6s5,6.1,6.7,9.8
			s2.5,7.7,2.5,12.1c0,4.2-0.8,8.2-2.4,11.9s-3.8,6.9-6.5,9.7s-6,5-9.7,6.6s-7.7,2.4-12.1,2.4c-4.2,0-8.2-0.8-11.9-2.3
			c-3.7-1.5-7-3.7-9.8-6.4c-2.8-2.8-5-6-6.6-9.7S68,35.7,68,31.3c0-4.2,0.8-8.2,2.3-11.9c1.6-3.7,3.7-6.9,6.5-9.7s6-5,9.8-6.6
			C90.4,1.5,94.5,0.6,98.8,0.4z M96.5,14c-4.1-0.2-9.2,2-12.5,6.5s-3.2,9.7-2.5,14.5s1,5.3,5.3,9c2.8,2.4,6.7,3.6,11.7,3.5
			c6.9,0,11.5-1.7,14-5c3.7-5,3.5-7.5,3.5-9.5s-0.3-11.6-5.5-15.5S100.6,14.2,96.5,14z"/>
		<path class="st0" d="M144.4,1.4c2.2,0,4,0.8,5.5,2.4s2.3,3.6,2.5,5.8v45c0,2.3-0.7,4.2-2.2,5.7c-1.4,1.5-3.4,2.4-5.8,2.5
			c-2.2,0-4.1-0.7-5.6-2c-1.5-1.4-2.5-3.3-2.8-5.7v-46c0.2-2.2,1.1-4,2.7-5.5C140.3,2.3,142.2,1.5,144.4,1.4z"/>
	</g>
	<path class="st1" d="M151.4,0.8C162.2,3.3,160,17,154,20.9c-4.5,2.9-15.1,2.7-17.9,0c-8.8-8.3-4.1-16.9-1-18.7
		C138.1,0.4,144.1-0.9,151.4,0.8z"/>
	<path class="st2" d="M135.4,8.1c-0.8,2.7-0.1,6.6,0.8,8.9c0.6,1.7,5.5,5.4,14.5,4c1-0.2,5.8-2.2,5.8-10.9c0-5.7-4.9-8.4-9-8.1
		C140.3,2.5,136.9,3.1,135.4,8.1z"/>
	<path class="st0" d="M138.6,14.6c1.3,3.3,7.7,3.3,9,3.3c6.8,0,6.1-7.3,3.4-10.3c-1.2-1.3-2.4-1.8-4.9-2.5S135.9,7.9,138.6,14.6z"/>
</g>
</svg>
