<svg xmlns="http://www.w3.org/2000/svg" width="159" height="109" viewBox="0 0 159 109">
  <defs>
    <linearGradient id="logo_poi_color-a" x1="50.758%" x2="50.758%" y1="100.25%" y2="-.75%">
      <stop offset="0%" stop-color="#6B62FF"></stop>
      <stop offset="47.525%" stop-color="#53A0FD"></stop>
      <stop offset="100%" stop-color="#70DDDE"></stop>
    </linearGradient>
  </defs>
  <g fill="none" fill-rule="evenodd">
    <g transform="translate(0 27)">
      <path fill="#6B62FF" d="M31.798.532C35.9466874.532 39.883648 1.33632529 43.609 2.945 47.334352 4.55367471 50.593986 6.75498603 53.388 9.549 56.182014 12.343014 58.4044917 15.602648 60.0555 19.328 61.7065083 23.053352 62.532 27.0326455 62.532 31.266 62.532 35.4993545 61.7488412 39.478648 60.1825 43.204 58.6161588 46.929352 56.4571804 50.188986 53.7055 52.983 50.9538196 55.777014 47.6941855 57.9783253 43.9265 59.587 40.1588145 61.1956747 36.1160216 62 31.798 62 26.5486404 62 21.8073545 60.9416773 17.574 58.825L17.574 73.43C17.574 75.6313443 16.7696747 77.5363253 15.161 79.145 13.5523253 80.7536747 11.5626785 81.558 9.192 81.558 7.07532275 81.558 5.19150826 80.8171741 3.5405 79.3355 1.88949175 77.8538259 1.02166709 76.0123443.937 73.811L.937 31.266C.937 27.1173126 1.76249175 23.180352 3.4135 19.455 5.06450826 15.729648 7.28698603 12.470014 10.081 9.676 12.875014 6.88198603 16.134648 4.65950826 19.86 3.0085 23.585352 1.35749175 27.5646455.532 31.798.532zM15.5 30.5C15.5 32.6166773 15.0791881 35.2742138 17 39.5 18.1605911 43.2093596 20.1605911 45.7093596 23 47 25.8394089 48.2906404 29.5060755 48.4573071 34 47.5 38.5596865 46.3930595 42.0596865 44.5597262 44.5 42 46.9403135 39.4402738 48.2736468 35.6069405 48.5 30.5 48.8333333 25.1666667 47.203 21 43.609 18 38.218 13.5 27.512387 14.4832698 22.5 17 17.487613 19.5167302 15.5 28.5526569 15.5 30.5zM98.782.405C102.930687.405 106.867648 1.20932529 110.593 2.818 114.318352 4.42667471 117.577986 6.62798603 120.372 9.422 123.166014 12.216014 125.388492 15.475648 127.0395 19.201 128.690508 22.926352 129.516 26.9479784 129.516 31.266 129.516 35.4993545 128.711675 39.4574816 127.103 43.1405 125.494325 46.8235184 123.31418 50.061986 120.5625 52.856 117.81082 55.650014 114.572352 57.8513253 110.847 59.46 107.121648 61.0686747 103.100022 61.873 98.782 61.873 94.5486455 61.873 90.569352 61.1110076 86.844 59.587 83.118648 58.0629924 79.859014 55.9251804 77.065 53.1735 74.270986 50.4218196 72.0696747 47.183352 70.461 43.458 68.8523253 39.732648 68.048 35.6686887 68.048 31.266 68.048 27.0326455 68.8311588 23.0745184 70.3975 19.3915 71.9638412 15.7084816 74.1228196 12.4911804 76.8745 9.7395 79.6261804 6.98781958 82.8858145 4.78650826 86.6535 3.1355 90.4211855 1.48449175 94.4639784.57433418 98.782.405zM96.5 14C92.4359797 13.8306658 87.3100807 16.0077477 84 20.5 80.6899193 24.9922523 80.7742023 30.2448182 81.5 35 82.2257977 39.7551818 82.543679 40.3339022 86.8125 44 89.6583807 46.4440652 93.554214 47.6107318 98.5 47.5 105.365354 47.5009346 110.03202 45.8256013 112.5 42.474 116.201969 37.446598 116 34.9473431 116 33 116 31.0526569 115.731874 21.405099 110.5 17.5 105.268126 13.594901 100.56402 14.1693342 96.5 14z"></path>
      <path fill="url(#logo_poi_color-a)" d="M144.382,1.431 C146.583344,1.431 148.424826,2.23532529 149.9065,3.844 C151.388174,5.45267471 152.213666,7.39998857 152.383,9.686 L152.383,54.644 C152.383,56.9300114 151.663341,58.8349924 150.224,60.359 C148.784659,61.8830076 146.837346,62.7296658 144.382,62.899 C142.180656,62.899 140.318008,62.2216734 138.794,60.867 C137.269992,59.5123266 136.338668,57.6073456 136,55.152 L136,9.178 C136.169334,6.97665566 137.058325,5.15634053 138.667,3.717 C140.275675,2.27765947 142.180656,1.51566709 144.382,1.431 Z"></path>
    </g>
    <path fill="#70DDDE" fill-opacity=".25" d="M151.432176,0.795703035 C162.243734,3.32398805 159.954052,17.0204542 153.971674,20.9025356 C149.442363,23.8416942 138.875968,23.5528898 136.061324,20.9025356 C127.28043,12.6341779 131.951413,4.04890803 135.035073,2.22173771 C138.118732,0.394567386 144.127807,-0.912425307 151.432176,0.795703035 Z"></path>
    <path fill="#70DDDE" fill-opacity=".5" d="M135.363132,8.09204432 C134.513903,10.7599091 135.307439,14.6540844 136.174941,17.0025744 C136.815124,18.7356664 141.642391,22.4170605 150.68604,21.0038036 C151.682032,20.8481594 156.466667,18.8027355 156.466667,10.1488303 C156.466667,4.46475377 151.518532,1.74492323 147.468307,2.01879351 C140.298495,2.50360577 136.947277,3.11542888 135.363132,8.09204432 Z"></path>
    <path fill="#70DDDE" d="M138.560159,14.5792672 C139.895148,17.8703359 146.274531,17.88 147.608848,17.88 C154.404641,17.88 153.6764,10.5405118 151.024262,7.54983038 C149.861518,6.23866372 148.575771,5.70494292 146.097148,5.07290974 C143.618525,4.44087656 135.868532,7.94376045 138.560159,14.5792672 Z"></path>
  </g>
</svg>