<?xml version="1.0" encoding="utf-8"?>
<!-- Generator: Adobe Illustrator 23.0.1, SVG Export Plug-In . SVG Version: 6.00 Build 0)  -->
<svg version="1.1" id="Layer_1" xmlns="http://www.w3.org/2000/svg" xmlns:xlink="http://www.w3.org/1999/xlink" x="0px" y="0px"
	 viewBox="0 0 800 228" style="enable-background:new 0 0 800 228;" xml:space="preserve">
<style type="text/css">
	.st0{fill:#052741;}
</style>
<g>
	<g>
		<g>
			<g>
				<g>
					<path class="st0" d="M329.18,32.77c-10.35,0-18.98,8.05-18.98,17.83v17.49h41.4v30.19h-41.4v113.57h-36.23V98.27h-24.15V68.09
						h24.15V48.3c0-29.04,23.86-47.73,51.47-47.73c22.14,0,34.21,12.07,34.21,12.07l-13.8,25.59
						C345.86,38.23,337.81,32.77,329.18,32.77z"/>
					<path class="st0" d="M507.27,68.09v143.76h-28.75l-5.17-16.1h-3.74c-5.75,7.19-18.4,17.54-41.98,17.54
						c-38.24,0-57.79-27.03-57.79-67.28V68.09h39.1v69.29c0,17.83,1.44,42.55,26.16,42.55c12.65,0,33.35-6.61,33.35-44.28V68.09
						H507.27z"/>
					<path class="st0" d="M587.06,97.13c-12.07,0-17.25,6.04-17.25,12.07c0,9.78,12.94,12.65,21.56,14.38
						c25.59,5.46,51.47,13.23,51.47,43.7c0,29.62-24.44,46-54.05,46c-33.06,0-58.65-20.13-60.38-50.6h35.37
						c0.86,8.62,6.61,19.84,24.15,19.84c14.66,0,18.11-7.76,18.11-13.8c0-10.64-10.06-13.8-19.84-16.1
						c-16.96-3.74-53.48-10.64-53.48-43.41c0-28.18,27.03-42.55,54.92-42.55c32.2,0,53.48,19.55,55.2,43.7h-35.36
						C606.32,105.46,601.72,97.13,587.06,97.13z"/>
					<path class="st0" d="M798.89,150.89H693.95c4.31,21.85,22.14,29.9,37.66,29.9c19.55,0,27.89-12.07,27.89-12.07h36.23
						c-10.93,28.75-37.09,44.56-65.27,44.56c-38.81,0-72.74-29.61-72.74-74.47c0-44.56,33.64-72.17,71.59-72.17
						C766.12,66.65,803.5,92.24,798.89,150.89z M696.25,121.85h64.69c-4.31-16.96-16.1-23.86-30.48-23.86
						C714.65,97.99,702,106.9,696.25,121.85z"/>
				</g>
			</g>
		</g>
	</g>
	<path class="st0" d="M210.95,122.4c0-6.82-3.86-12.81-10.07-15.63l-25.59-11.62l25.59-11.62c6.21-2.82,10.07-8.81,10.07-15.63
		c0-6.82-3.86-12.81-10.07-15.63l-61.27-27.81c-21.18-9.62-45.48-9.62-66.66,0L11.68,52.28C5.47,55.1,1.61,61.09,1.61,67.91
		c0,6.82,3.86,12.81,10.07,15.63l25.59,11.62l-25.59,11.62c-6.21,2.82-10.07,8.81-10.07,15.63c0,6.82,3.86,12.81,10.07,15.63
		l25.59,11.62l-25.59,11.62c-6.21,2.82-10.07,8.81-10.07,15.63c0,6.82,3.86,12.81,10.07,15.63l61.27,27.81
		c10.59,4.81,21.96,7.21,33.33,7.21s22.74-2.4,33.33-7.21l61.27-27.81c6.21-2.82,10.07-8.81,10.07-15.63
		c0-6.82-3.86-12.81-10.07-15.63l-25.59-11.62l25.59-11.62C207.09,135.21,210.94,129.22,210.95,122.4z M194.6,124.2l-56,25.42
		l56,25.47c0.96,0.44,1.16,1.22,1.16,1.8c0,0.58-0.2,1.36-1.16,1.8l-61.27,27.81c-17.19,7.8-36.91,7.81-54.1,0L17.96,178.7
		c-0.96-0.44-1.16-1.22-1.16-1.8c0-0.58,0.2-1.37,1.16-1.8l37.69-17.11l17.29,7.85c10.6,4.81,21.97,7.22,33.34,7.22
		c11.37,0,22.75-2.41,33.34-7.22l4.96-2.25l-19.05-8.64c-15.19,4.68-31.67,3.71-46.32-2.94L17.96,124.2
		c-0.96-0.44-1.16-1.22-1.16-1.8c0-0.58,0.2-1.37,1.16-1.8l37.69-17.11l17.31,7.86c10.59,4.81,21.96,7.21,33.32,7.21
		s22.74-2.4,33.32-7.21l4.96-2.25l-19.05-8.64c-15.18,4.67-31.65,3.71-46.28-2.94L17.96,69.7c-0.96-0.44-1.16-1.22-1.16-1.8
		c0-0.58,0.2-1.37,1.16-1.8l61.27-27.81c17.19-7.8,36.91-7.8,54.1,0L194.6,66.1c0.96,0.44,1.16,1.22,1.16,1.8
		c0,0.58-0.2,1.36-1.16,1.8l-56.02,25.43l56.02,25.46c0.96,0.44,1.16,1.22,1.16,1.8C195.76,122.98,195.56,123.76,194.6,124.2z"/>
</g>
</svg>
