<?xml version="1.0" encoding="utf-8"?>
<!-- Generator: Adobe Illustrator 23.0.1, SVG Export Plug-In . SVG Version: 6.00 Build 0)  -->
<svg version="1.1" id="Layer_1" xmlns="http://www.w3.org/2000/svg" xmlns:xlink="http://www.w3.org/1999/xlink" x="0px" y="0px"
	 viewBox="0 0 556 371" style="enable-background:new 0 0 556 371;" xml:space="preserve">
<style type="text/css">
	.st0{opacity:0.4;fill:url(#SVGID_1_);}
	.st1{enable-background:new    ;}
	.st2{fill:#FFFFFF;}
</style>
<linearGradient id="SVGID_1_" gradientUnits="userSpaceOnUse" x1="-5.250000e-02" y1="185.5" x2="556.0525" y2="185.5">
	<stop  offset="0" style="stop-color:#FFFFFF"/>
	<stop  offset="0.9987" style="stop-color:#FFFFFF;stop-opacity:0.3"/>
</linearGradient>
<path class="st0" d="M255.2,363.8L9.1,202.5c-12.2-8-12.2-25.9,0-34L255.2,7.2c13.8-9.1,31.7-9.1,45.6,0l246.1,161.4
	c12.2,8,12.2,25.9,0,34L300.8,363.8C287,372.9,269,372.9,255.2,363.8z"/>
<g>
	<g class="st1">
		<path class="st2" d="M315.5,278.6l5.6-3.7c4.5-3,8.1-1.4,9.8-0.2c2.2,1.6,1.6,3.2,0.7,4.1c1.2-0.5,3.8-1,6.2,0.7
			c1.7,1.2,3.8,3.9-0.7,6.8l-5.8,3.8L315.5,278.6z M327.8,279.8c2.2-1.5,1.2-2.7,0.4-3.3c-0.8-0.6-2.6-1.4-4.8,0.1l-2.9,1.9l4.3,3.2
			L327.8,279.8z M327.2,283.4l4.5,3.3l3-2c2.2-1.5,1.1-2.8,0.3-3.4c-0.8-0.6-2.8-1.3-4.8,0L327.2,283.4z"/>
		<path class="st2" d="M329.5,269.4l2.6-1.7l15.9,11.6l-2.6,1.7L329.5,269.4z"/>
		<path class="st2" d="M345.3,273.8c-3-2.2-3.3-5.6,0.2-7.8c3.5-2.3,8.4-1.9,11.4,0.3s3.3,5.6-0.2,7.9
			C353.1,276.3,348.3,276,345.3,273.8z M354.3,267.9c-1.8-1.3-4.6-1.6-6.6-0.3c-1.9,1.3-1.6,3.2,0.2,4.5s4.6,1.6,6.6,0.4
			C356.4,271.2,356.1,269.2,354.3,267.9z"/>
		<path class="st2" d="M365.3,258.7c-1.3-0.8-2.8-0.9-4.5,0.3c-2,1.3-1.4,3.1,0.4,4.4c1.8,1.3,4.3,1.9,6.5,0.4
			c1.5-1,1.5-1.9,0.7-2.8l2.6-1.7c1.9,1.8,1.9,4.2-1.3,6.2c-3.6,2.3-8.2,1.6-11-0.5c-2.9-2.1-3.7-5.3-0.1-7.6
			c3.6-2.3,7.1-1.8,9.3-0.4L365.3,258.7z"/>
		<path class="st2" d="M377.2,252.9l9.9,0.9l-3.2,2.1l-8.7-0.8l4.7,3.4l-2.6,1.7l-15.9-11.6l2.6-1.7l10,7.3l-0.7-6.1l3.2-2.1
			L377.2,252.9z"/>
		<path class="st2" d="M389,243.1c-1.3-0.8-2.8-0.9-4.5,0.3c-2,1.3-1.4,3.1,0.4,4.4c1.8,1.3,4.3,1.9,6.5,0.4c1.5-1,1.5-1.9,0.7-2.8
			l2.6-1.7c1.9,1.8,1.9,4.2-1.3,6.2c-3.6,2.3-8.2,1.6-11-0.5c-2.9-2.1-3.7-5.3-0.1-7.6c3.6-2.3,7.1-1.8,9.3-0.4L389,243.1z"/>
		<path class="st2" d="M385.1,233l2.6-1.7l6.8,5c-0.5-1.3,0.2-2.6,1.8-3.6c1.6-1,3.2-1.4,4.7-1.1c1.3,0.2,2.4,0.8,3.8,1.8l6.3,4.6
			l-2.6,1.7l-5.5-4c-1.8-1.3-3.7-2-5.6-0.8c-1.8,1.2-1.2,2.7,0.6,4.1l5.5,4l-2.6,1.7L385.1,233z"/>
		<path class="st2" d="M414.5,221.1l10.6,7.7l-2.6,1.7l-1.4-1c0.4,1.2-0.4,2.6-1.7,3.5c-3.3,2.2-8.2,1.8-11.2-0.4s-3.3-5.6,0-7.7
			c1.3-0.8,3.3-1.3,5.1-1l-1.4-1.1L414.5,221.1z M417.2,226.6c-1.8-1.3-4.6-1.6-6.6-0.3c-1.9,1.3-1.6,3.2,0.2,4.6s4.6,1.6,6.6,0.4
			C419.3,229.9,419.1,228,417.2,226.6z"/>
		<path class="st2" d="M414,213.5c1.1-0.7,2.7-0.6,3.8,0.1c1,0.7,1,1.9-0.1,2.6c-1,0.7-2.7,0.6-3.7-0.1
			C413,215.4,413,214.2,414,213.5z M418.5,218.5l2.6-1.7l10.6,7.7l-2.6,1.7L418.5,218.5z"/>
		<path class="st2" d="M425,214.3l2.6-1.7l1.5,1.1c-0.5-1.3,0.2-2.6,1.8-3.6c1.6-1,3.2-1.4,4.7-1.1c1.3,0.2,2.4,0.8,3.8,1.8l6.3,4.6
			l-2.6,1.7l-5.5-4c-1.8-1.3-3.7-2-5.6-0.8c-1.8,1.2-1.2,2.7,0.6,4.1l5.5,4l-2.6,1.7L425,214.3z"/>
	</g>
</g>
</svg>
