<?xml version="1.0" encoding="utf-8"?>
<!-- Generator: Adobe Illustrator 23.0.1, SVG Export Plug-In . SVG Version: 6.00 Build 0)  -->
<svg version="1.1" id="Layer_1" xmlns="http://www.w3.org/2000/svg" xmlns:xlink="http://www.w3.org/1999/xlink" x="0px" y="0px"
	 viewBox="0 0 556 371" style="enable-background:new 0 0 556 371;" xml:space="preserve">
<style type="text/css">
	.st0{opacity:0.4;fill:url(#SVGID_1_);}
	.st1{enable-background:new    ;}
	.st2{fill:#FFFFFF;}
</style>
<linearGradient id="SVGID_1_" gradientUnits="userSpaceOnUse" x1="-5.250000e-02" y1="184.5" x2="556.0525" y2="184.5">
	<stop  offset="0" style="stop-color:#FFFFFF"/>
	<stop  offset="0.9987" style="stop-color:#FFFFFF;stop-opacity:0.3"/>
</linearGradient>
<path class="st0" d="M255.2,362.8L9.1,201.5c-12.2-8-12.2-25.9,0-34L255.2,6.2c13.8-9.1,31.7-9.1,45.6,0l246.1,161.4
	c12.2,8,12.2,25.9,0,34L300.8,362.8C287,371.9,269,371.9,255.2,362.8z"/>
<g>
	<g>
		<g class="st1">
			<path class="st2" d="M320.5,278.5l4.5,3.3l6.8-4.5l2.3,1.7l-6.8,4.5l4.4,3.2l6.8-4.5l2.3,1.7l-9.5,6.2l-15.9-11.6l9.5-6.2
				l2.3,1.7L320.5,278.5z"/>
			<path class="st2" d="M333.6,274.1l2.6-1.7l1.5,1.1c-0.5-1.3,0.2-2.5,1.8-3.6c1.6-1,3.2-1.4,4.7-1.1c1.3,0.2,2.4,0.8,3.8,1.8
				l6.3,4.6l-2.6,1.7l-5.5-4c-1.8-1.3-3.8-2-5.6-0.8c-1.8,1.2-1.2,2.7,0.6,4.1l5.5,4l-2.6,1.7L333.6,274.1z"/>
			<path class="st2" d="M363.6,269.1c-0.3,0.3-1,0.9-1.8,1.4c-1.2,0.8-3.7,2.2-7.3-0.4l-4.9-3.6l-1.9,1.2l-2.1-1.5l1.9-1.2l-3.2-2.3
				l2.6-1.7l3.2,2.3l2.5-1.6l2.1,1.5l-2.5,1.6l4.4,3.2c1.8,1.3,2.7,1.1,3.7,0.5c0.4-0.3,1-0.7,1.2-0.9L363.6,269.1z"/>
			<path class="st2" d="M364.5,257.1c-0.5,0.2-0.7,0.3-1.1,0.6c-2.2,1.4-2.2,3.1,0.5,5l4.6,3.3l-2.6,1.7l-10.6-7.7l2.6-1.7l1.7,1.2
				c-0.5-1,0.1-2.6,1.5-3.6c0.4-0.3,0.8-0.4,1.2-0.5L364.5,257.1z"/>
			<path class="st2" d="M371.7,257.5c1.5,1.1,3.5,1.5,5.6,0.1c1.5-1,1.4-1.8,0.9-2.5l2.6-1.7c1.5,1.6,1.3,3.9-1.5,5.7
				c-3.7,2.4-8.2,1.6-11-0.5c-3.2-2.3-3.6-5.3-0.2-7.6c2.8-1.9,7.1-1.8,9.9,0.2c0.4,0.3,0.9,0.6,1.4,1.2L371.7,257.5z M369.9,256.1
				l5.4-3.5c-1.5-1.1-3.5-1-5.1,0C368.7,253.6,368.3,255,369.9,256.1z"/>
			<path class="st2" d="M380.3,245.5c-0.4-1.2,0.4-2.6,1.7-3.5c3.3-2.2,8.2-1.8,11.2,0.4s3.3,5.6,0,7.7c-1.3,0.8-3.3,1.3-5.1,1
				l6.8,4.9l-2.6,1.7l-15.9-11.6l2.6-1.7L380.3,245.5z M384.2,248.3c1.8,1.3,4.6,1.6,6.6,0.3c1.9-1.3,1.6-3.2-0.2-4.6
				s-4.6-1.6-6.6-0.4C382.1,245,382.4,247,384.2,248.3z"/>
			<path class="st2" d="M398.4,240c1.5,1.1,3.5,1.5,5.6,0.1c1.5-0.9,1.4-1.8,0.9-2.5l2.6-1.7c1.5,1.6,1.3,3.9-1.5,5.7
				c-3.7,2.4-8.2,1.6-11-0.5c-3.2-2.3-3.6-5.3-0.2-7.6c2.8-1.9,7.1-1.8,9.9,0.2c0.4,0.3,0.9,0.6,1.4,1.2L398.4,240z M396.6,238.7
				l5.4-3.5c-1.5-1.1-3.5-1-5.1,0C395.4,236.1,395,237.5,396.6,238.7z"/>
			<path class="st2" d="M403,228.6l2.6-1.7l1.5,1.1c-0.5-1.3,0.2-2.6,1.8-3.6c1.6-1,3.2-1.4,4.7-1.1c1.3,0.2,2.4,0.8,3.8,1.8
				l6.3,4.6l-2.6,1.7l-5.5-4c-1.8-1.3-3.7-2-5.6-0.8c-1.8,1.2-1.2,2.7,0.6,4.1l5.5,4l-2.6,1.7L403,228.6z"/>
			<path class="st2" d="M424.3,223.1c1.5,1.1,3.5,1.5,5.6,0.1c1.5-1,1.4-1.8,0.9-2.5l2.6-1.7c1.5,1.6,1.3,3.9-1.5,5.7
				c-3.7,2.4-8.2,1.6-11-0.5c-3.2-2.3-3.6-5.3-0.2-7.6c2.8-1.9,7.1-1.8,9.9,0.2c0.4,0.3,0.9,0.6,1.4,1.2L424.3,223.1z M422.4,221.7
				l5.4-3.5c-1.5-1.1-3.5-1-5.1,0C421.2,219.2,420.9,220.6,422.4,221.7z"/>
			<path class="st2" d="M438.8,205.2l10.6,7.7l-2.6,1.7l-1.5-1.1c0.5,1.3-0.2,2.6-1.8,3.6c-1.6,1-3.2,1.4-4.7,1.1
				c-1.3-0.2-2.4-0.8-3.8-1.8l-6.3-4.6l2.6-1.7l5.5,4c1.8,1.3,3.8,2,5.6,0.8c1.8-1.2,1.2-2.7-0.6-4.1l-5.5-4L438.8,205.2z"/>
			<path class="st2" d="M451.5,200.1c-0.5,0.2-0.7,0.3-1.1,0.6c-2.2,1.4-2.2,3.1,0.5,5l4.6,3.3l-2.6,1.7l-10.6-7.7l2.6-1.7l1.7,1.2
				c-0.5-1,0.1-2.6,1.5-3.6c0.4-0.3,0.8-0.4,1.2-0.6L451.5,200.1z"/>
			<path class="st2" d="M466.5,197.6c2.2,1.6,1.2,3.6-1.1,5.2c-2.4,1.5-5.8,1.9-8.3,0.1l2.5-1.6c1.4,1,2.8,0.8,4,0
				c1-0.7,1.5-1.4,0.6-2.1c-1-0.7-2.2-0.1-5.3,0.8c-2.1,0.6-3.7,0.9-5.6-0.4c-2-1.5-1.2-3.5,1-4.9c2.3-1.5,5.7-1.6,7.8-0.1l-2.5,1.6
				c-1-0.7-2.1-0.9-3.4,0c-0.9,0.6-1.2,1.3-0.4,1.9c0.9,0.7,2,0.1,4.8-0.7C462.6,196.8,464.5,196.2,466.5,197.6z"/>
		</g>
	</g>
</g>
</svg>
