<?xml version="1.0" encoding="utf-8"?>
<!-- Generator: Adobe Illustrator 23.0.1, SVG Export Plug-In . SVG Version: 6.00 Build 0)  -->
<svg version="1.1" id="Layer_1" xmlns="http://www.w3.org/2000/svg" xmlns:xlink="http://www.w3.org/1999/xlink" x="0px" y="0px"
	 viewBox="0 0 556 371" style="enable-background:new 0 0 556 371;" xml:space="preserve">
<style type="text/css">
	.st0{opacity:0.4;fill:url(#SVGID_1_);}
	.st1{enable-background:new    ;}
	.st2{fill:#FFFFFF;}
</style>
<linearGradient id="SVGID_1_" gradientUnits="userSpaceOnUse" x1="-5.250000e-02" y1="185.5" x2="556.0525" y2="185.5">
	<stop  offset="0" style="stop-color:#FFFFFF"/>
	<stop  offset="0.9987" style="stop-color:#FFFFFF;stop-opacity:0.3"/>
</linearGradient>
<path class="st0" d="M255.2,363.8L9.1,202.5c-12.2-8-12.2-25.9,0-34L255.2,7.2c13.8-9.1,31.7-9.1,45.6,0l246.1,161.4
	c12.2,8,12.2,25.9,0,34L300.8,363.8C287,372.9,269,372.9,255.2,363.8z"/>
<g>
	<g>
		<g class="st1">
			<path class="st2" d="M341.9,276.2c2.4,2.7,1.7,6.5-2.3,9.1c-5.4,3.5-12.5,2.8-17-0.4c-4.3-3.1-5.1-8.2,0-11.5
				c4.9-3.2,10.3-3,14.3-0.8l-2.8,1.9c-2.6-1.3-6-1.4-8.7,0.4c-3.8,2.5-3.1,6,0,8.3c3.3,2.4,8.3,2.9,12.2,0.3
				c1.9-1.2,2.6-3.6,1.3-5.2L341.9,276.2z"/>
			<path class="st2" d="M348.9,264.1l10.6,7.7l-2.6,1.7l-1.5-1.1c0.5,1.3-0.2,2.5-1.8,3.6c-1.6,1-3.2,1.4-4.7,1.1
				c-1.3-0.2-2.4-0.8-3.8-1.8l-6.3-4.6l2.6-1.7l5.5,4c1.8,1.3,3.8,2,5.6,0.8c1.8-1.2,1.2-2.7-0.6-4.1l-5.5-4L348.9,264.1z"/>
			<path class="st2" d="M368,262.2c2.2,1.6,1.2,3.6-1.1,5.2c-2.4,1.5-5.8,2-8.3,0.1l2.5-1.6c1.4,1,2.8,0.8,4,0
				c1-0.7,1.5-1.4,0.6-2.1c-1-0.7-2.2-0.1-5.3,0.8c-2.1,0.6-3.7,0.9-5.6-0.5c-2-1.5-1.2-3.5,1-4.9c2.3-1.5,5.7-1.6,7.8-0.1l-2.5,1.6
				c-1-0.7-2.1-0.9-3.4,0c-0.9,0.6-1.2,1.3-0.4,1.9c0.9,0.7,2,0.1,4.8-0.7C364,261.3,366,260.8,368,262.2z"/>
			<path class="st2" d="M379.3,258.8c-0.3,0.3-1,0.9-1.8,1.4c-1.2,0.8-3.7,2.2-7.3-0.4l-4.9-3.6l-1.9,1.2l-2.1-1.5l1.9-1.2l-3.2-2.3
				l2.6-1.7l3.2,2.3l2.5-1.6l2.1,1.5l-2.5,1.6l4.4,3.2c1.8,1.3,2.7,1.1,3.7,0.5c0.4-0.3,1-0.7,1.2-0.9L379.3,258.8z"/>
			<path class="st2" d="M375.4,254.1c-3-2.2-3.3-5.6,0.2-7.8c3.5-2.3,8.4-1.9,11.4,0.3c3,2.2,3.3,5.6-0.2,7.9
				C383.2,256.6,378.4,256.2,375.4,254.1z M384.4,248.2c-1.8-1.3-4.6-1.6-6.6-0.3c-1.9,1.3-1.6,3.2,0.2,4.6s4.6,1.6,6.6,0.4
				C386.5,251.4,386.2,249.5,384.4,248.2z"/>
			<path class="st2" d="M408.7,239.6l-5.9-4.3c-1.7-1.2-3.4-1.6-4.8-0.7c-1.3,0.9-1.5,2.1,1,3.9l5.4,3.9l-2.6,1.7l-6-4.4
				c-1.7-1.2-3.3-1.6-4.7-0.7c-1.3,0.9-1.6,2.1,1,3.9l5.4,3.9l-2.6,1.7l-10.6-7.7l2.6-1.7l1.5,1.1c-0.5-1-0.1-2.3,1.3-3.3
				c2-1.3,3.8-1.3,5.3-0.9c-0.5-1.1-0.1-2.6,1.5-3.6c3.3-2.2,6.1-1,8.1,0.4l6.7,4.9L408.7,239.6z"/>
			<path class="st2" d="M411.8,231.3c1.5,1.1,3.5,1.5,5.6,0.1c1.5-0.9,1.4-1.8,0.9-2.5l2.6-1.7c1.5,1.6,1.3,3.9-1.5,5.7
				c-3.7,2.4-8.2,1.6-11-0.5c-3.2-2.3-3.6-5.3-0.2-7.6c2.8-1.9,7.1-1.8,9.9,0.2c0.4,0.3,0.9,0.6,1.4,1.2L411.8,231.3z M410,229.9
				l5.4-3.5c-1.5-1.1-3.5-1-5.1,0C408.8,227.4,408.4,228.8,410,229.9z"/>
			<path class="st2" d="M425.6,217c-0.5,0.2-0.7,0.3-1.1,0.6c-2.2,1.4-2.2,3.1,0.5,5l4.6,3.3l-2.6,1.7l-10.6-7.7l2.6-1.7l1.7,1.2
				c-0.5-1,0.1-2.6,1.5-3.6c0.4-0.3,0.8-0.4,1.2-0.5L425.6,217z"/>
			<path class="st2" d="M440.6,214.6c2.2,1.6,1.2,3.6-1.1,5.2c-2.4,1.5-5.8,1.9-8.3,0.1l2.5-1.6c1.4,1,2.8,0.8,4,0
				c1-0.7,1.5-1.4,0.6-2.1c-1-0.7-2.2-0.1-5.3,0.8c-2.1,0.6-3.7,0.9-5.6-0.4c-2-1.5-1.2-3.5,1-4.9c2.3-1.5,5.7-1.6,7.8-0.1l-2.5,1.6
				c-1-0.7-2.1-0.9-3.4,0c-0.9,0.6-1.2,1.3-0.4,1.9c0.9,0.7,2,0.1,4.8-0.7C436.7,213.7,438.7,213.2,440.6,214.6z"/>
		</g>
	</g>
</g>
</svg>
