<?xml version="1.0" encoding="utf-8"?>
<!-- Generator: Adobe Illustrator 23.0.1, SVG Export Plug-In . SVG Version: 6.00 Build 0)  -->
<svg version="1.1" id="Layer_1" xmlns="http://www.w3.org/2000/svg" xmlns:xlink="http://www.w3.org/1999/xlink" x="0px" y="0px"
	 viewBox="0 0 556 371" style="enable-background:new 0 0 556 371;" xml:space="preserve">
<style type="text/css">
	.st0{fill:url(#SVGID_1_);}
	.st1{enable-background:new    ;}
	.st2{fill:#052741;}
</style>
<linearGradient id="SVGID_1_" gradientUnits="userSpaceOnUse" x1="-79.8388" y1="455.5471" x2="372.6508" y2="114.0044" gradientTransform="matrix(1 0 0 -1 0 371.276)">
	<stop  offset="0.309" style="stop-color:#FFEA14"/>
	<stop  offset="0.389" style="stop-color:#FAEB1B"/>
	<stop  offset="0.509" style="stop-color:#EBED30"/>
	<stop  offset="0.6544" style="stop-color:#D2F252"/>
	<stop  offset="0.8196" style="stop-color:#B0F880"/>
	<stop  offset="1" style="stop-color:#85FFBC"/>
</linearGradient>
<path class="st0" d="M255.11,363.33L9.98,202.6c-12.18-7.99-12.18-25.84,0-33.83L255.11,8.04c13.78-9.04,31.62-9.04,45.4,0
	l245.13,160.73c12.18,7.99,12.18,25.84,0,33.83L300.51,363.33C286.72,372.37,268.89,372.37,255.11,363.33z"/>
<g>
	<g>
		<g class="st1">
			<path class="st2" d="M341.89,276.25c2.36,2.73,1.74,6.48-2.3,9.12c-5.38,3.52-12.54,2.83-17.01-0.44
				c-4.32-3.15-5.12-8.17,0.05-11.55c4.89-3.2,10.32-2.95,14.27-0.78l-2.84,1.86c-2.58-1.33-6.03-1.37-8.73,0.4
				c-3.78,2.48-3.08,5.98,0.03,8.26c3.27,2.39,8.26,2.93,12.25,0.32c1.9-1.25,2.61-3.56,1.33-5.25L341.89,276.25z"/>
			<path class="st2" d="M348.93,264.06l10.59,7.73l-2.56,1.68l-1.48-1.08c0.46,1.28-0.2,2.55-1.82,3.62
				c-1.57,1.03-3.22,1.36-4.72,1.11c-1.34-0.23-2.39-0.77-3.84-1.83l-6.3-4.59l2.56-1.68l5.48,4c1.82,1.33,3.75,1.99,5.58,0.79
				c1.79-1.17,1.24-2.74-0.57-4.06l-5.48-4L348.93,264.06z"/>
			<path class="st2" d="M367.96,262.17c2.21,1.61,1.25,3.65-1.14,5.22c-2.35,1.54-5.81,1.95-8.31,0.12l2.49-1.63
				c1.39,1.01,2.78,0.79,4-0.01c1.01-0.66,1.47-1.4,0.56-2.07c-1-0.73-2.17-0.06-5.34,0.82c-2.1,0.59-3.72,0.9-5.56-0.45
				c-2-1.46-1.19-3.47,1.04-4.93c2.33-1.52,5.71-1.63,7.77-0.12l-2.49,1.63c-1-0.73-2.15-0.86-3.4-0.04
				c-0.87,0.57-1.17,1.33-0.42,1.88c0.91,0.66,2.03,0.08,4.78-0.68C364.05,261.33,366.03,260.76,367.96,262.17z"/>
			<path class="st2" d="M379.33,258.81c-0.33,0.31-1.01,0.85-1.77,1.35c-1.25,0.82-3.71,2.21-7.28-0.4l-4.93-3.6l-1.86,1.22
				l-2.07-1.51l1.86-1.22l-3.21-2.34l2.56-1.68l3.2,2.34l2.52-1.65l2.07,1.51l-2.52,1.65l4.37,3.19c1.84,1.34,2.66,1.12,3.67,0.46
				c0.4-0.26,0.99-0.71,1.2-0.91L379.33,258.81z"/>
			<path class="st2" d="M375.4,254.06c-3-2.19-3.29-5.56,0.19-7.83c3.52-2.31,8.37-1.93,11.37,0.26c3,2.19,3.29,5.56-0.23,7.87
				C383.24,256.63,378.4,256.25,375.4,254.06z M384.4,248.16c-1.82-1.33-4.63-1.62-6.61-0.33c-1.93,1.26-1.65,3.22,0.17,4.55
				s4.63,1.62,6.56,0.36C386.49,251.45,386.21,249.49,384.4,248.16z"/>
			<path class="st2" d="M408.68,239.59l-5.93-4.33c-1.68-1.23-3.36-1.61-4.79-0.67c-1.29,0.85-1.53,2.07,0.99,3.91l5.39,3.93
				l-2.56,1.68l-5.96-4.35c-1.68-1.23-3.29-1.62-4.72-0.68c-1.29,0.85-1.58,2.1,0.94,3.94l5.39,3.93l-2.56,1.68l-10.59-7.73
				l2.56-1.68l1.48,1.08c-0.51-1.02-0.13-2.34,1.31-3.28c2-1.31,3.82-1.34,5.34-0.89c-0.55-1.12-0.08-2.56,1.47-3.58
				c3.29-2.15,6.13-0.99,8.11,0.45l6.71,4.89L408.68,239.59z"/>
			<path class="st2" d="M411.79,231.26c1.55,1.09,3.55,1.48,5.62,0.13c1.46-0.96,1.36-1.77,0.94-2.54l2.58-1.69
				c1.47,1.56,1.34,3.91-1.46,5.74c-3.69,2.42-8.16,1.63-11.04-0.48c-3.18-2.32-3.62-5.34-0.16-7.6c2.84-1.86,7.14-1.82,9.85,0.16
				c0.37,0.27,0.87,0.63,1.43,1.21L411.79,231.26z M409.97,229.9l5.36-3.51c-1.48-1.08-3.51-1.04-5.06-0.02
				C408.76,227.36,408.4,228.76,409.97,229.9z"/>
			<path class="st2" d="M425.64,217c-0.49,0.2-0.73,0.32-1.12,0.58c-2.19,1.43-2.18,3.1,0.46,5.02l4.57,3.33l-2.56,1.68l-10.59-7.73
				l2.56-1.68l1.71,1.24c-0.48-1.04,0.08-2.61,1.54-3.56c0.4-0.26,0.77-0.44,1.17-0.55L425.64,217z"/>
			<path class="st2" d="M440.63,214.57c2.21,1.61,1.25,3.65-1.14,5.22c-2.35,1.54-5.81,1.95-8.31,0.12l2.49-1.63
				c1.39,1.01,2.78,0.79,4-0.01c1.01-0.66,1.47-1.4,0.56-2.06c-1-0.73-2.17-0.06-5.34,0.82c-2.1,0.59-3.72,0.9-5.56-0.45
				c-2-1.46-1.19-3.47,1.04-4.93c2.33-1.52,5.71-1.63,7.77-0.12l-2.49,1.63c-1-0.73-2.15-0.86-3.4-0.04
				c-0.87,0.57-1.17,1.33-0.42,1.88c0.91,0.66,2.03,0.08,4.78-0.68C436.72,213.73,438.7,213.16,440.63,214.57z"/>
		</g>
	</g>
</g>
</svg>
