<?xml version="1.0" encoding="utf-8"?>
<!-- Generator: Adobe Illustrator 23.0.1, SVG Export Plug-In . SVG Version: 6.00 Build 0)  -->
<svg version="1.1" id="Layer_1" xmlns="http://www.w3.org/2000/svg" xmlns:xlink="http://www.w3.org/1999/xlink" x="0px" y="0px"
	 viewBox="0 0 556 371" style="enable-background:new 0 0 556 371;" xml:space="preserve">
<style type="text/css">
	.st0{fill:url(#SVGID_1_);}
	.st1{enable-background:new    ;}
	.st2{fill:#052741;}
</style>
<linearGradient id="SVGID_1_" gradientUnits="userSpaceOnUse" x1="-79.8388" y1="455.5471" x2="372.6508" y2="114.0044" gradientTransform="matrix(1 0 0 -1 0 371.276)">
	<stop  offset="0.309" style="stop-color:#FFEA14"/>
	<stop  offset="0.389" style="stop-color:#FAEB1B"/>
	<stop  offset="0.509" style="stop-color:#EBED30"/>
	<stop  offset="0.6544" style="stop-color:#D2F252"/>
	<stop  offset="0.8196" style="stop-color:#B0F880"/>
	<stop  offset="1" style="stop-color:#85FFBC"/>
</linearGradient>
<path class="st0" d="M255.11,363.33L9.98,202.6c-12.18-7.99-12.18-25.84,0-33.83L255.11,8.04c13.78-9.04,31.62-9.04,45.4,0
	l245.13,160.73c12.18,7.99,12.18,25.84,0,33.83L300.51,363.33C286.72,372.37,268.89,372.37,255.11,363.33z"/>
<g>
	<g>
		<g>
			<g class="st1">
				<path class="st2" d="M320.51,278.55l4.5,3.28l6.79-4.45l2.34,1.71l-6.79,4.45l4.39,3.2l6.79-4.45l2.34,1.71l-9.49,6.22
					l-15.91-11.61l9.49-6.22l2.34,1.71L320.51,278.55z"/>
				<path class="st2" d="M333.59,274.11l2.56-1.68l1.48,1.08c-0.45-1.28,0.2-2.55,1.82-3.62c1.57-1.03,3.22-1.36,4.72-1.11
					c1.34,0.23,2.39,0.77,3.84,1.83l6.3,4.59l-2.56,1.68l-5.48-4c-1.82-1.33-3.75-1.98-5.58-0.78c-1.79,1.17-1.25,2.73,0.57,4.06
					l5.48,4l-2.56,1.68L333.59,274.11z"/>
				<path class="st2" d="M363.61,269.11c-0.33,0.31-1.02,0.85-1.77,1.35c-1.25,0.82-3.71,2.21-7.28-0.4l-4.93-3.6l-1.86,1.22
					l-2.07-1.51l1.86-1.22l-3.2-2.34l2.56-1.68l3.2,2.34l2.51-1.65l2.07,1.51l-2.51,1.65l4.36,3.18c1.84,1.34,2.66,1.12,3.67,0.46
					c0.4-0.26,0.99-0.71,1.2-0.91L363.61,269.11z"/>
				<path class="st2" d="M364.46,257.07c-0.49,0.2-0.73,0.32-1.12,0.58c-2.19,1.43-2.18,3.1,0.46,5.02l4.57,3.33l-2.56,1.68
					l-10.59-7.73l2.56-1.68l1.71,1.24c-0.48-1.04,0.09-2.61,1.54-3.56c0.4-0.26,0.77-0.44,1.17-0.55L364.46,257.07z"/>
				<path class="st2" d="M371.73,257.5c1.55,1.1,3.55,1.48,5.62,0.13c1.46-0.95,1.36-1.77,0.94-2.54l2.58-1.69
					c1.47,1.56,1.34,3.91-1.46,5.74c-3.69,2.42-8.16,1.63-11.04-0.48c-3.18-2.32-3.62-5.34-0.16-7.6c2.84-1.86,7.14-1.81,9.85,0.16
					c0.36,0.27,0.86,0.63,1.43,1.21L371.73,257.5z M369.91,256.14l5.36-3.51c-1.48-1.08-3.51-1.03-5.06-0.02
					C368.7,253.6,368.34,254.99,369.91,256.14z"/>
				<path class="st2" d="M380.32,245.48c-0.39-1.23,0.41-2.63,1.68-3.46c3.34-2.19,8.18-1.8,11.18,0.39c3,2.19,3.29,5.56-0.05,7.74
					c-1.27,0.83-3.34,1.31-5.09,0.97l6.75,4.93l-2.56,1.68l-15.91-11.61l2.56-1.68L380.32,245.48z M384.18,248.3
					c1.82,1.33,4.63,1.62,6.61,0.33c1.93-1.26,1.65-3.22-0.17-4.55c-1.82-1.33-4.63-1.62-6.56-0.36
					C382.09,245.02,382.37,246.98,384.18,248.3z"/>
				<path class="st2" d="M398.42,240.02c1.55,1.09,3.55,1.48,5.62,0.13c1.46-0.96,1.36-1.77,0.94-2.54l2.58-1.69
					c1.47,1.56,1.34,3.91-1.46,5.74c-3.69,2.42-8.16,1.63-11.04-0.48c-3.18-2.32-3.62-5.34-0.16-7.6c2.84-1.86,7.14-1.82,9.85,0.16
					c0.36,0.27,0.86,0.63,1.43,1.21L398.42,240.02z M396.6,238.66l5.36-3.51c-1.48-1.08-3.51-1.04-5.06-0.02
					C395.39,236.12,395.03,237.51,396.6,238.66z"/>
				<path class="st2" d="M403.02,228.63l2.56-1.68l1.48,1.08c-0.46-1.28,0.2-2.55,1.82-3.62c1.57-1.03,3.22-1.36,4.72-1.11
					c1.34,0.23,2.39,0.77,3.84,1.83l6.3,4.6l-2.56,1.68l-5.48-4c-1.82-1.33-3.75-1.98-5.58-0.78c-1.79,1.17-1.25,2.74,0.57,4.06
					l5.48,4l-2.56,1.68L403.02,228.63z"/>
				<path class="st2" d="M424.26,223.09c1.54,1.09,3.55,1.48,5.62,0.13c1.46-0.95,1.36-1.77,0.94-2.54l2.58-1.69
					c1.47,1.56,1.34,3.91-1.46,5.74c-3.69,2.42-8.16,1.63-11.04-0.48c-3.18-2.32-3.62-5.34-0.16-7.6c2.84-1.86,7.14-1.82,9.85,0.16
					c0.36,0.27,0.86,0.63,1.43,1.21L424.26,223.09z M422.45,221.73l5.36-3.51c-1.48-1.08-3.51-1.04-5.06-0.02
					C421.23,219.19,420.88,220.59,422.45,221.73z"/>
				<path class="st2" d="M438.8,205.2l10.59,7.73l-2.56,1.68l-1.48-1.08c0.46,1.28-0.2,2.56-1.82,3.62
					c-1.57,1.03-3.22,1.36-4.72,1.11c-1.34-0.23-2.39-0.77-3.84-1.83l-6.3-4.59l2.56-1.68l5.48,4c1.82,1.33,3.75,1.98,5.58,0.78
					c1.79-1.17,1.25-2.74-0.57-4.06l-5.48-4L438.8,205.2z"/>
				<path class="st2" d="M451.48,200.07c-0.49,0.2-0.73,0.32-1.12,0.58c-2.19,1.43-2.18,3.09,0.46,5.02l4.57,3.33l-2.56,1.68
					l-10.59-7.73l2.56-1.68l1.71,1.24c-0.48-1.04,0.08-2.61,1.54-3.56c0.4-0.26,0.77-0.44,1.17-0.55L451.48,200.07z"/>
				<path class="st2" d="M466.48,197.65c2.21,1.61,1.25,3.65-1.14,5.22c-2.35,1.54-5.81,1.95-8.31,0.12l2.49-1.63
					c1.39,1.01,2.78,0.79,4-0.01c1.01-0.66,1.47-1.4,0.56-2.07c-1-0.73-2.17-0.06-5.34,0.82c-2.1,0.59-3.72,0.9-5.56-0.45
					c-2-1.46-1.19-3.47,1.04-4.93c2.33-1.52,5.71-1.63,7.77-0.12l-2.49,1.63c-1-0.73-2.15-0.86-3.4-0.04
					c-0.87,0.57-1.17,1.33-0.42,1.88c0.91,0.66,2.03,0.08,4.78-0.68C462.56,196.81,464.54,196.23,466.48,197.65z"/>
			</g>
		</g>
	</g>
</g>
</svg>
