<?xml version="1.0" encoding="utf-8"?>
<!-- Generator: Adobe Illustrator 23.0.1, SVG Export Plug-In . SVG Version: 6.00 Build 0)  -->
<svg version="1.1" id="Layer_1" xmlns="http://www.w3.org/2000/svg" xmlns:xlink="http://www.w3.org/1999/xlink" x="0px" y="0px"
	 viewBox="0 0 556 371" style="enable-background:new 0 0 556 371;" xml:space="preserve">
<style type="text/css">
	.st0{fill:url(#SVGID_1_);}
	.st1{enable-background:new    ;}
	.st2{fill:#052741;}
</style>
<linearGradient id="SVGID_1_" gradientUnits="userSpaceOnUse" x1="-79.8388" y1="455.5471" x2="372.6508" y2="114.0044" gradientTransform="matrix(1 0 0 -1 0 371.276)">
	<stop  offset="0.309" style="stop-color:#FFEA14"/>
	<stop  offset="0.389" style="stop-color:#FAEB1B"/>
	<stop  offset="0.509" style="stop-color:#EBED30"/>
	<stop  offset="0.6544" style="stop-color:#D2F252"/>
	<stop  offset="0.8196" style="stop-color:#B0F880"/>
	<stop  offset="1" style="stop-color:#85FFBC"/>
</linearGradient>
<path class="st0" d="M255.11,363.33L9.98,202.6c-12.18-7.99-12.18-25.84,0-33.83L255.11,8.04c13.78-9.04,31.62-9.04,45.4,0
	l245.13,160.73c12.18,7.99,12.18,25.84,0,33.83L300.51,363.33C286.72,372.37,268.89,372.37,255.11,363.33z"/>
<g>
	<g>
		<g class="st1">
			<path class="st2" d="M315.47,278.61l5.62-3.68c4.51-2.96,8.15-1.37,9.81-0.16c2.18,1.59,1.61,3.22,0.73,4.15
				c1.19-0.46,3.84-1,6.18,0.7c1.66,1.21,3.84,3.88-0.67,6.83l-5.76,3.77L315.47,278.61z M327.77,279.81
				c2.21-1.45,1.2-2.71,0.43-3.27c-0.8-0.58-2.56-1.35-4.77,0.1l-2.91,1.91l4.34,3.17L327.77,279.81z M327.19,283.43l4.55,3.32
				l3.05-2c2.21-1.45,1.13-2.75,0.31-3.35c-0.79-0.58-2.77-1.34-4.83,0.02L327.19,283.43z"/>
			<path class="st2" d="M329.52,269.41l2.56-1.68l15.91,11.61l-2.56,1.68L329.52,269.41z"/>
			<path class="st2" d="M345.3,273.77c-3-2.19-3.29-5.56,0.19-7.83c3.53-2.31,8.37-1.93,11.37,0.26c3,2.19,3.29,5.56-0.23,7.87
				C353.15,276.34,348.3,275.96,345.3,273.77z M354.3,267.88c-1.82-1.33-4.63-1.62-6.61-0.33c-1.93,1.26-1.65,3.22,0.17,4.55
				c1.82,1.33,4.63,1.62,6.56,0.36C356.39,271.16,356.12,269.2,354.3,267.88z"/>
			<path class="st2" d="M365.34,258.66c-1.3-0.75-2.78-0.86-4.52,0.28c-1.97,1.29-1.37,3.07,0.43,4.38
				c1.82,1.33,4.26,1.87,6.47,0.42c1.5-0.98,1.48-1.85,0.74-2.84l2.56-1.68c1.85,1.84,1.89,4.18-1.28,6.25
				c-3.57,2.34-8.16,1.63-11.04-0.48c-2.86-2.09-3.67-5.31-0.12-7.63c3.57-2.34,7.12-1.77,9.33-0.38L365.34,258.66z"/>
			<path class="st2" d="M377.23,252.86l9.85,0.88l-3.2,2.09l-8.68-0.77l4.66,3.4l-2.56,1.68l-15.91-11.61l2.56-1.68l10,7.3
				l-0.66-6.05l3.2-2.09L377.23,252.86z"/>
			<path class="st2" d="M389.03,243.15c-1.3-0.75-2.78-0.86-4.52,0.28c-1.97,1.29-1.37,3.07,0.43,4.38
				c1.82,1.33,4.26,1.87,6.47,0.42c1.5-0.98,1.48-1.85,0.74-2.84l2.56-1.68c1.85,1.84,1.89,4.18-1.28,6.25
				c-3.57,2.34-8.16,1.63-11.04-0.48c-2.86-2.09-3.66-5.31-0.12-7.63c3.57-2.34,7.12-1.77,9.33-0.38L389.03,243.15z"/>
			<path class="st2" d="M385.08,233.02l2.56-1.68l6.79,4.96c-0.45-1.28,0.2-2.55,1.82-3.62c1.57-1.03,3.22-1.36,4.72-1.11
				c1.34,0.23,2.39,0.76,3.84,1.83l6.3,4.59l-2.56,1.68l-5.48-4c-1.82-1.33-3.74-1.98-5.58-0.78c-1.79,1.17-1.25,2.74,0.57,4.06
				l5.48,4l-2.56,1.68L385.08,233.02z"/>
			<path class="st2" d="M414.51,221.11l10.59,7.73l-2.56,1.68l-1.43-1.04c0.39,1.23-0.41,2.63-1.68,3.46
				c-3.34,2.19-8.18,1.8-11.19-0.39c-3-2.19-3.29-5.56,0.05-7.74c1.27-0.83,3.34-1.31,5.09-0.97l-1.43-1.05L414.51,221.11z
				 M417.24,226.65c-1.82-1.33-4.63-1.62-6.61-0.33c-1.93,1.26-1.65,3.22,0.17,4.55c1.82,1.33,4.63,1.62,6.56,0.36
				C419.34,229.94,419.06,227.98,417.24,226.65z"/>
			<path class="st2" d="M414.02,213.53c1.06-0.69,2.72-0.65,3.74,0.1c1,0.73,0.97,1.88-0.09,2.57c-1.03,0.68-2.7,0.63-3.7-0.09
				C412.95,215.36,412.98,214.21,414.02,213.53z M418.45,218.52l2.56-1.68l10.59,7.73l-2.56,1.68L418.45,218.52z"/>
			<path class="st2" d="M424.96,214.26l2.56-1.68l1.48,1.08c-0.45-1.28,0.2-2.55,1.82-3.62c1.57-1.03,3.22-1.36,4.72-1.11
				c1.34,0.23,2.39,0.77,3.84,1.83l6.3,4.59l-2.56,1.68l-5.48-4c-1.82-1.33-3.75-1.98-5.58-0.78c-1.79,1.17-1.25,2.73,0.57,4.06
				l5.48,4l-2.56,1.68L424.96,214.26z"/>
		</g>
	</g>
</g>
</svg>
